<?xml version="1.0" encoding="UTF-8"?>
<svg version="1.1" xmlns="http://www.w3.org/2000/svg" width="196" height="196">
<path d="M0 0 C18.01882524 15.2033838 31.7232991 37.94846337 34.375 61.6875 C36.5272021 92.63776735 29.93620357 118.12885132 9.7421875 142.0625 C-5.95417994 159.4683728 -29.2093065 172.26784511 -52.83398438 173.91064453 C-83.91260886 175.29606672 -109.22466899 167.78958422 -132.625 146.6875 C-150.93895425 128.91573519 -161.45080184 104.74373781 -162.09570312 79.37304688 C-162.32825897 50.11752131 -152.92180506 25.54251268 -132.3203125 4.3125 C-95.17957783 -30.75809536 -39.48924115 -31.07797817 0 0 Z " fill="#018DBE" transform="translate(161.625,22.3125)"/>
<path d="M0 0 C5.85598311 2.32908419 10.16907789 6.33815578 13 12 C13.66112675 19.14233651 13.72747491 25.2616914 9 31 C1.1091637 40.29663756 -7.64828348 48.79420037 -16.26953125 57.40234375 C-17.83906897 58.97255627 -19.40845832 60.54291711 -20.97770691 62.11341858 C-24.24808442 65.38526217 -27.52024319 68.65531076 -30.79370117 71.92407227 C-34.98794176 76.11258777 -39.1776383 80.3056155 -43.3660326 84.49997616 C-46.59753461 87.7350891 -49.83141124 90.96781984 -53.06601524 94.19983101 C-54.6125088 95.74565825 -56.15826196 97.29222658 -57.70325661 98.83955193 C-59.85680862 100.99564226 -62.01353773 103.14850349 -64.17114258 105.30053711 C-64.80652451 105.93794327 -65.44190643 106.57534943 -66.09654236 107.23207092 C-71.59591416 112.70515465 -76.21276802 117.00632456 -84.3125 117.3125 C-94.38396832 116.98010831 -100.06778031 112.0045559 -107 105 C-107.89532399 103.97574935 -108.77481437 102.9370164 -109.625 101.875 C-112.16663097 98.79828882 -114.92236233 96.37520219 -117.94921875 93.79296875 C-120.55844101 91.511763 -122.98912355 89.08759679 -125.4140625 86.61328125 C-126.76896577 85.23501758 -128.16213833 83.89455135 -129.5625 82.5625 C-135.55620987 76.26142039 -140.28717238 70.56687202 -140.375 61.6875 C-140.40335938 60.39199219 -140.43171875 59.09648438 -140.4609375 57.76171875 C-139.8056168 52.41363545 -137.20476554 48.47567254 -133 45.125 C-128.15351476 41.92174366 -122.56072502 41.86651888 -117 43 C-108.09827539 46.43598126 -102.15003171 53.57773189 -95.77954102 60.37792969 C-94.4196077 61.82189718 -93.04401157 63.25106337 -91.66796875 64.6796875 C-90.86641357 65.53288574 -90.0648584 66.38608398 -89.23901367 67.26513672 C-87.20809784 69.25840113 -87.20809784 69.25840113 -85.03624344 68.76332474 C-81.62396461 67.48416686 -79.38469303 64.74645268 -76.88964844 62.18261719 C-76.28743973 61.57602768 -75.68523102 60.96943817 -75.06477356 60.34446716 C-73.75792423 59.02620285 -72.45455231 57.70448424 -71.15425873 56.37975311 C-69.09210174 54.2792808 -67.02069589 52.18834457 -64.94659424 50.09967041 C-59.79386442 44.90683185 -54.65740238 39.69799633 -49.52056885 34.48944092 C-45.18419802 30.09370531 -40.84162904 25.70427193 -36.49073029 21.32291412 C-34.45725129 19.27008788 -32.43308062 17.20838279 -30.40911865 15.1461792 C-29.1491737 13.87532546 -27.8887993 12.60489728 -26.62792969 11.33496094 C-26.07387955 10.76541183 -25.51982941 10.19586273 -24.94898987 9.60905457 C-17.48662869 2.1437452 -10.79177213 -1.81313376 0 0 Z " fill="#F9FCFB" transform="translate(160,43)"/>
<path d="M0 0 C0.74709732 0.22852661 1.49419464 0.45705322 2.26393127 0.69250488 C1.93393127 2.34250488 1.60393127 3.99250488 1.26393127 5.69250488 C0.60393127 5.69250488 -0.05606873 5.69250488 -0.73606873 5.69250488 C-1.06606873 7.34250488 -1.39606873 8.99250488 -1.73606873 10.69250488 C-3.38606873 11.02250488 -5.03606873 11.35250488 -6.73606873 11.69250488 C-7.06606873 12.68250488 -7.39606873 13.67250488 -7.73606873 14.69250488 C-9.05606873 14.69250488 -10.37606873 14.69250488 -11.73606873 14.69250488 C-11.73606873 14.03250488 -11.73606873 13.37250488 -11.73606873 12.69250488 C-12.39606873 12.69250488 -13.05606873 12.69250488 -13.73606873 12.69250488 C-13.73606873 15.33250488 -13.73606873 17.97250488 -13.73606873 20.69250488 C-14.72606873 21.02250488 -15.71606873 21.35250488 -16.73606873 21.69250488 C-17.06606873 22.68250488 -17.39606873 23.67250488 -17.73606873 24.69250488 C-19.73606873 24.69250488 -21.73606873 24.69250488 -23.73606873 24.69250488 C-23.73606873 26.67250488 -23.73606873 28.65250488 -23.73606873 30.69250488 C-25.05606873 30.69250488 -26.37606873 30.69250488 -27.73606873 30.69250488 C-27.73606873 30.03250488 -27.73606873 29.37250488 -27.73606873 28.69250488 C-28.39606873 28.69250488 -29.05606873 28.69250488 -29.73606873 28.69250488 C-29.73606873 31.33250488 -29.73606873 33.97250488 -29.73606873 36.69250488 C-30.51981873 36.98125488 -31.30356873 37.27000488 -32.11106873 37.56750488 C-34.83278505 38.54162742 -34.83278505 38.54162742 -36.73606873 40.69250488 C-39.36840665 41.54880758 -42.03153691 42.08180415 -44.73606873 42.69250488 C-37.97489777 34.62192647 -30.58176035 27.20536739 -23.17723083 19.7286377 C-21.50006689 18.02972213 -19.82920611 16.32456223 -18.16453552 14.61340332 C-15.7533943 12.13570048 -13.32345081 9.67794787 -10.88841248 7.22375488 C-10.14558517 6.45309692 -9.40275787 5.68243896 -8.63742065 4.88842773 C-7.93641739 4.19019897 -7.23541412 3.49197021 -6.51316833 2.77258301 C-5.90283249 2.1519397 -5.29249664 1.53129639 -4.66366577 0.8918457 C-2.73606873 -0.30749512 -2.73606873 -0.30749512 0 0 Z " fill="#1390B8" transform="translate(134.73606872558594,111.3074951171875)"/>
<path d="M0 0 C1.95093708 1.01627762 3.88846506 2.05866738 5.8125 3.125 C6.78832031 3.66382812 7.76414063 4.20265625 8.76953125 4.7578125 C9.50558594 5.16773437 10.24164063 5.57765625 11 6 C11 7.32 11 8.64 11 10 C12.65 10 14.3 10 16 10 C15.67 10.66 15.34 11.32 15 12 C15.99 12.99 16.98 13.98 18 15 C17.505 16.485 17.505 16.485 17 18 C16.31035156 17.26394531 15.62070312 16.52789062 14.91015625 15.76953125 C7.82522614 8.34450419 1.72372529 1.96129551 -9.0625 1.3125 C-14.34862958 1.53528707 -17.45187592 2.93447861 -21.4765625 6.296875 C-25.87010352 11.20862855 -25.71439916 16.81382717 -25.515625 23.15234375 C-24.42270103 31.30787488 -19.2756486 36.172578 -13 41 C-10.88611128 43.58699715 -8.92698424 46.27176115 -7 49 C-8.65 48.34 -10.3 47.68 -12 47 C-12 46.34 -12 45.68 -12 45 C-12.5775 44.7525 -13.155 44.505 -13.75 44.25 C-16.32939979 42.81700012 -18.06121592 41.21575324 -20 39 C-20 38.34 -20 37.68 -20 37 C-20.66 37 -21.32 37 -22 37 C-22 36.34 -22 35.68 -22 35 C-22.99 35 -23.98 35 -25 35 C-27.86723355 29.38500096 -28.30197739 24.45242094 -28.3125 18.25 C-28.31765625 17.50500244 -28.3228125 16.76000488 -28.328125 15.99243164 C-28.24082033 9.08211076 -28.24082033 9.08211076 -26 6 C-23.875 5.25 -23.875 5.25 -22 5 C-22 4.01 -22 3.02 -22 2 C-14.22154399 -2.03327348 -8.34190546 -3.71853141 0 0 Z " fill="#1684AD" transform="translate(46,85)"/>
<path d="M0 0 C0.71551025 0.26167969 1.43102051 0.52335937 2.16821289 0.79296875 C2.16821289 2.44296875 2.16821289 4.09296875 2.16821289 5.79296875 C1.17821289 5.79296875 0.18821289 5.79296875 -0.83178711 5.79296875 C-1.16178711 7.44296875 -1.49178711 9.09296875 -1.83178711 10.79296875 C-3.48178711 11.12296875 -5.13178711 11.45296875 -6.83178711 11.79296875 C-7.16178711 12.78296875 -7.49178711 13.77296875 -7.83178711 14.79296875 C-9.15178711 14.79296875 -10.47178711 14.79296875 -11.83178711 14.79296875 C-11.83178711 14.13296875 -11.83178711 13.47296875 -11.83178711 12.79296875 C-12.49178711 12.79296875 -13.15178711 12.79296875 -13.83178711 12.79296875 C-13.83178711 15.43296875 -13.83178711 18.07296875 -13.83178711 20.79296875 C-14.82178711 21.12296875 -15.81178711 21.45296875 -16.83178711 21.79296875 C-17.16178711 22.78296875 -17.49178711 23.77296875 -17.83178711 24.79296875 C-19.83178711 24.79296875 -21.83178711 24.79296875 -23.83178711 24.79296875 C-23.83178711 26.77296875 -23.83178711 28.75296875 -23.83178711 30.79296875 C-25.15178711 30.79296875 -26.47178711 30.79296875 -27.83178711 30.79296875 C-27.83178711 30.13296875 -27.83178711 29.47296875 -27.83178711 28.79296875 C-29.15178711 29.12296875 -30.47178711 29.45296875 -31.83178711 29.79296875 C-26.79007024 23.70485781 -21.36954835 18.01236909 -15.82714844 12.38330078 C-14.78051968 11.31485701 -13.74021624 10.24018347 -12.70605469 9.15966797 C-11.1983647 7.58533319 -9.67212326 6.03136719 -8.14038086 4.48046875 C-7.2411792 3.55621094 -6.34197754 2.63195312 -5.41552734 1.6796875 C-2.83178711 -0.20703125 -2.83178711 -0.20703125 0 0 Z " fill="#1491B8" transform="translate(166.831787109375,79.20703125)"/>
<path d="M0 0 C0.33 1.32 0.66 2.64 1 4 C-0.75 6.75 -0.75 6.75 -3 9 C-3.99 9 -4.98 9 -6 9 C-6 9.9075 -6 10.815 -6 11.75 C-7 15 -7 15 -8.77734375 16.18359375 C-10.19695087 16.84333883 -11.63511427 17.46477319 -13.08984375 18.04296875 C-15.33974501 18.97290293 -15.33974501 18.97290293 -17 22 C-18.32 21.67 -19.64 21.34 -21 21 C-14.07 14.07 -7.14 7.14 0 0 Z " fill="#CDF0FA" transform="translate(103,85)"/>
<path d="M0 0 C1.134375 0.020625 2.26875 0.04125 3.4375 0.0625 C2.0110422 3.3211636 0.27045838 5.4649854 -2.2578125 7.953125 C-3.33095703 9.01660156 -3.33095703 9.01660156 -4.42578125 10.1015625 C-5.17214844 10.83117187 -5.91851562 11.56078125 -6.6875 12.3125 C-7.44160156 13.05757812 -8.19570312 13.80265625 -8.97265625 14.5703125 C-10.83150772 16.4056342 -12.69487005 18.2361191 -14.5625 20.0625 C-14.8925 19.0725 -15.2225 18.0825 -15.5625 17.0625 C-14.9025 17.0625 -14.2425 17.0625 -13.5625 17.0625 C-13.5625 15.7425 -13.5625 14.4225 -13.5625 13.0625 C-12.2425 13.0625 -10.9225 13.0625 -9.5625 13.0625 C-9.8925 11.7425 -10.2225 10.4225 -10.5625 9.0625 C-8.9125 8.7325 -7.2625 8.4025 -5.5625 8.0625 C-4.87542445 5.57185112 -4.5625 3.68363708 -4.5625 1.0625 C-3.5625 0.0625 -3.5625 0.0625 0 0 Z " fill="#1986AD" transform="translate(125.5625,57.9375)"/>
<path d="M0 0 C0.33 0 0.66 0 1 0 C0.99097656 0.82242188 0.98195313 1.64484375 0.97265625 2.4921875 C1.20485056 11.23480794 3.0837781 16.52873809 9 23 C10.64295195 24.36244796 12.30824337 25.69864875 14 27 C16.11388872 29.58699715 18.07301576 32.27176115 20 35 C18.35 34.34 16.7 33.68 15 33 C15 32.34 15 31.68 15 31 C14.4225 30.7525 13.845 30.505 13.25 30.25 C10.67060021 28.81700012 8.93878408 27.21575324 7 25 C7 24.34 7 23.68 7 23 C6.34 23 5.68 23 5 23 C5 22.34 5 21.68 5 21 C4.01 21 3.02 21 2 21 C-0.82633445 13.63875604 -1.22657444 7.77323077 0 0 Z " fill="#3094B5" transform="translate(19,99)"/>
<path d="M0 0 C0.97582031 0.54785156 1.95164062 1.09570312 2.95703125 1.66015625 C3.69308594 2.08167969 4.42914063 2.50320312 5.1875 2.9375 C5.1875 4.2575 5.1875 5.5775 5.1875 6.9375 C6.8375 6.9375 8.4875 6.9375 10.1875 6.9375 C9.8575 7.5975 9.5275 8.2575 9.1875 8.9375 C10.1775 9.9275 11.1675 10.9175 12.1875 11.9375 C11.8575 12.9275 11.5275 13.9175 11.1875 14.9375 C10.15302734 13.83341797 10.15302734 13.83341797 9.09765625 12.70703125 C0.99098894 4.21723465 -5.62819 -1.48229476 -17.8125 -2.0625 C-17.8125 -2.3925 -17.8125 -2.7225 -17.8125 -3.0625 C-10.47920337 -4.35661117 -6.45674606 -3.6562297 0 0 Z " fill="#2B91AE" transform="translate(51.8125,88.0625)"/>
<path d="M0 0 C-1.53248049 3.58402695 -3.6674601 6.02850134 -6.375 8.8125 C-7.14585938 9.62332031 -7.91671875 10.43414062 -8.7109375 11.26953125 C-11 13 -11 13 -13.1484375 12.921875 C-15.87907829 11.56231545 -17.24698846 9.44169464 -19 7 C-18.34 7 -17.68 7 -17 7 C-16.67 6.34 -16.34 5.68 -16 5 C-14.88625 5.33 -13.7725 5.66 -12.625 6 C-9.30540283 7.088643 -9.30540283 7.088643 -7 7 C-7 6.01 -7 5.02 -7 4 C-6.01 4 -5.02 4 -4 4 C-4.33 3.01 -4.66 2.02 -5 1 C-2 0 -2 0 0 0 Z " fill="#1797B8" transform="translate(87,100)"/>
<path d="M0 0 C1.90625 1.10546875 1.90625 1.10546875 4.65625 3.10546875 C4.32625 4.09546875 3.99625 5.08546875 3.65625 6.10546875 C2.74875 5.44546875 1.84125 4.78546875 0.90625 4.10546875 C-4.26664087 1.1944087 -9.57941126 1.08252263 -15.34375 2.10546875 C-18.69361648 3.73683436 -21.45777485 5.76951128 -24.34375 8.10546875 C-25.33375 8.60046875 -25.33375 8.60046875 -26.34375 9.10546875 C-24.84689027 4.61488956 -21.24079176 2.44022205 -17.34375 0.10546875 C-11.96102861 -1.68877171 -5.35707536 -2.04461709 0 0 Z " fill="#2088A9" transform="translate(163.34375,41.89453125)"/>
<path d="M0 0 C0.625 1.75 0.625 1.75 1 4 C0.6803125 4.53625 0.360625 5.0725 0.03125 5.625 C-1.47902935 9.1032191 -1.21043501 12.53029131 -1.125 16.25 C-1.11146484 17.36761719 -1.11146484 17.36761719 -1.09765625 18.5078125 C-1.07418358 20.33868059 -1.03831525 22.16938238 -1 24 C-2.47265625 22.95703125 -2.47265625 22.95703125 -4 21 C-4.43359375 17.63671875 -4.43359375 17.63671875 -4.4375 13.6875 C-4.45683594 12.39199219 -4.47617187 11.09648438 -4.49609375 9.76171875 C-3.90585408 5.28612185 -2.73463264 3.49274862 0 0 Z " fill="#CDF2F9" transform="translate(24,91)"/>
<path d="M0 0 C2.475 0.495 2.475 0.495 5 1 C1.16859001 5.16947557 -2.29975063 8.49792155 -8.1015625 9.28515625 C-13.70146073 9.50645807 -17.89123507 8.22927924 -23 6 C-19.92478317 4.46239158 -17.65324882 5.63400764 -14.375 6.4375 C-13.18648437 6.72496094 -11.99796875 7.01242188 -10.7734375 7.30859375 C-9.85820313 7.53675781 -8.94296875 7.76492187 -8 8 C-8 7.34 -8 6.68 -8 6 C-7.236875 5.938125 -6.47375 5.87625 -5.6875 5.8125 C-2.76948191 5.23064738 -2.76948191 5.23064738 -1.1875 2.4375 C-0.795625 1.633125 -0.40375 0.82875 0 0 Z " fill="#BAE4F0" transform="translate(86,151)"/>
<path d="M0 0 C0.66 0.33 1.32 0.66 2 1 C-0.80848497 3.83733775 -3.62243923 6.66918749 -6.4375 9.5 C-7.64116211 10.71623047 -7.64116211 10.71623047 -8.86914062 11.95703125 C-10.01479492 13.10751953 -10.01479492 13.10751953 -11.18359375 14.28125 C-11.89056396 14.99345703 -12.59753418 15.70566406 -13.32592773 16.43945312 C-15 18 -15 18 -16 18 C-16.36458333 13.50347222 -16.36458333 13.50347222 -14.6875 11.1875 C-13 10 -13 10 -10 10 C-10 9.34 -10 8.68 -10 8 C-8.06640625 6.30859375 -8.06640625 6.30859375 -5.5625 4.4375 C-2.67307373 2.34532911 -2.67307373 2.34532911 0 0 Z " fill="#1F82AB" transform="translate(108,78)"/>
<path d="M0 0 C4.18512044 3.50971195 8.18012017 7.08917065 12 11 C13.60281008 12.60552211 15.20708155 14.2095861 16.8125 15.8125 C18.20833333 17.20833333 19.60416667 18.60416667 21 20 C20.01 20.33 19.02 20.66 18 21 C17.67 20.01 17.34 19.02 17 18 C16.34 18 15.68 18 15 18 C12.875 16.125 12.875 16.125 11 14 C11 13.34 11 12.68 11 12 C9.68 11.34 8.36 10.68 7 10 C7 9.34 7 8.68 7 8 C6.34 8 5.68 8 5 8 C5 7.34 5 6.68 5 6 C4.34 6 3.68 6 3 6 C3 5.34 3 4.68 3 4 C2.34 4 1.68 4 1 4 C0.67 2.68 0.34 1.36 0 0 Z " fill="#268CB1" transform="translate(39,134)"/>
<path d="M0 0 C0.66 0 1.32 0 2 0 C2 1.32 2 2.64 2 4 C-5.4654395 6.77476512 -12.06714481 7.36801906 -20 7 C-20.33 6.34 -20.66 5.68 -21 5 C-20.05898437 4.96261719 -19.11796875 4.92523438 -18.1484375 4.88671875 C-16.90320313 4.82097656 -15.65796875 4.75523437 -14.375 4.6875 C-12.53035156 4.60048828 -12.53035156 4.60048828 -10.6484375 4.51171875 C-6.67512741 3.95443436 -2.92414507 2.92414507 0 0 Z " fill="#1187A7" transform="translate(87,155)"/>
<path d="M0 0 C0 3.7794561 -1.04679411 5.79116175 -3 9 C-5.0625 9.625 -5.0625 9.625 -7 10 C-8.28436734 11.9837767 -8.28436734 11.9837767 -9 14 C-9.66 14 -10.32 14 -11 14 C-11 14.99 -11 15.98 -11 17 C-12.32 16.67 -13.64 16.34 -15 16 C-10.30233025 10.33870569 -5.25276628 5.14771096 0 0 Z " fill="#BEEBF7" transform="translate(129,59)"/>
<path d="M0 0 C2.64516087 2.64516087 2.32873984 4.00056515 2.375 7.6875 C2.30694787 13.34263223 1.30005489 16.46242452 -2 21 C-2.33 19.68 -2.66 18.36 -3 17 C-2.34 17 -1.68 17 -1 17 C-1.01160156 16.10796875 -1.02320313 15.2159375 -1.03515625 14.296875 C-1.04417969 13.12640625 -1.05320313 11.9559375 -1.0625 10.75 C-1.07410156 9.58984375 -1.08570313 8.4296875 -1.09765625 7.234375 C-1.01782092 4.59022872 -0.78643778 2.50173909 0 0 Z " fill="#CFF0F6" transform="translate(171,53)"/>
<path d="M0 0 C0.66 0 1.32 0 2 0 C2 0.66 2 1.32 2 2 C2.66 2 3.32 2 4 2 C4 6.95 4 11.9 4 17 C3.34 17 2.68 17 2 17 C2 18.65 2 20.3 2 22 C1.01 22 0.02 22 -1 22 C-0.67 21.2575 -0.34 20.515 0 19.75 C1.68495213 13.4314295 1.88983739 6.31961624 0 0 Z " fill="#1E88AC" transform="translate(171,51)"/>
<path d="M0 0 C0.66 0.33 1.32 0.66 2 1 C-3.27315495 8.88812114 -3.27315495 8.88812114 -7 11 C-7.99 11 -8.98 11 -10 11 C-10.33 11.99 -10.66 12.98 -11 14 C-11.99 13.67 -12.98 13.34 -14 13 C-12.41984377 11.39270369 -10.83574348 9.78928424 -9.25 8.1875 C-8.36828125 7.29417969 -7.4865625 6.40085937 -6.578125 5.48046875 C-4.46551149 3.44787848 -2.39205335 1.68226182 0 0 Z " fill="#C7EDF7" transform="translate(144,45)"/>
<path d="M0 0 C0.33 0.66 0.66 1.32 1 2 C0.01 3.485 0.01 3.485 -1 5 C-1.66 5 -2.32 5 -3 5 C-3.33 5.99 -3.66 6.98 -4 8 C-5.9375 7.6875 -5.9375 7.6875 -8 7 C-8.33 6.01 -8.66 5.02 -9 4 C-6.01353231 2.00902154 -3.40312738 1.05875074 0 0 Z " fill="#098AB7" transform="translate(99,150)"/>
<path d="M0 0 C0.625 1.8125 0.625 1.8125 1 4 C-1.51740541 7.77610811 -3.89808494 8.2420364 -8 10 C-8.99 11.485 -8.99 11.485 -10 13 C-11.32 12.67 -12.64 12.34 -14 12 C-11.16986757 8.74105963 -9.54114307 7.14675066 -5.3125 6 C-1.79947381 5.36165756 -1.79947381 5.36165756 -0.5625 2.375 C-0.376875 1.59125 -0.19125 0.8075 0 0 Z " fill="#EDFBFA" transform="translate(96,94)"/>
<path d="M0 0 C-1.53218685 3.63061667 -3.7183144 5.9863773 -6.5 8.75 C-7.69109375 9.94882813 -7.69109375 9.94882813 -8.90625 11.171875 C-11 13 -11 13 -13 13 C-13 12.34 -13 11.68 -13 11 C-12.34 11 -11.68 11 -11 11 C-11 10.34 -11 9.68 -11 9 C-10.34 9 -9.68 9 -9 9 C-9 8.34 -9 7.68 -9 7 C-8.34 7 -7.68 7 -7 7 C-7 6.01 -7 5.02 -7 4 C-6.01 4 -5.02 4 -4 4 C-4.33 3.01 -4.66 2.02 -5 1 C-2 0 -2 0 0 0 Z " fill="#2083A9" transform="translate(87,100)"/>
<path d="M0 0 C1.1446875 0.3403125 1.1446875 0.3403125 2.3125 0.6875 C1.35828192 1.83676266 0.39897955 2.98180541 -0.5625 4.125 C-1.09617188 4.76308594 -1.62984375 5.40117188 -2.1796875 6.05859375 C-3.6875 7.6875 -3.6875 7.6875 -5.6875 8.6875 C-6.04825949 3.27610759 -6.04825949 3.27610759 -4.5 0.75 C-2.6875 -0.3125 -2.6875 -0.3125 0 0 Z " fill="#E0F6FA" transform="translate(151.6875,88.3125)"/>
<path d="M0 0 C1.670625 0.061875 1.670625 0.061875 3.375 0.125 C1.98167426 3.49220387 0.3960714 5.1109524 -2.625 7.125 C-4.625 6.125 -4.625 6.125 -5.375 4.1875 C-5.4575 3.506875 -5.54 2.82625 -5.625 2.125 C-3.625 0.125 -3.625 0.125 0 0 Z " fill="#108AB5" transform="translate(125.625,57.875)"/>
<path d="M0 0 C1.85776765 3.13498292 2.20140476 5.37471432 2 9 C2.66 9.33 3.32 9.66 4 10 C3.67 10.99 3.34 11.98 3 13 C0.47740939 11.02579865 0.0070192 10.03254358 -0.6875 6.8125 C-0.790625 5.884375 -0.89375 4.95625 -1 4 C-1.99 3.67 -2.98 3.34 -4 3 C-2.68 2.01 -1.36 1.02 0 0 Z " fill="#1095B6" transform="translate(64,94)"/>
<path d="M0 0 C1 2 1 2 0.1875 4.5 C-1 7 -1 7 -3 9 C-4.98821313 9.39764263 -6.98944339 9.73775349 -9 10 C-8.06409496 8.8944811 -7.12620142 7.79064547 -6.1875 6.6875 C-5.66542969 6.07261719 -5.14335938 5.45773438 -4.60546875 4.82421875 C-3.12827531 3.14575321 -1.59960869 1.56117966 0 0 Z " fill="#C3EFF8" transform="translate(113,75)"/>
<path d="M0 0 C0.66 0 1.32 0 2 0 C3.33257403 9.41002278 3.33257403 9.41002278 2 14 C1.67 14 1.34 14 1 14 C0.67 9.38 0.34 4.76 0 0 Z " fill="#FDF8F1" transform="translate(22,99)"/>
<path d="M0 0 C1.08667969 0.01804687 2.17335938 0.03609375 3.29296875 0.0546875 C4.54013672 0.08949219 4.54013672 0.08949219 5.8125 0.125 C5.8125 0.455 5.8125 0.785 5.8125 1.125 C0.3675 1.62 0.3675 1.62 -5.1875 2.125 C-5.1875 2.785 -5.1875 3.445 -5.1875 4.125 C-7.4975 4.455 -9.8075 4.785 -12.1875 5.125 C-8.24347843 0.99316788 -5.73324527 -0.1232956 0 0 Z " fill="#A5DCEA" transform="translate(37.1875,85.875)"/>
<path d="M0 0 C3.87511727 0.54984772 5.59576506 2.27555331 8.25 5.0625 C8.95640625 5.79597656 9.6628125 6.52945313 10.390625 7.28515625 C10.92171875 7.85105469 11.4528125 8.41695312 12 9 C11.01 9.33 10.02 9.66 9 10 C8.67 9.01 8.34 8.02 8 7 C7.34 7 6.68 7 6 7 C3.875 5.125 3.875 5.125 2 3 C2 2.34 2 1.68 2 1 C1.34 0.67 0.68 0.34 0 0 Z " fill="#1D8AA9" transform="translate(48,145)"/>
<path d="M0 0 C1 2 1 2 0.4375 4.5625 C-1 7 -1 7 -4.125 7.8125 C-5.548125 7.9053125 -5.548125 7.9053125 -7 8 C-6.02133662 6.85373678 -5.04205413 5.70800212 -4.0625 4.5625 C-3.51722656 3.92441406 -2.97195312 3.28632812 -2.41015625 2.62890625 C-1.63204305 1.73008851 -0.84063472 0.84063472 0 0 Z " fill="#BFEDF7" transform="translate(95,93)"/>
<path d="M0 0 C0.66 0 1.32 0 2 0 C1.67 1.32 1.34 2.64 1 4 C0.34 4 -0.32 4 -1 4 C-1 4.99 -1 5.98 -1 7 C-2.32 6.67 -3.64 6.34 -5 6 C-3.38405168 3.95880212 -1.7143618 1.95927063 0 0 Z " fill="#D0EDF9" transform="translate(119,69)"/>
<path d="M0 0 C1.98 1.65 3.96 3.3 6 5 C5.67 5.66 5.34 6.32 5 7 C3.68 6.67 2.36 6.34 1 6 C0.67 4.02 0.34 2.04 0 0 Z " fill="#E4F5FB" transform="translate(62,102)"/>
<path d="M0 0 C0.66 1.32 1.32 2.64 2 4 C0.35 5.32 -1.3 6.64 -3 8 C-3 7.34 -3 6.68 -3 6 C-3.66 5.67 -4.32 5.34 -5 5 C-4.34 4.34 -3.68 3.68 -3 3 C-2.01 3 -1.02 3 0 3 C0 2.01 0 1.02 0 0 Z " fill="#E8F4F8" transform="translate(142,96)"/>
<path d="M0 0 C-1.39332574 3.36720387 -2.9789286 4.9859524 -6 7 C-6 5.35 -6 3.7 -6 2 C-2.25 0 -2.25 0 0 0 Z " fill="#1A84AB" transform="translate(136,51)"/>
<path d="M0 0 C0.33 0 0.66 0 1 0 C1.18451025 10.55808656 1.18451025 10.55808656 0 15 C-0.99 15 -1.98 15 -3 15 C-2.690625 14.195625 -2.38125 13.39125 -2.0625 12.5625 C-0.81434483 8.37750913 -0.3662304 4.33693899 0 0 Z " fill="#3E99B7" transform="translate(173,58)"/>
<path d="M0 0 C-0.33 1.32 -0.66 2.64 -1 4 C-3.31 4.66 -5.62 5.32 -8 6 C-3.375 0 -3.375 0 0 0 Z " fill="#2096B6" transform="translate(98,148)"/>
<path d="M0 0 C1.66611905 -0.042721 3.33382885 -0.04063832 5 0 C6 1 6 1 6.0625 3.5625 C6.041875 4.366875 6.02125 5.17125 6 6 C3.97945196 4.35830472 1.97956942 2.69088222 0 1 C0 0.67 0 0.34 0 0 Z " fill="#C9E6F4" transform="translate(33,127)"/>
<path d="M0 0 C0 3 0 3 -1.125 5.1875 C-3 7 -3 7 -6.1875 7.25 C-7.115625 7.1675 -8.04375 7.085 -9 7 C-8.67 6.34 -8.34 5.68 -8 5 C-7.401875 4.87625 -6.80375 4.7525 -6.1875 4.625 C-3.29805668 3.79944477 -1.98392064 2.19648357 0 0 Z " fill="#B7E2F1" transform="translate(81,107)"/>
<path d="M0 0 C0.66 0 1.32 0 2 0 C2 1.32 2 2.64 2 4 C-0.3125 4.625 -0.3125 4.625 -3 5 C-3.99 4.34 -4.98 3.68 -6 3 C-5.195625 2.690625 -4.39125 2.38125 -3.5625 2.0625 C-1.10919595 1.23664655 -1.10919595 1.23664655 0 0 Z " fill="#2F90B7" transform="translate(87,155)"/>
<path d="M0 0 C0.66 0.99 1.32 1.98 2 3 C1.67 3.99 1.34 4.98 1 6 C-0.65 5.67 -2.3 5.34 -4 5 C-2.68 3.35 -1.36 1.7 0 0 Z " fill="#1E95BC" transform="translate(110,133)"/>
<path d="M0 0 C0.99 0 1.98 0 3 0 C3 1.65 3 3.3 3 5 C2.01 5.495 2.01 5.495 1 6 C0.34 5.67 -0.32 5.34 -1 5 C-0.67 3.35 -0.34 1.7 0 0 Z " fill="#F9F6F0" transform="translate(134,56)"/>
<path d="M0 0 C2 1 4 2 6 3 C5.67 3.99 5.34 4.98 5 6 C1.535 4.02 1.535 4.02 -2 2 C-1.34 1.34 -0.68 0.68 0 0 Z " fill="#3A91BA" transform="translate(162,42)"/>
<path d="M0 0 C2.97 0.495 2.97 0.495 6 1 C6 2.65 6 4.3 6 6 C3.97945196 4.35830472 1.97956942 2.69088222 0 1 C0 0.67 0 0.34 0 0 Z " fill="#B8E5F3" transform="translate(39,133)"/>
<path d="M0 0 C2.97 0.495 2.97 0.495 6 1 C5.67 1.99 5.34 2.98 5 4 C3.68 4 2.36 4 1 4 C0.67 2.68 0.34 1.36 0 0 Z " fill="#0C89AF" transform="translate(122,122)"/>
<path d="M0 0 C0.33 0.99 0.66 1.98 1 3 C0.01 4.485 0.01 4.485 -1 6 C-2.32 5.67 -3.64 5.34 -5 5 C-3.35 3.35 -1.7 1.7 0 0 Z " fill="#C4E9F8" transform="translate(87,101)"/>
<path d="M0 0 C1.98 1.65 3.96 3.3 6 5 C4.68 5.33 3.36 5.66 2 6 C2 5.34 2 4.68 2 4 C1.34 4 0.68 4 0 4 C0 2.68 0 1.36 0 0 Z " fill="#E1F3FB" transform="translate(56,96)"/>
<path d="M0 0 C1.65 0 3.3 0 5 0 C5.33 1.98 5.66 3.96 6 6 C3.97945196 4.35830472 1.97956942 2.69088222 0 1 C0 0.67 0 0.34 0 0 Z " fill="#3397B2" transform="translate(52,91)"/>
<path d="M0 0 C1.98 0.495 1.98 0.495 4 1 C4 2.32 4 3.64 4 5 C3.01 5 2.02 5 1 5 C1 4.34 1 3.68 1 3 C0.34 2.67 -0.32 2.34 -1 2 C-0.67 1.34 -0.34 0.68 0 0 Z " fill="#0D89AF" transform="translate(165,79)"/>
<path d="M0 0 C1.32 0 2.64 0 4 0 C4.33 1.32 4.66 2.64 5 4 C4.01 4.495 4.01 4.495 3 5 C2.01 4.34 1.02 3.68 0 3 C0 2.01 0 1.02 0 0 Z " fill="#EEF9F3" transform="translate(155,80)"/>
</svg>
