<svg xmlns="http://www.w3.org/2000/svg" xmlns:xlink="http://www.w3.org/1999/xlink" width="500" zoomAndPan="magnify" viewBox="0 0 375 374.999991" height="500" preserveAspectRatio="xMidYMid meet" version="1.0"><rect x="-37.5" width="450" fill="#ffffff" y="-37.499999" height="449.999989" fill-opacity="1"/><rect x="-37.5" width="450" fill="#ffffff" y="-37.499999" height="449.999989" fill-opacity="1"/><path fill="#04a3fa" d="M 52.128906 2.308594 C 60.199219 7.433594 65.332031 13.566406 68.628906 22.574219 C 70.621094 32.277344 69.671875 40.941406 64.339844 49.4375 C 59.390625 56.347656 53.171875 60.535156 45.148438 63.210938 C 33.566406 63.964844 25.035156 63.496094 15.914062 55.648438 C 8.570312 48.589844 5.34375 41.824219 5.023438 31.660156 C 5.167969 25.816406 6.253906 21.375 9.03125 16.253906 C 9.402344 15.546875 9.773438 14.84375 10.160156 14.117188 C 13.972656 7.679688 19.390625 3.253906 26.457031 0.75 C 34.574219 -1.074219 44.527344 -1.40625 52.128906 2.308594 Z M 44.972656 20.019531 C 42.34375 22.6875 40.222656 25.652344 38.09375 28.726562 C 33.625 35.109375 33.625 35.109375 31.605469 36.121094 C 31.398438 35.449219 31.195312 34.777344 30.984375 34.089844 C 29.578125 31.144531 27.917969 29.863281 25.285156 27.992188 C 22.347656 28.976562 22.347656 28.976562 19.867188 30.703125 C 19.707031 38.007812 24.761719 43.375 29.449219 48.570312 C 30.707031 49.828125 30.707031 49.828125 32.789062 50.230469 C 38.746094 48.84375 42.863281 40.320312 46.261719 35.464844 C 48.527344 32.238281 50.898438 29.195312 53.445312 26.1875 C 55.628906 23.460938 55.992188 23 55.929688 19.359375 C 55.648438 18.632812 55.371094 17.90625 55.082031 17.15625 C 50.140625 15.46875 48.535156 16.804688 44.972656 20.019531 Z M 44.972656 20.019531 " fill-opacity="1" fill-rule="nonzero"/><path fill="#1262cd" d="M 69.53125 9.03125 C 72.511719 9.03125 75.492188 9.03125 78.5625 9.03125 C 79.753906 16.777344 80.945312 24.527344 82.171875 32.507812 C 83.621094 25.121094 83.621094 25.121094 85.0625 17.730469 C 85.246094 16.816406 85.425781 15.902344 85.613281 14.960938 C 85.890625 13.546875 85.890625 13.546875 86.171875 12.109375 C 86.6875 9.933594 86.6875 9.933594 87.589844 9.03125 C 89.265625 8.964844 90.941406 8.953125 92.613281 8.972656 C 93.527344 8.980469 94.441406 8.988281 95.382812 9 C 96.441406 9.015625 96.441406 9.015625 97.523438 9.03125 C 98.816406 12.054688 99.703125 14.902344 100.296875 18.132812 C 100.4375 18.894531 100.582031 19.652344 100.726562 20.433594 C 100.984375 21.855469 100.984375 21.855469 101.25 23.308594 C 102.085938 27.863281 102.085938 27.863281 102.941406 32.507812 C 104.132812 24.761719 105.324219 17.011719 106.554688 9.03125 C 109.535156 9.03125 112.515625 9.03125 115.585938 9.03125 C 115.082031 16.929688 114.023438 24.691406 112.734375 32.496094 C 112.417969 34.394531 112.113281 36.296875 111.804688 38.199219 C 110.296875 47.464844 110.296875 47.464844 109.261719 50.566406 C 105.6875 50.566406 102.109375 50.566406 98.425781 50.566406 C 97.085938 47.210938 96.261719 44.726562 95.65625 41.265625 C 95.496094 40.382812 95.339844 39.503906 95.179688 38.59375 C 95.019531 37.683594 94.863281 36.773438 94.703125 35.835938 C 94.539062 34.910156 94.375 33.984375 94.203125 33.027344 C 93.800781 30.75 93.402344 28.46875 93.007812 26.1875 C 92.710938 26.1875 92.414062 26.1875 92.105469 26.1875 C 91.972656 26.894531 91.84375 27.601562 91.707031 28.328125 C 91.109375 31.507812 90.507812 34.6875 89.90625 37.871094 C 89.695312 38.980469 89.488281 40.09375 89.273438 41.238281 C 88.972656 42.824219 88.972656 42.824219 88.667969 44.441406 C 88.390625 45.910156 88.390625 45.910156 88.109375 47.40625 C 87.589844 49.664062 87.589844 49.664062 86.6875 50.566406 C 84.863281 50.632812 83.039062 50.644531 81.214844 50.625 C 79.71875 50.613281 79.71875 50.613281 78.191406 50.601562 C 77.417969 50.589844 76.648438 50.578125 75.851562 50.566406 C 74.183594 41.96875 72.636719 33.355469 71.167969 24.71875 C 71.007812 23.789062 70.84375 22.859375 70.679688 21.898438 C 69.949219 17.566406 69.3125 13.445312 69.53125 9.03125 Z M 69.53125 9.03125 " fill-opacity="1" fill-rule="nonzero"/><path fill="#0b61d5" d="M 213.167969 8.039062 C 216.296875 8.082031 216.296875 8.082031 219.429688 8.128906 C 219.429688 13.191406 219.429688 18.257812 219.429688 23.476562 C 220.621094 22.882812 221.8125 22.285156 223.039062 21.671875 C 225.796875 21.253906 228.414062 21.246094 231.167969 21.671875 C 233.425781 23.367188 234.4375 24.597656 235.683594 27.089844 C 235.757812 28.792969 235.78125 30.5 235.769531 32.203125 C 235.769531 33.21875 235.765625 34.230469 235.761719 35.273438 C 235.753906 36.335938 235.746094 37.398438 235.738281 38.492188 C 235.734375 39.558594 235.730469 40.628906 235.726562 41.726562 C 235.714844 44.375 235.703125 47.019531 235.683594 49.664062 C 232.703125 49.664062 229.722656 49.664062 226.652344 49.664062 C 226.355469 43.40625 226.058594 37.148438 225.75 30.703125 C 224.261719 30.703125 222.769531 30.703125 221.234375 30.703125 C 219.804688 32.132812 220.132812 33.660156 220.046875 35.644531 C 220.007812 36.457031 219.96875 37.269531 219.929688 38.105469 C 219.878906 39.386719 219.878906 39.386719 219.824219 40.691406 C 219.785156 41.546875 219.746094 42.40625 219.707031 43.289062 C 219.609375 45.414062 219.519531 47.539062 219.429688 49.664062 C 216.449219 49.664062 213.46875 49.664062 210.398438 49.664062 C 210.375 43.894531 210.359375 38.125 210.347656 32.351562 C 210.34375 30.390625 210.339844 28.425781 210.332031 26.460938 C 210.320312 23.640625 210.316406 20.824219 210.3125 18.007812 C 210.304688 17.121094 210.300781 16.238281 210.296875 15.328125 C 210.296875 14.515625 210.296875 13.699219 210.296875 12.863281 C 210.292969 12.144531 210.292969 11.421875 210.289062 10.679688 C 210.449219 8.292969 210.78125 8.152344 213.167969 8.039062 Z M 213.167969 8.039062 " fill-opacity="1" fill-rule="nonzero"/><path fill="#0961d6" d="M 138.554688 23.140625 C 141.800781 26.148438 143.433594 28.554688 143.734375 33.058594 C 143.746094 35.285156 143.667969 37.507812 143.578125 39.730469 C 138.214844 40.03125 132.847656 40.328125 127.324219 40.636719 C 127.621094 41.230469 127.917969 41.828125 128.226562 42.441406 C 130.859375 42.589844 130.859375 42.589844 133.644531 42.441406 C 134.238281 41.84375 134.835938 41.25 135.449219 40.636719 C 137.402344 40.457031 137.402344 40.457031 139.625 40.523438 C 140.734375 40.546875 140.734375 40.546875 141.863281 40.570312 C 142.710938 40.601562 142.710938 40.601562 143.578125 40.636719 C 143.289062 43.808594 143.015625 45.632812 140.980469 48.140625 C 136.742188 51.503906 131.574219 50.972656 126.421875 50.566406 C 122.972656 49.398438 121.523438 48.5625 119.367188 45.65625 C 116.804688 40.136719 116.597656 34.882812 118.519531 29.121094 C 122.773438 21.222656 130.496094 19.328125 138.554688 23.140625 Z M 128.226562 28.894531 C 127.628906 30.089844 127.035156 31.28125 126.421875 32.507812 C 129.101562 32.507812 131.785156 32.507812 134.546875 32.507812 C 133.949219 31.316406 133.355469 30.125 132.742188 28.894531 C 131.25 28.894531 129.761719 28.894531 128.226562 28.894531 Z M 128.226562 28.894531 " fill-opacity="1" fill-rule="nonzero"/><path fill="#0d62d2" d="M 166.824219 22.824219 C 169.046875 24.523438 169.65625 25.425781 170.667969 27.992188 C 170.953125 30.390625 170.953125 30.390625 171.039062 33.085938 C 171.074219 34.050781 171.109375 35.019531 171.148438 36.015625 C 171.175781 37.015625 171.203125 38.019531 171.230469 39.054688 C 171.265625 40.070312 171.300781 41.089844 171.335938 42.136719 C 171.421875 44.648438 171.5 47.15625 171.570312 49.664062 C 170.820312 49.65625 170.070312 49.644531 169.292969 49.632812 C 167.824219 49.621094 167.824219 49.621094 166.320312 49.609375 C 165.347656 49.597656 164.371094 49.585938 163.367188 49.578125 C 160.675781 49.542969 160.675781 49.542969 158.023438 50.566406 C 151.71875 51.078125 151.71875 51.078125 148.148438 49.101562 C 145.851562 46.457031 145.453125 45.023438 145.382812 41.539062 C 146.015625 38.597656 146.515625 36.757812 148.714844 34.671875 C 151.296875 33.109375 153.464844 32.757812 156.445312 32.339844 C 157.417969 32.195312 158.390625 32.050781 159.394531 31.90625 C 160.132812 31.804688 160.875 31.707031 161.636719 31.605469 C 161.339844 31.007812 161.039062 30.414062 160.734375 29.800781 C 159.242188 29.800781 157.753906 29.800781 156.21875 29.800781 C 155.921875 30.394531 155.621094 30.992188 155.316406 31.605469 C 152.632812 31.605469 149.953125 31.605469 147.1875 31.605469 C 147.335938 27.824219 147.53125 25.875 150.179688 23.082031 C 155.015625 20.359375 161.90625 20.535156 166.824219 22.824219 Z M 155.316406 38.828125 C 155.316406 40.019531 155.316406 41.214844 155.316406 42.441406 C 157.480469 43.054688 157.480469 43.054688 159.832031 43.34375 C 161.894531 41.683594 161.894531 41.683594 161.75 39.167969 C 161.710938 38.460938 161.675781 37.753906 161.636719 37.023438 C 159.511719 37.023438 157.308594 38.152344 155.316406 38.828125 Z M 155.316406 38.828125 " fill-opacity="1" fill-rule="nonzero"/><path fill="#1262cf" d="M 272.707031 22.574219 C 275.984375 22.574219 279.261719 22.574219 282.640625 22.574219 C 282.890625 23.410156 283.140625 24.25 283.398438 25.109375 C 283.722656 26.191406 284.050781 27.273438 284.386719 28.386719 C 284.714844 29.46875 285.039062 30.546875 285.371094 31.65625 C 285.988281 34.1875 285.988281 34.1875 287.152344 35.21875 C 287.402344 34.378906 287.65625 33.542969 287.914062 32.679688 C 288.238281 31.597656 288.566406 30.519531 288.902344 29.402344 C 289.226562 28.324219 289.554688 27.246094 289.886719 26.132812 C 290.765625 23.476562 290.765625 23.476562 291.667969 22.574219 C 293.191406 22.511719 294.714844 22.5 296.242188 22.519531 C 297.070312 22.527344 297.898438 22.535156 298.753906 22.542969 C 299.398438 22.554688 300.039062 22.5625 300.699219 22.574219 C 300.179688 26.21875 299.382812 29.449219 298.058594 32.882812 C 297.535156 34.25 297.535156 34.25 297.003906 35.644531 C 296.457031 37.054688 296.457031 37.054688 295.902344 38.492188 C 293.097656 45.773438 290.480469 53.082031 288.058594 60.5 C 284.777344 60.5 281.5 60.5 278.125 60.5 C 278.785156 57.636719 278.785156 57.636719 279.445312 54.769531 C 279.6875 53.582031 279.6875 53.582031 279.929688 52.375 C 280.179688 51.46875 280.433594 50.5625 280.691406 49.628906 C 280.90625 44.21875 278.839844 39.890625 276.824219 34.933594 C 276.054688 32.984375 275.285156 31.03125 274.515625 29.074219 C 274.167969 28.21875 273.824219 27.359375 273.464844 26.476562 C 272.707031 24.382812 272.707031 24.382812 272.707031 22.574219 Z M 272.707031 22.574219 " fill-opacity="1" fill-rule="nonzero"/><path fill="#0a61d6" d="M 267.003906 8.015625 C 268.351562 8.039062 268.351562 8.039062 269.726562 8.0625 C 270.410156 8.085938 271.097656 8.105469 271.804688 8.128906 C 271.804688 10.511719 271.804688 12.894531 271.804688 15.351562 C 270.015625 15.945312 268.226562 16.542969 266.386719 17.15625 C 266.085938 18.945312 265.789062 20.734375 265.480469 22.574219 C 267.269531 22.574219 269.058594 22.574219 270.898438 22.574219 C 270.898438 24.957031 270.898438 27.34375 270.898438 29.800781 C 269.113281 29.800781 267.324219 29.800781 265.480469 29.800781 C 265.480469 36.355469 265.480469 42.910156 265.480469 49.664062 C 262.503906 49.664062 259.523438 49.664062 256.453125 49.664062 C 256.453125 43.109375 256.453125 36.554688 256.453125 29.800781 C 254.960938 29.800781 253.472656 29.800781 251.9375 29.800781 C 251.9375 27.414062 251.9375 25.03125 251.9375 22.574219 C 253.425781 22.574219 254.917969 22.574219 256.453125 22.574219 C 256.421875 22.039062 256.390625 21.507812 256.355469 20.957031 C 256.203125 16.503906 256.21875 13.53125 259.160156 9.933594 C 262.25 7.875 263.390625 7.929688 267.003906 8.015625 Z M 267.003906 8.015625 " fill-opacity="1" fill-rule="nonzero"/><path fill="#0b61d7" d="M 191.4375 14.449219 C 192.773438 14.421875 194.105469 14.40625 195.441406 14.390625 C 196.1875 14.382812 196.929688 14.371094 197.695312 14.359375 C 199.5625 14.449219 199.5625 14.449219 200.464844 15.351562 C 200.59375 17.761719 200.503906 20.160156 200.464844 22.574219 C 202.550781 22.574219 204.636719 22.574219 206.785156 22.574219 C 206.785156 24.957031 206.785156 27.34375 206.785156 29.800781 C 204.699219 29.800781 202.613281 29.800781 200.464844 29.800781 C 200.464844 33.972656 200.464844 38.144531 200.464844 42.441406 C 202.550781 42.441406 204.636719 42.441406 206.785156 42.441406 C 206.875 47.996094 206.875 47.996094 206.785156 49.664062 C 205.304688 51.144531 203.632812 50.792969 201.59375 50.851562 C 198.222656 50.824219 197.046875 50.683594 194.089844 48.875 C 190.820312 45.289062 191.332031 41.984375 191.378906 37.363281 C 191.382812 36.636719 191.386719 35.914062 191.390625 35.167969 C 191.402344 33.378906 191.417969 31.589844 191.4375 29.800781 C 189.945312 29.800781 188.457031 29.800781 186.921875 29.800781 C 186.921875 27.414062 186.921875 25.03125 186.921875 22.574219 C 188.113281 22.277344 189.304688 21.980469 190.53125 21.671875 C 190.832031 19.289062 191.128906 16.902344 191.4375 14.449219 Z M 191.4375 14.449219 " fill-opacity="1" fill-rule="nonzero"/><path fill="#0a62d8" d="M 93.910156 10.835938 C 96.621094 11.738281 96.621094 11.738281 98.425781 14.449219 C 98.769531 16.855469 98.769531 16.855469 98.933594 19.527344 C 98.882812 22.6875 98.882812 22.6875 100.234375 25.285156 C 100.296875 26.804688 100.308594 28.332031 100.289062 29.855469 C 100.28125 30.683594 100.273438 31.515625 100.265625 32.371094 C 100.253906 33.011719 100.242188 33.652344 100.234375 34.3125 C 102.320312 34.3125 104.40625 34.3125 106.554688 34.3125 C 106.3125 33.511719 106.070312 32.710938 105.820312 31.886719 C 105.652344 28.894531 105.652344 28.894531 107.851562 26.300781 C 108.617188 25.667969 109.378906 25.035156 110.164062 24.382812 C 112.125 30.265625 111.160156 35.84375 109.261719 41.539062 C 109.859375 41.835938 110.453125 42.132812 111.070312 42.441406 C 110.472656 45.121094 109.878906 47.804688 109.261719 50.566406 C 105.6875 50.566406 102.109375 50.566406 98.425781 50.566406 C 96.320312 45.296875 95.433594 40.097656 94.507812 34.535156 C 94.195312 32.691406 93.871094 30.847656 93.542969 29.007812 C 92.523438 23.0625 91.660156 17.679688 93.007812 11.738281 C 93.308594 11.441406 93.605469 11.144531 93.910156 10.835938 Z M 93.910156 10.835938 " fill-opacity="1" fill-rule="nonzero"/><path fill="#1262cd" d="M 175.183594 8.128906 C 178.160156 8.128906 181.140625 8.128906 184.210938 8.128906 C 184.210938 21.835938 184.210938 35.542969 184.210938 49.664062 C 181.230469 49.664062 178.253906 49.664062 175.183594 49.664062 C 175.183594 35.957031 175.183594 22.25 175.183594 8.128906 Z M 175.183594 8.128906 " fill-opacity="1" fill-rule="nonzero"/><path fill="#0c62d3" d="M 138.554688 23.140625 C 141.800781 26.148438 143.433594 28.554688 143.734375 33.058594 C 143.746094 35.285156 143.667969 37.507812 143.578125 39.730469 C 138.214844 40.03125 132.847656 40.328125 127.324219 40.636719 C 127.621094 41.230469 127.917969 41.828125 128.226562 42.441406 C 130.859375 42.589844 130.859375 42.589844 133.644531 42.441406 C 134.238281 41.84375 134.835938 41.25 135.449219 40.636719 C 137.402344 40.457031 137.402344 40.457031 139.625 40.523438 C 140.734375 40.546875 140.734375 40.546875 141.863281 40.570312 C 142.710938 40.601562 142.710938 40.601562 143.578125 40.636719 C 143.289062 43.808594 143.015625 45.632812 140.980469 48.140625 C 136.742188 51.503906 131.574219 50.972656 126.421875 50.566406 C 122.972656 49.398438 121.523438 48.5625 119.367188 45.65625 C 116.804688 40.136719 116.597656 34.882812 118.519531 29.121094 C 122.773438 21.222656 130.496094 19.328125 138.554688 23.140625 Z M 135.449219 25.285156 C 134.210938 28.253906 134.210938 28.253906 135.449219 32.507812 C 130.53125 32.953125 130.53125 32.953125 125.515625 33.410156 C 125.21875 32.21875 124.921875 31.027344 124.613281 29.800781 C 123.125 29.800781 121.632812 29.800781 120.097656 29.800781 C 118.683594 34.84375 118.546875 39.597656 120.210938 44.585938 C 122.375 47.617188 123.773438 48.503906 127.324219 49.664062 C 130.347656 49.867188 133.328125 49.828125 136.351562 49.664062 C 136.054688 48.769531 135.757812 47.878906 135.449219 46.957031 C 136.15625 46.992188 136.867188 47.03125 137.59375 47.070312 C 140.109375 47.214844 140.109375 47.214844 141.769531 45.148438 C 141.769531 44.257812 141.769531 43.363281 141.769531 42.441406 C 139.664062 42.402344 137.558594 42.402344 135.449219 42.441406 C 135.152344 42.738281 134.855469 43.035156 134.546875 43.34375 C 133.175781 43.410156 131.800781 43.417969 130.425781 43.402344 C 129.679688 43.390625 128.933594 43.382812 128.167969 43.375 C 127.300781 43.359375 127.300781 43.359375 126.421875 43.34375 C 126.121094 41.855469 125.824219 40.363281 125.515625 38.828125 C 126.464844 38.839844 127.410156 38.851562 128.382812 38.859375 C 129.628906 38.871094 130.875 38.878906 132.121094 38.886719 C 132.742188 38.894531 133.367188 38.902344 134.007812 38.910156 C 136.847656 38.921875 139.058594 38.832031 141.769531 37.925781 C 141.769531 36.734375 141.769531 35.542969 141.769531 34.3125 C 141.175781 34.3125 140.578125 34.3125 139.964844 34.3125 C 140.246094 33.585938 140.246094 33.585938 140.53125 32.847656 C 140.988281 29.949219 140.105469 27.980469 139.0625 25.285156 C 137.871094 25.285156 136.679688 25.285156 135.449219 25.285156 Z M 121.90625 27.089844 C 121.90625 27.984375 121.90625 28.878906 121.90625 29.800781 C 122.800781 29.203125 123.691406 28.605469 124.613281 27.992188 C 123.71875 27.695312 122.824219 27.398438 121.90625 27.089844 Z M 128.226562 28.894531 C 127.628906 30.089844 127.035156 31.28125 126.421875 32.507812 C 129.101562 32.507812 131.785156 32.507812 134.546875 32.507812 C 133.949219 31.316406 133.355469 30.125 132.742188 28.894531 C 131.25 28.894531 129.761719 28.894531 128.226562 28.894531 Z M 128.226562 28.894531 " fill-opacity="1" fill-rule="nonzero"/><path fill="#1162cd" d="M 240.199219 22.574219 C 243.179688 22.574219 246.15625 22.574219 249.226562 22.574219 C 249.226562 31.515625 249.226562 40.453125 249.226562 49.664062 C 246.25 49.664062 243.269531 49.664062 240.199219 49.664062 C 240.199219 40.726562 240.199219 31.785156 240.199219 22.574219 Z M 240.199219 22.574219 " fill-opacity="1" fill-rule="nonzero"/><path fill="#1162cd" d="M 166.152344 23.476562 C 168.859375 24.382812 168.859375 24.382812 169.910156 25.925781 C 170.8125 28.394531 170.957031 30.457031 171.039062 33.085938 C 171.074219 34.050781 171.109375 35.019531 171.148438 36.015625 C 171.175781 37.015625 171.203125 38.019531 171.230469 39.054688 C 171.265625 40.070312 171.300781 41.089844 171.335938 42.136719 C 171.421875 44.648438 171.5 47.15625 171.570312 49.664062 C 170.820312 49.65625 170.070312 49.644531 169.292969 49.632812 C 167.824219 49.621094 167.824219 49.621094 166.320312 49.609375 C 165.347656 49.597656 164.371094 49.585938 163.367188 49.578125 C 160.675781 49.542969 160.675781 49.542969 158.023438 50.566406 C 151.707031 51.078125 151.707031 51.078125 148.09375 49.042969 C 146.285156 46.957031 146.285156 46.957031 146.003906 44.472656 C 146.097656 43.800781 146.191406 43.132812 146.285156 42.441406 C 146.882812 43.632812 147.476562 44.824219 148.09375 46.054688 C 149.878906 45.753906 151.667969 45.457031 153.511719 45.148438 C 153.511719 44.554688 153.511719 43.957031 153.511719 43.34375 C 153.792969 42.136719 154.09375 40.929688 154.414062 39.730469 C 155.007812 40.625 155.605469 41.519531 156.21875 42.441406 C 158.007812 42.144531 159.792969 41.84375 161.636719 41.539062 C 161.636719 43.027344 161.636719 44.519531 161.636719 46.054688 C 162.324219 45.738281 163.015625 45.417969 163.726562 45.09375 C 166.152344 44.246094 166.152344 44.246094 168.859375 45.148438 C 168.859375 39.488281 168.859375 33.828125 168.859375 27.992188 C 167.667969 27.398438 166.476562 26.800781 165.25 26.1875 C 165.546875 25.292969 165.84375 24.398438 166.152344 23.476562 Z M 166.152344 23.476562 " fill-opacity="1" fill-rule="nonzero"/><path fill="#0a62d3" d="M 93.007812 22.574219 C 93.605469 22.574219 94.199219 22.574219 94.816406 22.574219 C 94.945312 23.582031 95.074219 24.585938 95.210938 25.621094 C 95.523438 28.734375 95.523438 28.734375 96.621094 30.703125 C 97.21875 30.703125 97.8125 30.703125 98.425781 30.703125 C 98.726562 29.808594 99.023438 28.914062 99.328125 27.992188 C 99.03125 29.78125 98.734375 31.570312 98.425781 33.410156 C 98.128906 33.410156 97.832031 33.410156 97.523438 33.410156 C 97.484375 34.914062 97.488281 36.421875 97.523438 37.925781 C 97.820312 38.222656 98.121094 38.523438 98.425781 38.828125 C 98.757812 40.929688 99.0625 43.039062 99.328125 45.148438 C 99.890625 44.144531 100.449219 43.136719 101.023438 42.101562 C 102.160156 40.058594 103.074219 38.695312 104.746094 37.023438 C 104.746094 39.109375 104.746094 41.195312 104.746094 43.34375 C 105.34375 43.34375 105.941406 43.34375 106.554688 43.34375 C 106.554688 42.746094 106.554688 42.152344 106.554688 41.539062 C 107.746094 42.132812 108.9375 42.730469 110.164062 43.34375 C 109.867188 45.726562 109.570312 48.113281 109.261719 50.566406 C 105.6875 50.566406 102.109375 50.566406 98.425781 50.566406 C 97.105469 47.261719 96.269531 44.796875 95.65625 41.394531 C 95.496094 40.527344 95.339844 39.664062 95.179688 38.769531 C 95.019531 37.878906 94.863281 36.984375 94.703125 36.0625 C 94.539062 35.167969 94.375 34.269531 94.203125 33.347656 C 93.546875 29.667969 93.007812 26.328125 93.007812 22.574219 Z M 93.007812 22.574219 " fill-opacity="1" fill-rule="nonzero"/><path fill="#2c61a8" d="M 213.167969 8.039062 C 216.296875 8.082031 216.296875 8.082031 219.429688 8.128906 C 219.429688 13.191406 219.429688 18.257812 219.429688 23.476562 C 220.621094 22.882812 221.8125 22.285156 223.039062 21.671875 C 225.171875 21.496094 225.171875 21.496094 227.332031 21.558594 C 228.050781 21.574219 228.773438 21.589844 229.515625 21.609375 C 230.0625 21.628906 230.605469 21.652344 231.167969 21.671875 C 231.464844 22.269531 231.765625 22.863281 232.070312 23.476562 C 229.382812 23.742188 229.382812 23.742188 226.691406 24.007812 C 224.578125 24.316406 224.578125 24.316406 222.136719 26.1875 C 219.902344 25.292969 219.902344 25.292969 217.621094 24.382812 C 217.621094 19.613281 217.621094 14.84375 217.621094 9.933594 C 215.835938 10.230469 214.046875 10.527344 212.203125 10.835938 C 211.90625 23.351562 211.609375 35.867188 211.300781 48.761719 C 213.6875 48.761719 216.070312 48.761719 218.527344 48.761719 C 218.515625 48.222656 218.507812 47.6875 218.496094 47.132812 C 218.460938 44.703125 218.4375 42.273438 218.414062 39.84375 C 218.398438 39 218.382812 38.152344 218.367188 37.28125 C 218.363281 36.472656 218.355469 35.664062 218.351562 34.828125 C 218.335938 33.707031 218.335938 33.707031 218.320312 32.566406 C 218.527344 30.703125 218.527344 30.703125 220.332031 28.894531 C 222.128906 28.535156 223.933594 28.230469 225.75 27.992188 C 225.75 28.886719 225.75 29.78125 225.75 30.703125 C 225.023438 30.683594 224.296875 30.664062 223.550781 30.644531 C 221.296875 30.433594 221.296875 30.433594 220.332031 31.605469 C 220.191406 32.945312 220.105469 34.296875 220.046875 35.644531 C 220.007812 36.457031 219.96875 37.269531 219.929688 38.105469 C 219.878906 39.386719 219.878906 39.386719 219.824219 40.691406 C 219.785156 41.546875 219.746094 42.40625 219.707031 43.289062 C 219.609375 45.414062 219.519531 47.539062 219.429688 49.664062 C 216.449219 49.664062 213.46875 49.664062 210.398438 49.664062 C 210.375 43.894531 210.359375 38.125 210.347656 32.351562 C 210.34375 30.390625 210.339844 28.425781 210.332031 26.460938 C 210.320312 23.640625 210.316406 20.824219 210.3125 18.007812 C 210.304688 17.121094 210.300781 16.238281 210.296875 15.328125 C 210.296875 14.515625 210.296875 13.699219 210.296875 12.863281 C 210.292969 12.144531 210.292969 11.421875 210.289062 10.679688 C 210.449219 8.292969 210.78125 8.152344 213.167969 8.039062 Z M 213.167969 8.039062 " fill-opacity="1" fill-rule="nonzero"/><path fill="#0d61d3" d="M 191.4375 14.449219 C 192.773438 14.421875 194.105469 14.40625 195.441406 14.390625 C 196.1875 14.382812 196.929688 14.371094 197.695312 14.359375 C 199.5625 14.449219 199.5625 14.449219 200.464844 15.351562 C 200.59375 17.761719 200.503906 20.160156 200.464844 22.574219 C 202.550781 22.574219 204.636719 22.574219 206.785156 22.574219 C 206.785156 24.957031 206.785156 27.34375 206.785156 29.800781 C 204.699219 29.800781 202.613281 29.800781 200.464844 29.800781 C 200.464844 33.972656 200.464844 38.144531 200.464844 42.441406 C 202.550781 42.441406 204.636719 42.441406 206.785156 42.441406 C 206.875 47.996094 206.875 47.996094 206.785156 49.664062 C 205.882812 50.566406 205.882812 50.566406 203.820312 50.65625 C 202.578125 50.640625 202.578125 50.640625 201.3125 50.625 C 200.484375 50.617188 199.652344 50.609375 198.796875 50.601562 C 198.15625 50.589844 197.515625 50.578125 196.855469 50.566406 C 196.855469 50.269531 196.855469 49.972656 196.855469 49.664062 C 199.535156 49.664062 202.21875 49.664062 204.980469 49.664062 C 204.980469 47.878906 204.980469 46.089844 204.980469 44.246094 C 203.492188 44.246094 202 44.246094 200.464844 44.246094 C 200.019531 42.90625 200.019531 42.90625 199.5625 41.539062 C 198.96875 41.539062 198.371094 41.539062 197.757812 41.539062 C 197.757812 40.941406 197.757812 40.347656 197.757812 39.730469 C 197.160156 39.730469 196.566406 39.730469 195.949219 39.730469 C 195.355469 37.644531 194.757812 35.558594 194.144531 33.410156 C 194.851562 33.1875 195.558594 32.964844 196.289062 32.734375 C 198.953125 31.464844 199.476562 30.695312 200.464844 27.992188 C 201.957031 27.992188 203.445312 27.992188 204.980469 27.992188 C 204.980469 26.503906 204.980469 25.011719 204.980469 23.476562 C 204.085938 23.777344 203.191406 24.074219 202.273438 24.382812 C 200.296875 23.535156 200.296875 23.535156 198.660156 22.574219 C 198.660156 20.191406 198.660156 17.808594 198.660156 15.351562 C 196.574219 15.351562 194.488281 15.351562 192.339844 15.351562 C 192.339844 17.4375 192.339844 19.523438 192.339844 21.671875 C 192.039062 21.671875 191.742188 21.671875 191.4375 21.671875 C 191.4375 19.289062 191.4375 16.902344 191.4375 14.449219 Z M 191.4375 14.449219 " fill-opacity="1" fill-rule="nonzero"/><path fill="#0862d8" d="M 203.175781 23.476562 C 203.769531 23.476562 204.367188 23.476562 204.980469 23.476562 C 204.980469 24.96875 204.980469 26.457031 204.980469 27.992188 C 203.78125 28.300781 203.78125 28.300781 202.554688 28.613281 C 199.058594 30 197.304688 31.304688 195.046875 34.3125 C 195.097656 37.25 195.097656 37.25 195.949219 39.730469 C 196.546875 39.730469 197.144531 39.730469 197.757812 39.730469 C 197.757812 40.328125 197.757812 40.925781 197.757812 41.539062 C 198.351562 41.539062 198.949219 41.539062 199.5625 41.539062 C 199.859375 42.132812 200.160156 42.730469 200.464844 43.34375 C 202.75 43.9375 202.75 43.9375 204.980469 44.246094 C 204.980469 46.035156 204.980469 47.824219 204.980469 49.664062 C 197.558594 50.226562 197.558594 50.226562 194.933594 48.140625 C 193.960938 45.570312 194.253906 44.136719 195.046875 41.539062 C 194.152344 41.539062 193.261719 41.539062 192.339844 41.539062 C 191.773438 33.300781 191.773438 33.300781 194.03125 30.136719 C 195.949219 28.894531 195.949219 28.894531 197.757812 28.894531 C 197.757812 28.300781 197.757812 27.703125 197.757812 27.089844 C 199.234375 26.144531 200.742188 25.238281 202.273438 24.382812 C 202.570312 24.082031 202.867188 23.785156 203.175781 23.476562 Z M 203.175781 23.476562 " fill-opacity="1" fill-rule="nonzero"/><path fill="#2967b6" d="M 126.421875 21.671875 C 130.917969 21.351562 134.414062 21.183594 138.554688 23.140625 C 141.800781 26.148438 143.433594 28.554688 143.734375 33.058594 C 143.746094 35.285156 143.667969 37.507812 143.578125 39.730469 C 138.214844 40.03125 132.847656 40.328125 127.324219 40.636719 C 127.621094 41.230469 127.917969 41.828125 128.226562 42.441406 C 130.859375 42.589844 130.859375 42.589844 133.644531 42.441406 C 134.238281 41.84375 134.835938 41.25 135.449219 40.636719 C 137.402344 40.457031 137.402344 40.457031 139.625 40.523438 C 140.734375 40.546875 140.734375 40.546875 141.863281 40.570312 C 142.710938 40.601562 142.710938 40.601562 143.578125 40.636719 C 143.289062 43.800781 142.953125 45.675781 141.039062 48.253906 C 139.0625 49.664062 139.0625 49.664062 137.03125 49.4375 C 136.507812 49.214844 135.988281 48.992188 135.449219 48.761719 C 135.449219 48.164062 135.449219 47.570312 135.449219 46.957031 C 136.324219 46.714844 137.199219 46.472656 138.101562 46.222656 C 139.015625 45.867188 139.925781 45.515625 140.867188 45.148438 C 141.164062 44.257812 141.464844 43.363281 141.769531 42.441406 C 137.851562 42.609375 137.851562 42.609375 134.546875 44.246094 C 133.195312 44.335938 131.839844 44.363281 130.484375 44.359375 C 129.746094 44.363281 129.011719 44.363281 128.253906 44.367188 C 126.421875 44.246094 126.421875 44.246094 125.515625 43.34375 C 125.515625 41.855469 125.515625 40.363281 125.515625 38.828125 C 130.878906 38.53125 136.246094 38.234375 141.769531 37.925781 C 141.769531 36.734375 141.769531 35.542969 141.769531 34.3125 C 141.175781 34.3125 140.578125 34.3125 139.964844 34.3125 C 139.667969 31.632812 139.367188 28.949219 139.0625 26.1875 C 137.972656 25.796875 137.972656 25.796875 136.859375 25.398438 C 134.546875 24.382812 134.546875 24.382812 133.644531 22.574219 C 131.261719 22.574219 128.875 22.574219 126.421875 22.574219 C 126.421875 22.277344 126.421875 21.980469 126.421875 21.671875 Z M 126.421875 21.671875 " fill-opacity="1" fill-rule="nonzero"/><path fill="#0962d9" d="M 161.636719 23.476562 C 163.125 23.476562 164.617188 23.476562 166.152344 23.476562 C 166.265625 24.054688 166.375 24.632812 166.492188 25.226562 C 166.769531 26.148438 166.769531 26.148438 167.054688 27.089844 C 167.652344 27.386719 168.246094 27.6875 168.859375 27.992188 C 168.859375 33.65625 168.859375 39.316406 168.859375 45.148438 C 167.371094 45.148438 165.882812 45.148438 164.347656 45.148438 C 162.707031 46.410156 162.707031 46.410156 161.636719 47.859375 C 160.695312 45.03125 160.792969 44.257812 161.636719 41.539062 C 162.234375 41.539062 162.828125 41.539062 163.441406 41.539062 C 163.257812 40.53125 163.070312 39.527344 162.878906 38.492188 C 162.765625 37.410156 162.65625 36.328125 162.539062 35.21875 C 163.136719 34.621094 163.730469 34.023438 164.347656 33.410156 C 164.941406 33.710938 165.539062 34.007812 166.152344 34.3125 C 166.152344 32.226562 166.152344 30.140625 166.152344 27.992188 C 164.363281 27.992188 162.574219 27.992188 160.734375 27.992188 C 161.03125 26.503906 161.328125 25.011719 161.636719 23.476562 Z M 161.636719 23.476562 " fill-opacity="1" fill-rule="nonzero"/><path fill="#0962d9" d="M 231.167969 27.089844 C 232.0625 27.386719 232.957031 27.6875 233.878906 27.992188 C 233.878906 34.546875 233.878906 41.105469 233.878906 47.859375 C 232.089844 47.859375 230.300781 47.859375 228.457031 47.859375 C 228.433594 45.355469 228.417969 42.855469 228.402344 40.351562 C 228.394531 39.644531 228.386719 38.933594 228.378906 38.203125 C 228.375 37.519531 228.375 36.835938 228.371094 36.128906 C 228.367188 35.5 228.363281 34.871094 228.355469 34.226562 C 228.457031 32.507812 228.457031 32.507812 229.363281 29.800781 C 229.957031 29.800781 230.554688 29.800781 231.167969 29.800781 C 231.167969 28.90625 231.167969 28.011719 231.167969 27.089844 Z M 231.167969 27.089844 " fill-opacity="1" fill-rule="nonzero"/><path fill="#2063bb" d="M 87.589844 9.03125 C 90.867188 9.03125 94.148438 9.03125 97.523438 9.03125 C 98.835938 12.308594 99.675781 14.761719 100.296875 18.132812 C 100.4375 18.894531 100.582031 19.652344 100.726562 20.433594 C 100.984375 21.855469 100.984375 21.855469 101.25 23.308594 C 101.808594 26.34375 102.367188 29.378906 102.941406 32.507812 C 103.835938 25.953125 104.730469 19.394531 105.652344 12.640625 C 105.949219 12.640625 106.246094 12.640625 106.554688 12.640625 C 106.550781 13.171875 106.542969 13.699219 106.539062 14.242188 C 106.519531 16.644531 106.507812 19.046875 106.496094 21.445312 C 106.488281 22.277344 106.480469 23.109375 106.476562 23.964844 C 106.472656 24.769531 106.46875 25.570312 106.464844 26.398438 C 106.460938 27.136719 106.457031 27.875 106.453125 28.632812 C 106.550781 30.648438 106.898438 32.382812 107.457031 34.3125 C 104.871094 35.605469 103 34.855469 100.234375 34.3125 C 100.179688 33.671875 100.125 33.03125 100.066406 32.371094 C 99.992188 31.539062 99.914062 30.710938 99.839844 29.855469 C 99.765625 29.027344 99.691406 28.199219 99.617188 27.347656 C 99.546875 25.320312 99.546875 25.320312 98.425781 24.382812 C 98.167969 21.875 98.023438 19.367188 97.867188 16.855469 C 97.671875 14.246094 97.671875 14.246094 95.71875 11.738281 C 94.824219 11.738281 93.929688 11.738281 93.007812 11.738281 C 93.007812 11.144531 93.007812 10.546875 93.007812 9.933594 C 91.222656 9.933594 89.433594 9.933594 87.589844 9.933594 C 87.589844 9.636719 87.589844 9.335938 87.589844 9.03125 Z M 92.105469 11.738281 C 92.703125 12.035156 93.296875 12.335938 93.910156 12.640625 C 93.613281 13.238281 93.316406 13.832031 93.007812 14.449219 C 92.414062 13.851562 91.816406 13.257812 91.203125 12.640625 C 91.5 12.34375 91.800781 12.046875 92.105469 11.738281 Z M 92.105469 11.738281 " fill-opacity="1" fill-rule="nonzero"/><path fill="#0961d5" d="M 292.570312 24.382812 C 294.359375 24.976562 296.148438 25.574219 297.988281 26.1875 C 297.382812 29.625 296.429688 32.824219 295.28125 36.121094 C 294.683594 36.121094 294.089844 36.121094 293.476562 36.121094 C 293.175781 38.800781 292.878906 41.484375 292.570312 44.246094 C 291.378906 43.652344 290.1875 43.054688 288.960938 42.441406 C 289.855469 41.84375 290.746094 41.25 291.667969 40.636719 C 290.476562 40.039062 289.285156 39.441406 288.058594 38.828125 C 288.316406 38.101562 288.578125 37.375 288.847656 36.628906 C 289.859375 33.421875 290.582031 30.25 291.25 26.960938 C 291.667969 25.285156 291.667969 25.285156 292.570312 24.382812 Z M 286.25 39.730469 C 286.847656 39.730469 287.441406 39.730469 288.058594 39.730469 C 288.058594 40.625 288.058594 41.519531 288.058594 42.441406 C 287.460938 42.144531 286.863281 41.84375 286.25 41.539062 C 286.25 40.941406 286.25 40.347656 286.25 39.730469 Z M 286.25 39.730469 " fill-opacity="1" fill-rule="nonzero"/><path fill="#185eb9" d="M 232.972656 23.476562 C 235.839844 27.300781 236.015625 27.90625 235.949219 32.382812 C 235.9375 33.386719 235.929688 34.394531 235.921875 35.433594 C 235.898438 36.480469 235.875 37.523438 235.851562 38.601562 C 235.839844 39.664062 235.828125 40.722656 235.816406 41.816406 C 235.785156 44.433594 235.738281 47.050781 235.683594 49.664062 C 232.703125 49.664062 229.722656 49.664062 226.652344 49.664062 C 226.652344 43.40625 226.652344 37.148438 226.652344 30.703125 C 227.25 30.703125 227.84375 30.703125 228.460938 30.703125 C 228.460938 36.363281 228.460938 42.027344 228.460938 47.859375 C 230.246094 47.859375 232.035156 47.859375 233.878906 47.859375 C 233.578125 39.8125 233.28125 31.765625 232.972656 23.476562 Z M 232.972656 23.476562 " fill-opacity="1" fill-rule="nonzero"/><path fill="#1f62be" d="M 240.199219 9.933594 C 243.179688 9.933594 246.15625 9.933594 249.226562 9.933594 C 249.226562 12.914062 249.226562 15.894531 249.226562 18.964844 C 246.25 18.964844 243.269531 18.964844 240.199219 18.964844 C 240.199219 15.984375 240.199219 13.003906 240.199219 9.933594 Z M 240.199219 9.933594 " fill-opacity="1" fill-rule="nonzero"/><path fill="#2763b3" d="M 251.9375 22.574219 C 252.234375 22.574219 252.53125 22.574219 252.839844 22.574219 C 252.839844 24.660156 252.839844 26.746094 252.839844 28.894531 C 254.328125 28.894531 255.820312 28.894531 257.355469 28.894531 C 257.355469 35.152344 257.355469 41.410156 257.355469 47.859375 C 259.738281 47.859375 262.121094 47.859375 264.578125 47.859375 C 264.574219 47.292969 264.570312 46.730469 264.566406 46.148438 C 264.546875 43.59375 264.535156 41.042969 264.523438 38.492188 C 264.515625 37.601562 264.507812 36.710938 264.5 35.796875 C 264.496094 34.945312 264.492188 34.097656 264.492188 33.21875 C 264.484375 32.433594 264.480469 31.652344 264.476562 30.839844 C 264.578125 28.894531 264.578125 28.894531 265.480469 27.089844 C 266.972656 27.089844 268.460938 27.089844 269.996094 27.089844 C 269.996094 25.601562 269.996094 24.109375 269.996094 22.574219 C 270.296875 22.574219 270.59375 22.574219 270.898438 22.574219 C 270.898438 24.957031 270.898438 27.34375 270.898438 29.800781 C 269.113281 29.800781 267.324219 29.800781 265.480469 29.800781 C 265.480469 36.355469 265.480469 42.910156 265.480469 49.664062 C 262.503906 49.664062 259.523438 49.664062 256.453125 49.664062 C 256.453125 43.109375 256.453125 36.554688 256.453125 29.800781 C 254.960938 29.800781 253.472656 29.800781 251.9375 29.800781 C 251.9375 27.414062 251.9375 25.03125 251.9375 22.574219 Z M 251.9375 22.574219 " fill-opacity="1" fill-rule="nonzero"/><path fill="#2164bb" d="M 93.007812 22.574219 C 93.605469 22.574219 94.199219 22.574219 94.816406 22.574219 C 94.945312 23.582031 95.074219 24.585938 95.210938 25.621094 C 95.523438 28.734375 95.523438 28.734375 96.621094 30.703125 C 97.21875 30.703125 97.8125 30.703125 98.425781 30.703125 C 98.726562 29.808594 99.023438 28.914062 99.328125 27.992188 C 99.03125 29.78125 98.734375 31.570312 98.425781 33.410156 C 98.128906 33.410156 97.832031 33.410156 97.523438 33.410156 C 97.484375 34.914062 97.488281 36.421875 97.523438 37.925781 C 97.820312 38.222656 98.121094 38.523438 98.425781 38.828125 C 98.636719 40.5 98.800781 42.175781 98.933594 43.851562 C 99.011719 44.765625 99.085938 45.679688 99.164062 46.621094 C 99.246094 47.679688 99.246094 47.679688 99.328125 48.761719 C 102.308594 49.058594 105.289062 49.359375 108.359375 49.664062 C 108.65625 47.578125 108.957031 45.492188 109.261719 43.34375 C 109.5625 43.34375 109.859375 43.34375 110.164062 43.34375 C 109.867188 45.726562 109.570312 48.113281 109.261719 50.566406 C 105.6875 50.566406 102.109375 50.566406 98.425781 50.566406 C 97.105469 47.261719 96.269531 44.796875 95.65625 41.394531 C 95.496094 40.527344 95.339844 39.664062 95.179688 38.769531 C 95.019531 37.878906 94.863281 36.984375 94.703125 36.0625 C 94.539062 35.167969 94.375 34.269531 94.203125 33.347656 C 93.546875 29.667969 93.007812 26.328125 93.007812 22.574219 Z M 93.007812 22.574219 " fill-opacity="1" fill-rule="nonzero"/><path fill="#2664b9" d="M 211.300781 8.128906 C 213.984375 8.128906 216.664062 8.128906 219.429688 8.128906 C 219.429688 13.191406 219.429688 18.257812 219.429688 23.476562 C 220.621094 22.882812 221.8125 22.285156 223.039062 21.671875 C 225.171875 21.496094 225.171875 21.496094 227.332031 21.558594 C 228.050781 21.574219 228.773438 21.589844 229.515625 21.609375 C 230.0625 21.628906 230.605469 21.652344 231.167969 21.671875 C 231.464844 22.269531 231.765625 22.863281 232.070312 23.476562 C 229.382812 23.742188 229.382812 23.742188 226.691406 24.007812 C 224.578125 24.316406 224.578125 24.316406 222.136719 26.1875 C 219.902344 25.292969 219.902344 25.292969 217.621094 24.382812 C 217.621094 19.613281 217.621094 14.84375 217.621094 9.933594 C 215.535156 10.230469 213.449219 10.527344 211.300781 10.835938 C 211.300781 9.941406 211.300781 9.046875 211.300781 8.128906 Z M 211.300781 8.128906 " fill-opacity="1" fill-rule="nonzero"/><path fill="#0b60d5" d="M 149.898438 35.21875 C 150.195312 36.109375 150.492188 37.003906 150.800781 37.925781 C 152.589844 37.925781 154.375 37.925781 156.21875 37.925781 C 155.921875 38.523438 155.621094 39.117188 155.316406 39.730469 C 154.71875 39.730469 154.125 39.730469 153.511719 39.730469 C 153.511719 40.925781 153.511719 42.117188 153.511719 43.34375 C 154.105469 43.640625 154.703125 43.941406 155.316406 44.246094 C 153.792969 45.65625 153.792969 45.65625 151.703125 46.957031 C 149.222656 46.671875 149.222656 46.671875 147.1875 46.054688 C 147.1875 44.859375 147.1875 43.667969 147.1875 42.441406 C 146.59375 42.144531 145.996094 41.84375 145.382812 41.539062 C 148.882812 36.234375 148.882812 36.234375 149.898438 35.21875 Z M 149.898438 35.21875 " fill-opacity="1" fill-rule="nonzero"/><path fill="#269cdd" d="M 65.917969 18.058594 C 69.410156 21.550781 69.632812 27.21875 69.8125 32 C 69.566406 40.332031 66.3125 46.703125 61.402344 53.277344 C 61.105469 52.085938 60.808594 50.894531 60.5 49.664062 C 61.691406 49.070312 62.886719 48.472656 64.113281 47.859375 C 64.074219 47.226562 64.039062 46.59375 64 45.941406 C 64.128906 42.996094 64.894531 40.675781 65.917969 37.925781 C 66.515625 37.925781 67.109375 37.925781 67.726562 37.925781 C 67.597656 35.628906 67.464844 33.335938 67.328125 31.039062 C 67.292969 30.398438 67.257812 29.753906 67.222656 29.089844 C 67 25.359375 66.609375 21.742188 65.917969 18.058594 Z M 65.917969 18.058594 " fill-opacity="1" fill-rule="nonzero"/><path fill="#2364b9" d="M 267.003906 8.015625 C 268.351562 8.039062 268.351562 8.039062 269.726562 8.0625 C 270.410156 8.085938 271.097656 8.105469 271.804688 8.128906 C 271.804688 10.511719 271.804688 12.894531 271.804688 15.351562 C 270.015625 15.945312 268.226562 16.542969 266.386719 17.15625 C 266.085938 18.945312 265.789062 20.734375 265.480469 22.574219 C 265.183594 22.574219 264.886719 22.574219 264.578125 22.574219 C 264.464844 16.59375 264.464844 16.59375 265.480469 13.546875 C 266.972656 13.546875 268.460938 13.546875 269.996094 13.546875 C 269.996094 12.351562 269.996094 11.160156 269.996094 9.933594 C 267.015625 9.933594 264.039062 9.933594 260.96875 9.933594 C 260.96875 10.527344 260.96875 11.125 260.96875 11.738281 C 260.371094 11.738281 259.773438 11.738281 259.160156 11.738281 C 258.566406 15.015625 257.96875 18.292969 257.355469 21.671875 C 257.058594 21.671875 256.757812 21.671875 256.453125 21.671875 C 256.054688 13.84375 256.054688 13.84375 259.160156 9.933594 C 262.25 7.875 263.390625 7.929688 267.003906 8.015625 Z M 267.003906 8.015625 " fill-opacity="1" fill-rule="nonzero"/><path fill="#0860da" d="M 74.949219 33.410156 C 76.140625 34.601562 77.332031 35.792969 78.5625 37.023438 C 78.261719 36.128906 77.964844 35.234375 77.65625 34.3125 C 78.851562 34.3125 80.042969 34.3125 81.269531 34.3125 C 80.675781 35.804688 80.078125 37.292969 79.464844 38.828125 C 80.953125 39.128906 82.445312 39.425781 83.980469 39.730469 C 83.117188 40.769531 82.25 41.804688 81.382812 42.835938 C 80.902344 43.414062 80.417969 43.988281 79.921875 44.582031 C 78.5625 46.054688 78.5625 46.054688 76.753906 46.957031 C 76.585938 46.117188 76.585938 46.117188 76.417969 45.261719 C 75.96875 43.171875 75.96875 43.171875 74.046875 41.539062 C 74.066406 39.582031 74.066406 39.582031 74.382812 37.363281 C 74.484375 36.625 74.585938 35.886719 74.6875 35.125 C 74.773438 34.558594 74.859375 33.992188 74.949219 33.410156 Z M 74.949219 33.410156 " fill-opacity="1" fill-rule="nonzero"/><path fill="#0962d6" d="M 91.203125 22.574219 C 91.019531 24.328125 90.808594 26.078125 90.582031 27.824219 C 90.46875 28.796875 90.351562 29.773438 90.234375 30.777344 C 89.398438 33.410156 89.398438 33.410156 87.179688 35.113281 C 84.882812 36.121094 84.882812 36.121094 83.074219 36.121094 C 83.628906 27.394531 83.628906 27.394531 86.6875 23.476562 C 88.492188 22.574219 88.492188 22.574219 91.203125 22.574219 Z M 91.203125 22.574219 " fill-opacity="1" fill-rule="nonzero"/><path fill="#2463b9" d="M 121.003906 25.285156 C 121.90625 27.992188 121.90625 27.992188 121.058594 30.363281 C 119.335938 35.839844 119.296875 41.738281 121.90625 46.957031 C 123.667969 47.773438 123.667969 47.773438 125.515625 47.859375 C 126.113281 48.15625 126.707031 48.453125 127.324219 48.761719 C 128.863281 48.964844 130.40625 49.132812 131.949219 49.269531 C 132.773438 49.34375 133.59375 49.421875 134.441406 49.5 C 135.070312 49.554688 135.703125 49.609375 136.351562 49.664062 C 136.351562 49.964844 136.351562 50.261719 136.351562 50.566406 C 125.460938 51.089844 125.460938 51.089844 121.003906 47.859375 C 117.484375 43.128906 116.75 38.335938 117.390625 32.507812 C 118.191406 29.941406 119.070312 27.21875 121.003906 25.285156 Z M 121.003906 25.285156 " fill-opacity="1" fill-rule="nonzero"/><path fill="#2467bc" d="M 191.4375 14.449219 C 192.773438 14.421875 194.105469 14.40625 195.441406 14.390625 C 196.1875 14.382812 196.929688 14.371094 197.695312 14.359375 C 199.5625 14.449219 199.5625 14.449219 200.464844 15.351562 C 200.59375 17.761719 200.503906 20.160156 200.464844 22.574219 C 202.550781 22.574219 204.636719 22.574219 206.785156 22.574219 C 206.785156 24.957031 206.785156 27.34375 206.785156 29.800781 C 204.699219 29.800781 202.613281 29.800781 200.464844 29.800781 C 200.464844 29.203125 200.464844 28.605469 200.464844 27.992188 C 201.957031 27.992188 203.445312 27.992188 204.980469 27.992188 C 204.980469 26.503906 204.980469 25.011719 204.980469 23.476562 C 204.085938 23.777344 203.191406 24.074219 202.273438 24.382812 C 200.296875 23.535156 200.296875 23.535156 198.660156 22.574219 C 198.660156 20.191406 198.660156 17.808594 198.660156 15.351562 C 196.574219 15.351562 194.488281 15.351562 192.339844 15.351562 C 192.339844 17.4375 192.339844 19.523438 192.339844 21.671875 C 192.039062 21.671875 191.742188 21.671875 191.4375 21.671875 C 191.4375 19.289062 191.4375 16.902344 191.4375 14.449219 Z M 191.4375 14.449219 " fill-opacity="1" fill-rule="nonzero"/><path fill="#0b61d7" d="M 275.414062 22.574219 C 277.5 22.574219 279.585938 22.574219 281.734375 22.574219 C 281.9375 24.003906 282.121094 25.433594 282.300781 26.863281 C 282.40625 27.660156 282.511719 28.457031 282.617188 29.277344 C 282.640625 31.8125 282.140625 33.082031 280.832031 35.21875 C 280.210938 32.96875 279.929688 31.261719 279.929688 28.894531 C 278.441406 28.597656 276.949219 28.300781 275.414062 27.992188 C 275.414062 26.203125 275.414062 24.417969 275.414062 22.574219 Z M 275.414062 22.574219 " fill-opacity="1" fill-rule="nonzero"/><path fill="#1263c4" d="M 272.707031 22.574219 C 273.601562 22.574219 274.492188 22.574219 275.414062 22.574219 C 275.414062 24.363281 275.414062 26.152344 275.414062 27.992188 C 276.90625 28.289062 278.394531 28.589844 279.929688 28.894531 C 281.210938 32.734375 280.105469 34.960938 279.027344 38.828125 C 276.660156 36.464844 275.917969 33.796875 274.851562 30.703125 C 274.644531 30.121094 274.4375 29.542969 274.222656 28.945312 C 272.707031 24.628906 272.707031 24.628906 272.707031 22.574219 Z M 272.707031 22.574219 " fill-opacity="1" fill-rule="nonzero"/><path fill="#2a64b5" d="M 166.152344 23.476562 C 168.859375 24.382812 168.859375 24.382812 169.910156 25.925781 C 170.8125 28.394531 170.957031 30.457031 171.039062 33.085938 C 171.074219 34.050781 171.109375 35.019531 171.148438 36.015625 C 171.175781 37.015625 171.203125 38.019531 171.230469 39.054688 C 171.265625 40.070312 171.300781 41.089844 171.335938 42.136719 C 171.421875 44.648438 171.5 47.15625 171.570312 49.664062 C 168.589844 49.664062 165.609375 49.664062 162.539062 49.664062 C 162.539062 49.367188 162.539062 49.070312 162.539062 48.761719 C 164.925781 48.761719 167.308594 48.761719 169.765625 48.761719 C 169.464844 41.910156 169.167969 35.054688 168.859375 27.992188 C 167.667969 27.398438 166.476562 26.800781 165.25 26.1875 C 165.546875 25.292969 165.84375 24.398438 166.152344 23.476562 Z M 166.152344 23.476562 " fill-opacity="1" fill-rule="nonzero"/><path fill="#28a3e3" d="M 51.472656 58.695312 C 52.066406 58.992188 52.664062 59.289062 53.277344 59.597656 C 45.371094 64.199219 36.066406 64.699219 27.203125 62.59375 C 25.226562 61.855469 25.226562 61.855469 22.574219 60.5 C 24.917969 59.632812 25.898438 59.480469 28.257812 60.4375 C 31.386719 61.675781 33.953125 61.578125 37.304688 61.515625 C 38.4375 61.5 39.570312 61.484375 40.738281 61.46875 C 41.597656 61.445312 42.457031 61.425781 43.34375 61.402344 C 43.640625 60.808594 43.941406 60.210938 44.246094 59.597656 C 45.105469 59.617188 45.960938 59.636719 46.84375 59.65625 C 49.582031 59.800781 49.582031 59.800781 51.472656 58.695312 Z M 51.472656 58.695312 " fill-opacity="1" fill-rule="nonzero"/><path fill="#1a63c0" d="M 126.421875 21.671875 C 130.914062 21.351562 134.441406 21.222656 138.609375 23.082031 C 141.847656 26.238281 142.554688 29.152344 142.773438 33.617188 C 142.785156 35.355469 142.734375 37.09375 142.675781 38.828125 C 141.480469 38.53125 140.289062 38.234375 139.0625 37.925781 C 139.957031 37.925781 140.851562 37.925781 141.769531 37.925781 C 141.769531 36.734375 141.769531 35.542969 141.769531 34.3125 C 141.175781 34.3125 140.578125 34.3125 139.964844 34.3125 C 139.667969 31.632812 139.367188 28.949219 139.0625 26.1875 C 137.972656 25.796875 137.972656 25.796875 136.859375 25.398438 C 134.546875 24.382812 134.546875 24.382812 133.644531 22.574219 C 131.261719 22.574219 128.875 22.574219 126.421875 22.574219 C 126.421875 22.277344 126.421875 21.980469 126.421875 21.671875 Z M 126.421875 21.671875 " fill-opacity="1" fill-rule="nonzero"/><path fill="#215eb6" d="M 199.5625 30.703125 C 199.859375 30.703125 200.160156 30.703125 200.464844 30.703125 C 200.464844 34.574219 200.464844 38.449219 200.464844 42.441406 C 202.550781 42.441406 204.636719 42.441406 206.785156 42.441406 C 206.875 47.996094 206.875 47.996094 206.785156 49.664062 C 205.882812 50.566406 205.882812 50.566406 203.820312 50.65625 C 202.578125 50.640625 202.578125 50.640625 201.3125 50.625 C 200.484375 50.617188 199.652344 50.609375 198.796875 50.601562 C 198.15625 50.589844 197.515625 50.578125 196.855469 50.566406 C 196.855469 50.269531 196.855469 49.972656 196.855469 49.664062 C 199.535156 49.664062 202.21875 49.664062 204.980469 49.664062 C 204.980469 47.878906 204.980469 46.089844 204.980469 44.246094 C 204.253906 44.265625 203.527344 44.285156 202.78125 44.304688 C 200.464844 44.246094 200.464844 44.246094 199.5625 43.34375 C 199.496094 41.21875 199.488281 39.09375 199.507812 36.964844 C 199.515625 35.800781 199.523438 34.636719 199.53125 33.4375 C 199.542969 32.535156 199.550781 31.632812 199.5625 30.703125 Z M 199.5625 30.703125 " fill-opacity="1" fill-rule="nonzero"/><path fill="#1f62bc" d="M 297.085938 29.800781 C 298.117188 32.894531 297.871094 33.460938 296.757812 36.398438 C 296.480469 37.148438 296.199219 37.898438 295.910156 38.667969 C 295.460938 39.835938 295.460938 39.835938 295 41.03125 C 294.707031 41.804688 294.417969 42.582031 294.117188 43.382812 C 292.832031 46.789062 291.496094 50.011719 289.863281 53.277344 C 289.863281 50.59375 289.863281 47.914062 289.863281 45.148438 C 290.457031 44.851562 291.054688 44.554688 291.667969 44.246094 C 292.289062 42.335938 292.289062 42.335938 292.683594 40.128906 C 292.835938 39.382812 292.988281 38.636719 293.144531 37.867188 C 293.253906 37.289062 293.363281 36.714844 293.476562 36.121094 C 294.070312 36.121094 294.667969 36.121094 295.28125 36.121094 C 295.242188 35.414062 295.207031 34.703125 295.167969 33.976562 C 295.28125 31.605469 295.28125 31.605469 297.085938 29.800781 Z M 297.085938 29.800781 " fill-opacity="1" fill-rule="nonzero"/><path fill="#2364be" d="M 160.734375 28.894531 C 161.328125 28.894531 161.925781 28.894531 162.539062 28.894531 C 162.242188 30.386719 161.945312 31.875 161.636719 33.410156 C 154.058594 36.035156 154.058594 36.035156 150.914062 36.515625 C 148.355469 37.191406 147.636719 38.429688 146.285156 40.636719 C 146.570312 38.015625 146.75 36.542969 148.683594 34.679688 C 151.28125 33.121094 153.453125 32.761719 156.445312 32.339844 C 157.90625 32.125 157.90625 32.125 159.394531 31.90625 C 160.132812 31.804688 160.875 31.707031 161.636719 31.605469 C 161.339844 30.710938 161.039062 29.816406 160.734375 28.894531 Z M 160.734375 28.894531 " fill-opacity="1" fill-rule="nonzero"/><path fill="#2763b6" d="M 151.703125 22.574219 C 152.300781 22.871094 152.894531 23.171875 153.511719 23.476562 C 152.933594 23.851562 152.355469 24.222656 151.761719 24.605469 C 149.707031 26.347656 149.355469 27.191406 148.996094 29.800781 C 149.925781 29.5 150.859375 29.203125 151.816406 28.894531 C 154.851562 28.019531 157.566406 27.839844 160.734375 27.992188 C 160.734375 28.289062 160.734375 28.589844 160.734375 28.894531 C 160.007812 29.007812 159.28125 29.121094 158.53125 29.234375 C 157.386719 29.515625 157.386719 29.515625 156.21875 29.800781 C 155.921875 30.394531 155.621094 30.992188 155.316406 31.605469 C 152.632812 31.605469 149.953125 31.605469 147.1875 31.605469 C 147.632812 25.714844 147.632812 25.714844 149.953125 23.535156 C 150.820312 23.058594 150.820312 23.058594 151.703125 22.574219 Z M 151.703125 22.574219 " fill-opacity="1" fill-rule="nonzero"/><path fill="#1565cb" d="M 153.511719 21.671875 C 155.277344 21.625 157.046875 21.589844 158.816406 21.558594 C 160.292969 21.527344 160.292969 21.527344 161.800781 21.496094 C 164.347656 21.671875 164.347656 21.671875 166.152344 23.476562 C 164.660156 23.476562 163.171875 23.476562 161.636719 23.476562 C 161.636719 24.074219 161.636719 24.671875 161.636719 25.285156 C 158.617188 25.351562 156.394531 25.34375 153.511719 24.382812 C 153.511719 23.488281 153.511719 22.59375 153.511719 21.671875 Z M 154.414062 25.285156 C 156.21875 26.1875 156.21875 26.1875 156.21875 26.1875 Z M 154.414062 25.285156 " fill-opacity="1" fill-rule="nonzero"/><path fill="#249fe1" d="M 44.246094 0 C 54.816406 3.3125 54.816406 3.3125 58.695312 8.128906 C 56.011719 7.679688 56.011719 7.679688 53.277344 7.222656 C 53.277344 6.328125 53.277344 5.4375 53.277344 4.515625 C 50.894531 4.515625 48.507812 4.515625 46.054688 4.515625 C 46.054688 3.917969 46.054688 3.324219 46.054688 2.710938 C 45.457031 2.710938 44.859375 2.710938 44.246094 2.710938 C 44.246094 1.816406 44.246094 0.921875 44.246094 0 Z M 44.246094 0 " fill-opacity="1" fill-rule="nonzero"/><path fill="#1f62be" d="M 125.515625 27.089844 C 128.792969 27.386719 132.074219 27.6875 135.449219 27.992188 C 135.746094 29.484375 136.046875 30.972656 136.351562 32.507812 C 135.449219 33.410156 135.449219 33.410156 133.1875 33.5 C 131.820312 33.484375 131.820312 33.484375 130.425781 33.46875 C 129.511719 33.460938 128.597656 33.449219 127.65625 33.441406 C 126.953125 33.433594 126.246094 33.421875 125.515625 33.410156 C 125.515625 31.324219 125.515625 29.238281 125.515625 27.089844 Z M 128.226562 28.894531 C 127.628906 30.089844 127.035156 31.28125 126.421875 32.507812 C 129.101562 32.507812 131.785156 32.507812 134.546875 32.507812 C 133.949219 31.316406 133.355469 30.125 132.742188 28.894531 C 131.25 28.894531 129.761719 28.894531 128.226562 28.894531 Z M 128.226562 28.894531 " fill-opacity="1" fill-rule="nonzero"/><path fill="#2d65ab" d="M 232.972656 23.476562 C 235.675781 26.457031 236.007812 28.40625 235.949219 32.382812 C 235.9375 33.386719 235.929688 34.394531 235.921875 35.433594 C 235.898438 36.480469 235.875 37.523438 235.851562 38.601562 C 235.839844 39.664062 235.828125 40.722656 235.816406 41.816406 C 235.785156 44.433594 235.738281 47.050781 235.683594 49.664062 C 233.894531 49.664062 232.105469 49.664062 230.265625 49.664062 C 230.265625 49.367188 230.265625 49.070312 230.265625 48.761719 C 231.753906 48.761719 233.246094 48.761719 234.78125 48.761719 C 234.65625 45.46875 234.519531 42.175781 234.386719 38.886719 C 234.347656 37.945312 234.3125 37.003906 234.277344 36.035156 C 234.21875 34.695312 234.21875 34.695312 234.164062 33.328125 C 234.128906 32.503906 234.097656 31.675781 234.0625 30.820312 C 234.085938 28.914062 234.085938 28.914062 232.972656 27.992188 C 232.9375 26.488281 232.933594 24.984375 232.972656 23.476562 Z M 232.972656 23.476562 " fill-opacity="1" fill-rule="nonzero"/><path fill="#2165be" d="M 191.4375 30.703125 C 191.734375 30.703125 192.03125 30.703125 192.339844 30.703125 C 192.339844 34.277344 192.339844 37.855469 192.339844 41.539062 C 193.234375 41.539062 194.125 41.539062 195.046875 41.539062 C 195.179688 42.542969 195.308594 43.550781 195.441406 44.585938 C 195.753906 47.699219 195.753906 47.699219 196.855469 49.664062 C 194 48.429688 193.25 47.867188 191.4375 45.148438 C 191.308594 42.652344 191.265625 40.25 191.324219 37.757812 C 191.332031 37.078125 191.339844 36.402344 191.347656 35.707031 C 191.367188 34.039062 191.402344 32.371094 191.4375 30.703125 Z M 191.4375 30.703125 " fill-opacity="1" fill-rule="nonzero"/><path fill="#1ca3eb" d="M 46.957031 33.410156 C 46.957031 40.183594 46.957031 40.183594 44.246094 43.34375 C 43.351562 43.046875 42.460938 42.746094 41.539062 42.441406 C 41.539062 43.335938 41.539062 44.230469 41.539062 45.148438 C 40.941406 45.148438 40.347656 45.148438 39.730469 45.148438 C 41.167969 40.554688 44.015625 37.136719 46.957031 33.410156 Z M 46.957031 33.410156 " fill-opacity="1" fill-rule="nonzero"/><path fill="#0963d5" d="M 108.359375 12.640625 C 110.445312 12.640625 112.53125 12.640625 114.679688 12.640625 C 114.085938 15.027344 113.488281 17.410156 112.875 19.867188 C 111.683594 19.566406 110.492188 19.269531 109.261719 18.964844 C 108.964844 16.878906 108.667969 14.792969 108.359375 12.640625 Z M 108.359375 12.640625 " fill-opacity="1" fill-rule="nonzero"/><path fill="#2064bd" d="M 91.203125 23.476562 C 92.402344 27.078125 91.550781 29.964844 90.808594 33.582031 C 90.609375 34.59375 90.609375 34.59375 90.402344 35.632812 C 90.074219 37.300781 89.738281 38.96875 89.398438 40.636719 C 89.097656 40.636719 88.800781 40.636719 88.492188 40.636719 C 88.492188 38.847656 88.492188 37.058594 88.492188 35.21875 C 87.898438 34.917969 87.300781 34.621094 86.6875 34.3125 C 87.582031 34.015625 88.476562 33.71875 89.398438 33.410156 C 89.375 32.84375 89.355469 32.28125 89.332031 31.695312 C 89.316406 30.957031 89.300781 30.222656 89.285156 29.460938 C 89.261719 28.726562 89.242188 27.992188 89.21875 27.238281 C 89.398438 25.285156 89.398438 25.285156 91.203125 23.476562 Z M 91.203125 23.476562 " fill-opacity="1" fill-rule="nonzero"/><path fill="#239fe3" d="M 7.222656 19.867188 C 7.523438 19.867188 7.820312 19.867188 8.128906 19.867188 C 8.320312 25.867188 7.6875 31.183594 6.320312 37.023438 C 6.023438 37.023438 5.726562 37.023438 5.417969 37.023438 C 5.367188 35.179688 5.335938 33.335938 5.304688 31.492188 C 5.285156 30.464844 5.261719 29.4375 5.242188 28.382812 C 5.421875 25.230469 6.09375 22.796875 7.222656 19.867188 Z M 7.222656 19.867188 " fill-opacity="1" fill-rule="nonzero"/><path fill="#2164bd" d="M 281.734375 22.574219 C 283.398438 25.070312 284.195312 26.914062 285.066406 29.742188 C 285.3125 30.515625 285.558594 31.285156 285.808594 32.082031 C 286.269531 34.410156 286.113281 35.707031 285.347656 37.925781 C 285.050781 37.03125 284.753906 36.136719 284.445312 35.21875 C 283.550781 34.917969 282.65625 34.621094 281.734375 34.3125 C 281.734375 30.441406 281.734375 26.566406 281.734375 22.574219 Z M 281.734375 22.574219 " fill-opacity="1" fill-rule="nonzero"/><path fill="#1c9fe8" d="M 65.917969 40.636719 C 66.21875 40.636719 66.515625 40.636719 66.820312 40.636719 C 66.480469 46.203125 64.871094 48.917969 61.402344 53.277344 C 61.105469 52.085938 60.808594 50.894531 60.5 49.664062 C 61.691406 49.070312 62.886719 48.472656 64.113281 47.859375 C 64.074219 47.167969 64.039062 46.480469 64 45.769531 C 64.113281 43.34375 64.113281 43.34375 65.917969 40.636719 Z M 65.917969 40.636719 " fill-opacity="1" fill-rule="nonzero"/><path fill="#1865c4" d="M 73.144531 30.703125 C 73.738281 30.703125 74.335938 30.703125 74.949219 30.703125 C 74.949219 31.296875 74.949219 31.894531 74.949219 32.507812 C 76.140625 33.105469 77.332031 33.699219 78.5625 34.3125 C 78.5625 35.207031 78.5625 36.101562 78.5625 37.023438 C 77.667969 36.726562 76.773438 36.425781 75.851562 36.121094 C 75.554688 37.90625 75.257812 39.695312 74.949219 41.539062 C 74.652344 41.539062 74.351562 41.539062 74.046875 41.539062 C 73.746094 37.960938 73.449219 34.386719 73.144531 30.703125 Z M 73.144531 30.703125 " fill-opacity="1" fill-rule="nonzero"/><path fill="#1a63c0" d="M 136.351562 41.539062 C 138.4375 41.539062 140.523438 41.539062 142.675781 41.539062 C 143.007812 44.546875 142.921875 45.714844 141.09375 48.199219 C 139.0625 49.664062 139.0625 49.664062 137.03125 49.4375 C 136.246094 49.105469 136.246094 49.105469 135.449219 48.761719 C 135.449219 48.167969 135.449219 47.570312 135.449219 46.957031 C 136.761719 46.59375 136.761719 46.59375 138.101562 46.222656 C 139.472656 45.691406 139.472656 45.691406 140.867188 45.148438 C 141.164062 44.257812 141.464844 43.363281 141.769531 42.441406 C 139.984375 42.441406 138.195312 42.441406 136.351562 42.441406 C 136.351562 42.144531 136.351562 41.84375 136.351562 41.539062 Z M 136.351562 41.539062 " fill-opacity="1" fill-rule="nonzero"/><path fill="#2561b9" d="M 111.070312 27.089844 C 111.664062 27.089844 112.261719 27.089844 112.875 27.089844 C 112.277344 31.859375 111.683594 36.625 111.070312 41.539062 C 110.472656 41.539062 109.878906 41.539062 109.261719 41.539062 C 109.222656 39.730469 109.226562 37.925781 109.261719 36.121094 C 109.5625 35.820312 109.859375 35.523438 110.164062 35.21875 C 110.375 33.847656 110.539062 32.472656 110.675781 31.097656 C 110.75 30.351562 110.824219 29.605469 110.902344 28.835938 C 110.957031 28.261719 111.011719 27.683594 111.070312 27.089844 Z M 111.070312 27.089844 " fill-opacity="1" fill-rule="nonzero"/><path fill="#2264bb" d="M 146.285156 42.441406 C 146.507812 43.019531 146.734375 43.597656 146.964844 44.191406 C 147.914062 46.226562 147.914062 46.226562 149.953125 46.617188 C 150.53125 46.730469 151.109375 46.839844 151.703125 46.957031 C 152.003906 47.550781 152.300781 48.148438 152.605469 48.761719 C 155.34375 49.355469 155.34375 49.355469 158.023438 49.664062 C 158.023438 49.964844 158.023438 50.261719 158.023438 50.566406 C 151.578125 51.003906 151.578125 51.003906 148.09375 49.042969 C 146.285156 46.957031 146.285156 46.957031 146.003906 44.472656 C 146.097656 43.800781 146.191406 43.132812 146.285156 42.441406 Z M 146.285156 42.441406 " fill-opacity="1" fill-rule="nonzero"/><path fill="#28a0e0" d="M 35.21875 29.800781 C 35.8125 29.800781 36.410156 29.800781 37.023438 29.800781 C 35.9375 32.050781 34.808594 34.027344 33.410156 36.121094 C 32.816406 36.121094 32.21875 36.121094 31.605469 36.121094 C 30.710938 34.332031 29.816406 32.542969 28.894531 30.703125 C 30.980469 31 33.066406 31.296875 35.21875 31.605469 C 35.21875 31.007812 35.21875 30.414062 35.21875 29.800781 Z M 35.21875 29.800781 " fill-opacity="1" fill-rule="nonzero"/><path fill="#0863db" d="M 246.125 11.683594 C 247.214844 11.710938 247.214844 11.710938 248.324219 11.738281 C 248.324219 13.527344 248.324219 15.316406 248.324219 17.15625 C 248.027344 16.5625 247.730469 15.964844 247.421875 15.351562 C 245.632812 15.648438 243.847656 15.945312 242.003906 16.253906 C 243.019531 11.757812 243.019531 11.757812 246.125 11.683594 Z M 246.125 11.683594 " fill-opacity="1" fill-rule="nonzero"/><path fill="#1964c4" d="M 223.039062 21.671875 C 225.722656 21.671875 228.40625 21.671875 231.167969 21.671875 C 231.464844 22.269531 231.765625 22.863281 232.070312 23.476562 C 229.382812 23.742188 229.382812 23.742188 226.691406 24.007812 C 224.578125 24.316406 224.578125 24.316406 222.136719 26.1875 C 221.542969 25.589844 220.945312 24.996094 220.332031 24.382812 C 221.226562 24.382812 222.121094 24.382812 223.039062 24.382812 C 223.039062 23.488281 223.039062 22.59375 223.039062 21.671875 Z M 223.039062 21.671875 " fill-opacity="1" fill-rule="nonzero"/><path fill="#165cbd" d="M 87.589844 9.03125 C 90.867188 9.03125 94.148438 9.03125 97.523438 9.03125 C 97.523438 10.519531 97.523438 12.011719 97.523438 13.546875 C 94.023438 11.964844 94.023438 11.964844 93.007812 9.933594 C 91.222656 9.933594 89.433594 9.933594 87.589844 9.933594 C 87.589844 9.636719 87.589844 9.335938 87.589844 9.03125 Z M 92.105469 11.738281 C 92.703125 12.035156 93.296875 12.335938 93.910156 12.640625 C 93.613281 13.238281 93.316406 13.832031 93.007812 14.449219 C 92.414062 13.851562 91.816406 13.257812 91.203125 12.640625 C 91.5 12.34375 91.800781 12.046875 92.105469 11.738281 Z M 92.105469 11.738281 " fill-opacity="1" fill-rule="nonzero"/><path fill="#21a9f2" d="M 36.121094 0 C 31.441406 2.425781 27.9375 3.863281 22.574219 3.613281 C 23.476562 1.804688 23.476562 1.804688 26.300781 0.789062 C 29.710938 0.0195312 32.640625 -0.140625 36.121094 0 Z M 36.121094 0 " fill-opacity="1" fill-rule="nonzero"/><path fill="#2468c6" d="M 269.996094 22.574219 C 270.296875 22.574219 270.59375 22.574219 270.898438 22.574219 C 270.898438 24.957031 270.898438 27.34375 270.898438 29.800781 C 268.8125 30.097656 266.726562 30.394531 264.578125 30.703125 C 264.878906 29.511719 265.175781 28.316406 265.480469 27.089844 C 266.972656 27.089844 268.460938 27.089844 269.996094 27.089844 C 269.996094 25.601562 269.996094 24.109375 269.996094 22.574219 Z M 269.996094 22.574219 " fill-opacity="1" fill-rule="nonzero"/><path fill="#24a4e4" d="M 12.640625 10.835938 C 14.085938 13.726562 12.671875 16.003906 11.738281 18.964844 C 10.546875 19.261719 9.355469 19.558594 8.128906 19.867188 C 8.683594 16.257812 10.570312 13.777344 12.640625 10.835938 Z M 12.640625 10.835938 " fill-opacity="1" fill-rule="nonzero"/><path fill="#26a4e7" d="M 55.082031 18.058594 C 55.679688 18.058594 56.273438 18.058594 56.890625 18.058594 C 57.1875 20.445312 57.484375 22.828125 57.792969 25.285156 C 55.648438 26.695312 55.648438 26.695312 53.277344 27.992188 C 52.679688 27.695312 52.085938 27.398438 51.472656 27.089844 C 52.066406 26.4375 52.664062 25.785156 53.277344 25.113281 C 55.222656 22.378906 55.453125 21.3125 55.082031 18.058594 Z M 55.082031 18.058594 " fill-opacity="1" fill-rule="nonzero"/><path fill="#2460b6" d="M 290.765625 23.476562 C 292.015625 26.953125 291.589844 29.855469 290.765625 33.410156 C 288.914062 35.414062 288.914062 35.414062 287.152344 37.023438 C 287.585938 35.273438 288.019531 33.523438 288.453125 31.773438 C 288.691406 30.800781 288.933594 29.824219 289.183594 28.820312 C 289.648438 27.023438 290.179688 25.242188 290.765625 23.476562 Z M 290.765625 23.476562 " fill-opacity="1" fill-rule="nonzero"/><path fill="#2a65b3" d="M 186.921875 22.574219 C 187.515625 22.574219 188.113281 22.574219 188.726562 22.574219 C 188.726562 24.363281 188.726562 26.152344 188.726562 27.992188 C 189.621094 27.992188 190.515625 27.992188 191.4375 27.992188 C 191.4375 28.589844 191.4375 29.183594 191.4375 29.800781 C 189.945312 29.800781 188.457031 29.800781 186.921875 29.800781 C 186.921875 27.414062 186.921875 25.03125 186.921875 22.574219 Z M 186.921875 22.574219 " fill-opacity="1" fill-rule="nonzero"/><path fill="#2daae2" d="M 22.574219 3.613281 C 22.574219 4.207031 22.574219 4.804688 22.574219 5.417969 C 21.074219 6.328125 19.566406 7.230469 18.058594 8.128906 C 17.167969 9.46875 17.167969 9.46875 16.253906 10.835938 C 15.359375 10.835938 14.464844 10.835938 13.546875 10.835938 C 14.914062 7.003906 18.328125 3.613281 22.574219 3.613281 Z M 22.574219 3.613281 " fill-opacity="1" fill-rule="nonzero"/><path fill="#20a0e8" d="M 21.671875 25.285156 C 26.863281 26.976562 26.863281 26.976562 28.894531 27.992188 C 28.597656 28.886719 28.300781 29.78125 27.992188 30.703125 C 27.285156 30.402344 26.578125 30.105469 25.847656 29.800781 C 23.621094 28.789062 23.621094 28.789062 21.671875 28.894531 C 21.671875 27.703125 21.671875 26.511719 21.671875 25.285156 Z M 21.671875 25.285156 " fill-opacity="1" fill-rule="nonzero"/><path fill="#21a0e7" d="M 46.054688 15.351562 C 48.734375 15.351562 51.417969 15.351562 54.179688 15.351562 C 53.882812 15.945312 53.585938 16.542969 53.277344 17.15625 C 51.472656 17.472656 49.667969 17.769531 47.859375 18.058594 C 46.964844 18.65625 46.070312 19.253906 45.148438 19.867188 C 45.449219 18.375 45.746094 16.886719 46.054688 15.351562 Z M 46.054688 15.351562 " fill-opacity="1" fill-rule="nonzero"/><path fill="#1ca2ea" d="M 54.179688 54.179688 C 56.890625 54.179688 56.890625 54.179688 59.597656 55.082031 C 55.308594 58.695312 55.308594 58.695312 53.277344 58.695312 C 53.574219 57.203125 53.871094 55.714844 54.179688 54.179688 Z M 54.179688 54.179688 " fill-opacity="1" fill-rule="nonzero"/><path fill="#219fe7" d="M 14.449219 53.277344 C 16.988281 53.390625 16.988281 53.390625 19.867188 54.179688 C 21.558594 56.945312 21.558594 56.945312 22.574219 59.597656 C 18.585938 58.378906 16.847656 56.652344 14.449219 53.277344 Z M 14.449219 53.277344 " fill-opacity="1" fill-rule="nonzero"/><path fill="#1969db" d="M 81.269531 34.3125 C 81.867188 34.3125 82.460938 34.3125 83.074219 34.3125 C 83.074219 35.804688 83.074219 37.292969 83.074219 38.828125 C 82.183594 39.277344 82.183594 39.277344 81.269531 39.730469 C 80.675781 39.433594 80.078125 39.136719 79.464844 38.828125 C 80.253906 35.328125 80.253906 35.328125 81.269531 34.3125 Z M 81.269531 34.3125 " fill-opacity="1" fill-rule="nonzero"/><path fill="#2164b1" d="M 272.707031 22.574219 C 273.601562 22.574219 274.492188 22.574219 275.414062 22.574219 C 275.714844 25.554688 276.011719 28.535156 276.316406 31.605469 C 273.652344 28.941406 273.53125 26.226562 272.707031 22.574219 Z M 272.707031 22.574219 " fill-opacity="1" fill-rule="nonzero"/><path fill="#14a2ed" d="M 44.246094 0 C 45.4375 0.296875 46.632812 0.597656 47.859375 0.902344 C 47.859375 1.5 47.859375 2.09375 47.859375 2.710938 C 48.453125 3.007812 49.050781 3.304688 49.664062 3.613281 C 48.472656 3.910156 47.28125 4.207031 46.054688 4.515625 C 46.054688 3.917969 46.054688 3.324219 46.054688 2.710938 C 45.457031 2.710938 44.859375 2.710938 44.246094 2.710938 C 44.246094 1.816406 44.246094 0.921875 44.246094 0 Z M 44.246094 0 " fill-opacity="1" fill-rule="nonzero"/></svg>