<?xml version="1.0" encoding="UTF-8"?>
<svg version="1.1" xmlns="http://www.w3.org/2000/svg" width="208" height="208">
<path d="M0 0 C22.6466315 17.4014023 37.66724239 41.75825246 41.49609375 70.16796875 C43.6234206 100.85128369 37.52661037 127.63340832 17.7109375 151.6328125 C-0.01735141 171.92498094 -24.38402138 186.49569576 -51.72241211 188.39111328 C-84.45468063 189.49388496 -110.66694172 181.96062171 -135.2578125 159.671875 C-153.71753679 141.98237564 -165.972054 117.35914008 -166.83984375 91.6015625 C-167.26807676 58.60889988 -158.44901261 32.74530035 -135.31640625 8.60546875 C-98.8900339 -26.92025153 -40.63076591 -29.7282827 0 0 Z " fill="#1A0488" transform="translate(166.50390625,19.83203125)"/>
<path d="M0 0 C3.07469523 1.70251719 5.40613254 3.81226508 7 7 C7.37540814 11.330928 6.8193497 14.7924346 4.359375 18.41796875 C1.42251108 21.76397592 -1.668702 24.81962285 -5.125 27.625 C-7.99031419 29.99199868 -10.14719046 32.46998329 -12.50390625 35.31640625 C-14 37 -14 37 -16.9375 39.4375 C-20.20955494 42.17534189 -22.78575751 45.13760093 -25.484375 48.42578125 C-26.23460937 49.20501953 -26.23460937 49.20501953 -27 50 C-27.66 50 -28.32 50 -29 50 C-29.66 51.32 -30.32 52.64 -31 54 C-31.66 54 -32.32 54 -33 54 C-33.33 54.99 -33.66 55.98 -34 57 C-36.4375 59.6875 -36.4375 59.6875 -39 62 C-39.66 62 -40.32 62 -41 62 C-41.33 62.99 -41.66 63.98 -42 65 C-43.4520817 66.2210687 -44.90821966 67.43802344 -46.39453125 68.6171875 C-48.25652161 70.14341172 -48.25652161 70.14341172 -50.4375 72.9375 C-52.9131866 75.8962474 -55.46656439 78.17010731 -58.42578125 80.609375 C-60.24625979 82.21753966 -61.57142291 84.04510504 -63 86 C-63.66 86 -64.32 86 -65 86 C-65.495 87.485 -65.495 87.485 -66 89 C-67.4294357 90.19673687 -68.86304856 91.38909815 -70.32421875 92.546875 C-72.0894073 94.07752801 -73.51534799 95.69804769 -75 97.5 C-76.903689 99.79926074 -78.60683097 101.50354059 -80.9375 103.4375 C-84.20955494 106.17534189 -86.78575751 109.13760093 -89.484375 112.42578125 C-89.98453125 112.94527344 -90.4846875 113.46476562 -91 114 C-91.66 114 -92.32 114 -93 114 C-93.495 115.485 -93.495 115.485 -94 117 C-95.8125 118.75390625 -95.8125 118.75390625 -98 120.5625 C-100.94959179 122.92210327 -100.94959179 122.92210327 -103 126 C-106.67315629 124.4548149 -109.02205438 122.23140435 -111.82861328 119.43017578 C-112.29415619 118.96813751 -112.7596991 118.50609924 -113.23934937 118.03005981 C-114.77139469 116.5067914 -116.29603781 114.97635376 -117.8203125 113.4453125 C-118.8856839 112.38128891 -119.95135199 111.31756232 -121.01730347 110.25411987 C-123.24803934 108.02632979 -125.47512484 105.79496958 -127.69970703 103.56103516 C-130.54885507 100.70049297 -133.40688735 97.84902307 -136.26771736 95.00016975 C-138.46923241 92.80588797 -140.66595393 90.6068571 -142.86126328 88.40636826 C-143.91314844 87.35315066 -144.96651656 86.30141195 -146.02139664 85.251194 C-147.49588881 83.78179109 -148.96380084 82.30611092 -150.43017578 80.82861328 C-151.26638458 79.99081329 -152.10259338 79.15301331 -152.96414185 78.28982544 C-155.6899083 75.22402767 -156.87889862 73.13835295 -157.3125 69.0625 C-156.9497378 65.50743041 -156.19786786 63.80417623 -154 61 C-151.09799637 58.66227486 -149.27699106 58.03525341 -145.5625 57.5625 C-138.25815004 58.45952543 -133.57933729 64.14644538 -128.6328125 69.171875 C-127.95322479 69.8542926 -127.27363708 70.53671021 -126.57345581 71.23980713 C-124.41920055 73.40519349 -122.27203208 75.57745386 -120.125 77.75 C-118.65931784 79.22572108 -117.19317671 80.70098646 -115.7265625 82.17578125 C-112.14570834 85.77860194 -108.57119036 89.38760116 -105 93 C-101.7582514 91.57610179 -99.6067945 89.85248189 -97.11569214 87.34947205 C-96.35580994 86.59089401 -95.59592773 85.83231598 -94.8130188 85.05075073 C-93.98897552 84.21794586 -93.16493225 83.38514099 -92.31591797 82.52709961 C-91.00312866 81.21233894 -91.00312866 81.21233894 -89.66381836 79.87101746 C-87.76377632 77.96671127 -85.86565928 76.06069448 -83.97057724 74.15147209 C-80.9755235 71.13413865 -77.97338507 68.1239218 -74.97024536 65.11463928 C-70.22321354 60.35623303 -65.48088015 55.59317577 -60.740574 50.82807022 C-52.24535354 42.2884875 -43.74450779 33.7545132 -35.23846161 25.22571379 C-32.25250591 22.23133851 -29.2693821 19.23417797 -26.28848624 16.23476589 C-24.00263805 13.93580366 -21.7136786 11.63994192 -19.42529297 9.34350586 C-18.18315536 8.09126221 -18.18315536 8.09126221 -16.91592407 6.8137207 C-16.16168152 6.05796249 -15.40743896 5.30220428 -14.63034058 4.52354431 C-13.97368849 3.86337279 -13.3170364 3.20320127 -12.64048576 2.52302456 C-9.00054595 -0.85629019 -4.72748716 -0.72974634 0 0 Z " fill="#FBFAFD" transform="translate(174,44)"/>
<path d="M0 0 C0.66 0 1.32 0 2 0 C0.58397787 3.14906415 -1.13735082 5.49523672 -3.4375 8.0625 C-4.03433594 8.73410156 -4.63117188 9.40570313 -5.24609375 10.09765625 C-6.11427734 11.03931641 -6.11427734 11.03931641 -7 12 C-7.52722656 12.57621094 -8.05445313 13.15242188 -8.59765625 13.74609375 C-10 15 -10 15 -12 15 C-12.2475 15.598125 -12.495 16.19625 -12.75 16.8125 C-14.16370012 19.28647521 -15.65055383 20.43370255 -18 22 C-18.66 21.34 -19.32 20.68 -20 20 C-19.56429687 19.64808594 -19.12859375 19.29617187 -18.6796875 18.93359375 C-14.86435029 15.77066269 -11.63001461 12.49399625 -8.484375 8.671875 C-6.99042853 6.98921951 -5.43461838 5.60183393 -3.6875 4.1875 C-0.96924803 2.28130489 -0.96924803 2.28130489 0 0 Z " fill="#241581" transform="translate(145,94)"/>
<path d="M0 0 C0.99 0.66 1.98 1.32 3 2 C1.76600937 3.36877116 0.51219377 4.71969166 -0.75 6.0625 C-1.79414063 7.19365234 -1.79414063 7.19365234 -2.859375 8.34765625 C-5 10 -5 10 -7.265625 9.74609375 C-7.83796875 9.49988281 -8.4103125 9.25367187 -9 9 C-7.37660195 7.29115995 -5.70680947 5.62553283 -4 4 C-3.34 4 -2.68 4 -2 4 C-1.34 2.68 -0.68 1.36 0 0 Z " fill="#2D1D88" transform="translate(158,81)"/>
<path d="M0 0 C0.99 0.66 1.98 1.32 3 2 C0.69 4.31 -1.62 6.62 -4 9 C-4.33 7.68 -4.66 6.36 -5 5 C-2.5625 2.25 -2.5625 2.25 0 0 Z " fill="#271885" transform="translate(170,69)"/>
<path d="M0 0 C0.99 0 1.98 0 3 0 C1.60667426 3.36720387 0.0210714 4.9859524 -3 7 C-3.66 6.67 -4.32 6.34 -5 6 C-4.34 5.01 -3.68 4.02 -3 3 C-2.34 3 -1.68 3 -1 3 C-0.67 2.01 -0.34 1.02 0 0 Z " fill="#291A81" transform="translate(90,149)"/>
<path d="M0 0 C0.99 0 1.98 0 3 0 C7 5.14285714 7 5.14285714 7 9 C4.04070881 6.24479785 1.96318174 3.53372712 0 0 Z " fill="#26177B" transform="translate(15,116)"/>
</svg>
