<?xml version="1.0" encoding="UTF-8"?>
<svg version="1.1" xmlns="http://www.w3.org/2000/svg" width="500" height="500">
<path d="M0 0 C0.69222656 0.58587891 0.69222656 0.58587891 1.3984375 1.18359375 C1.3984375 1.84359375 1.3984375 2.50359375 1.3984375 3.18359375 C1.9965625 3.43882813 2.5946875 3.6940625 3.2109375 3.95703125 C9.10340334 7.26102102 13.00577939 15.03630293 15.3984375 21.18359375 C18.21794232 31.9761354 17.46166429 45.00412527 11.95703125 54.73046875 C5.23482801 65.02432985 -2.83580641 71.48397004 -14.6015625 75.18359375 C-26.20985359 77.47604872 -37.14423962 76.16644001 -47.4140625 69.99609375 C-57.06856205 63.35602068 -63.90096382 53.90509605 -66.3203125 42.296875 C-67.85606986 30.75736484 -66.08399982 19.74728701 -59.19921875 10.21875 C-58.67199219 9.54714844 -58.14476562 8.87554687 -57.6015625 8.18359375 C-56.98539063 7.34957031 -56.36921875 6.51554687 -55.734375 5.65625 C-41.83674859 -10.45583336 -16.9992427 -10.78410456 0 0 Z M-9.6015625 16.18359375 C-9.6015625 16.84359375 -9.6015625 17.50359375 -9.6015625 18.18359375 C-10.5915625 18.51359375 -11.5815625 18.84359375 -12.6015625 19.18359375 C-14.8101391 21.05867537 -14.8101391 21.05867537 -16.6015625 23.18359375 C-16.6015625 23.84359375 -16.6015625 24.50359375 -16.6015625 25.18359375 C-17.2615625 25.18359375 -17.9215625 25.18359375 -18.6015625 25.18359375 C-21.26822917 27.51692708 -21.26822917 27.51692708 -23.6015625 30.18359375 C-23.6015625 30.84359375 -23.6015625 31.50359375 -23.6015625 32.18359375 C-24.2615625 32.18359375 -24.9215625 32.18359375 -25.6015625 32.18359375 C-25.6015625 33.17359375 -25.6015625 34.16359375 -25.6015625 35.18359375 C-26.2409375 35.28671875 -26.8803125 35.38984375 -27.5390625 35.49609375 C-28.2196875 35.72296875 -28.9003125 35.94984375 -29.6015625 36.18359375 C-29.9315625 37.17359375 -30.2615625 38.16359375 -30.6015625 39.18359375 C-31.2615625 39.18359375 -31.9215625 39.18359375 -32.6015625 39.18359375 C-32.6015625 39.84359375 -32.6015625 40.50359375 -32.6015625 41.18359375 C-37.25204972 39.95258243 -39.26259597 37.51598212 -42.07421875 33.83984375 C-43.81209475 31.9552928 -45.20591757 31.08138803 -47.6015625 30.18359375 C-52.64692634 30.40905027 -52.64692634 30.40905027 -56.6015625 33.18359375 C-57.22200028 36.63047029 -57.33068568 39.0512256 -55.38671875 42.0703125 C-53.54324061 44.20874714 -51.60701348 46.19582752 -49.6015625 48.18359375 C-48.73660156 49.07304687 -47.87164062 49.9625 -46.98046875 50.87890625 C-41.81404662 56.67768456 -41.81404662 56.67768456 -34.9765625 59.68359375 C-25.9345234 58.3440324 -17.01200957 45.9913908 -10.60791016 39.70483398 C-9.26388231 38.39269777 -7.91187067 37.08869271 -6.55224609 35.79272461 C-4.56998658 33.90164999 -2.61515766 31.98564914 -0.6640625 30.0625 C-0.05481934 29.49141006 0.55442383 28.92032013 1.18212891 28.33192444 C4.21599046 25.28371637 5.7738986 23.27554803 5.87890625 18.87866211 C5.73467364 15.23967847 5.73467364 15.23967847 3.7734375 13.18359375 C-1.87228838 10.80644601 -5.34676103 11.92879228 -9.6015625 16.18359375 Z " fill="#048CBC" transform="translate(121.6015625,107.81640625)"/>
<path d="M0 0 C4.29 0 8.58 0 13 0 C14.9236168 8.28634928 16.46056115 16.63571559 18 25 C18.14622803 24.27820557 18.29245605 23.55641113 18.44311523 22.81274414 C19.10398944 19.56185121 19.77066446 16.31217511 20.4375 13.0625 C20.66759766 11.92619141 20.89769531 10.78988281 21.13476562 9.61914062 C21.46831055 7.99975586 21.46831055 7.99975586 21.80859375 6.34765625 C22.01282959 5.34742432 22.21706543 4.34719238 22.42749023 3.31665039 C23 1 23 1 24 0 C26.35313555 -0.07271741 28.70833668 -0.08370868 31.0625 -0.0625 C32.35285156 -0.05347656 33.64320313 -0.04445313 34.97265625 -0.03515625 C35.97167969 -0.02355469 36.97070312 -0.01195313 38 0 C40.94245266 5.14296883 42.07602537 10.13166028 43.1875 15.875 C43.36474609 16.75414062 43.54199219 17.63328125 43.72460938 18.5390625 C44.15739734 20.69130536 44.58229606 22.8447881 45 25 C45.08040527 24.42032471 45.16081055 23.84064941 45.24365234 23.2434082 C45.61423972 20.59880997 45.9945265 17.95569328 46.375 15.3125 C46.56449219 13.94448242 46.56449219 13.94448242 46.7578125 12.54882812 C46.88671875 11.66259766 47.015625 10.77636719 47.1484375 9.86328125 C47.26364746 9.05157471 47.37885742 8.23986816 47.49755859 7.40356445 C48 5 48 5 50 0 C53.96 0 57.92 0 62 0 C63.28606816 2.57213633 62.92420247 3.93721472 62.58203125 6.78515625 C62.46400146 7.7793457 62.34597168 8.77353516 62.22436523 9.79785156 C62.08844971 10.87518555 61.95253418 11.95251953 61.8125 13.0625 C61.60765991 14.71910645 61.60765991 14.71910645 61.39868164 16.40917969 C60.3680192 24.5418134 59.20511547 32.65104596 57.9375 40.75 C57.69447144 42.32793335 57.69447144 42.32793335 57.4465332 43.93774414 C57.28757568 44.92250732 57.12861816 45.90727051 56.96484375 46.921875 C56.8268335 47.78393555 56.68882324 48.64599609 56.54663086 49.53417969 C56 52 56 52 54 57 C49.05 57 44.1 57 39 57 C36.17200382 51.16624789 34.96833656 45.49259215 33.875 39.125 C33.54243823 37.23117494 33.20667845 35.3379077 32.8671875 33.4453125 C32.72394043 32.61531738 32.58069336 31.78532227 32.43310547 30.93017578 C32.18152442 29.00314604 32.18152442 29.00314604 31 28 C30.85900879 28.77190674 30.71801758 29.54381348 30.57275391 30.33911133 C29.93067987 33.83160497 29.27797314 37.32202844 28.625 40.8125 C28.29242188 42.63491211 28.29242188 42.63491211 27.953125 44.49414062 C27.73398438 45.65751953 27.51484375 46.82089844 27.2890625 48.01953125 C27.09006348 49.09307861 26.89106445 50.16662598 26.68603516 51.27270508 C26 54 26 54 24 57 C21.37302936 57.22137393 18.99106036 57.28162025 16.375 57.1875 C15.66859375 57.17396484 14.9621875 57.16042969 14.234375 57.14648438 C12.48925872 57.1111104 10.74453392 57.05730221 9 57 C6.48504608 47.8236338 4.75989994 38.58433875 3.21020508 29.20825195 C2.81118082 26.80455334 2.39914276 24.40331713 1.98632812 22.00195312 C1.72577418 20.44544426 1.46598198 18.88880764 1.20703125 17.33203125 C1.08519974 16.62867142 0.96336823 15.92531158 0.83784485 15.20063782 C0.00868682 10.0853985 -0.09824162 5.18200716 0 0 Z " fill="#1062CE" transform="translate(146,112)"/>
<path d="M0 0 C3.09244792 0.03255208 6.18489583 0.06510417 9.27734375 0.09765625 C9.27734375 6.69765625 9.27734375 13.29765625 9.27734375 20.09765625 C10.59734375 19.43765625 11.91734375 18.77765625 13.27734375 18.09765625 C16.08203125 17.65625 16.08203125 17.65625 19.15234375 17.53515625 C20.16039062 17.47199219 21.1684375 17.40882813 22.20703125 17.34375 C26.03318128 18.28324994 27.7263746 19.46493709 30.13037109 22.55932617 C32.71021363 28.26869672 31.87262607 34.89288163 31.65234375 41.03515625 C31.62220904 42.49668991 31.59483938 43.95828335 31.5703125 45.41992188 C31.50458594 48.98041999 31.40126226 52.53865317 31.27734375 56.09765625 C26.98734375 56.09765625 22.69734375 56.09765625 18.27734375 56.09765625 C17.55146841 52.46827956 17.15654516 49.82143842 17.1796875 46.234375 C17.18291016 45.34814453 17.18613281 44.46191406 17.18945312 43.54882812 C17.19783203 42.63681641 17.20621094 41.72480469 17.21484375 40.78515625 C17.21935547 39.85380859 17.22386719 38.92246094 17.22851562 37.96289062 C17.24025141 35.67441252 17.25667012 33.38606817 17.27734375 31.09765625 C15.29734375 31.42765625 13.31734375 31.75765625 11.27734375 32.09765625 C10.61734375 40.01765625 9.95734375 47.93765625 9.27734375 56.09765625 C4.98734375 56.09765625 0.69734375 56.09765625 -3.72265625 56.09765625 C-3.74729581 48.28312411 -3.7654873 40.46861437 -3.77758789 32.65405273 C-3.78263008 29.99324144 -3.78946361 27.33243293 -3.7980957 24.67163086 C-3.81016634 20.85660109 -3.81588554 17.04160781 -3.8203125 13.2265625 C-3.82547379 12.02866592 -3.83063507 10.83076935 -3.83595276 9.59657288 C-3.83602829 8.49550705 -3.83610382 7.39444122 -3.83618164 6.26000977 C-3.83840225 5.28516129 -3.84062286 4.31031281 -3.84291077 3.30592346 C-3.66374574 0.01586607 -3.32887168 0.11939999 0 0 Z " fill="#1E5EB5" transform="translate(337.72265625,110.90234375)"/>
<path d="M0 0 C4.53378039 1.67917792 6.54617346 4.39113273 8.79296875 8.5390625 C10.12095167 12.52301126 10.01628957 16.17960525 10.04296875 20.3515625 C10.06359375 21.14626953 10.08421875 21.94097656 10.10546875 22.75976562 C10.13871204 27.78365763 9.55771603 31.17720393 6.79296875 35.5390625 C2.50769548 39.4225914 -1.37435409 39.71691966 -7.01953125 39.7890625 C-8.82357422 39.82773438 -8.82357422 39.82773438 -10.6640625 39.8671875 C-15.68431831 39.4022465 -18.95219651 37.82875376 -22.45703125 34.2265625 C-26.68340359 27.73606212 -27.00312371 21.11189203 -26.20703125 13.5390625 C-24.47878569 7.55894007 -21.17835848 4.10544943 -16.20703125 0.5390625 C-11.61658733 -1.75615946 -4.92330377 -1.02822981 0 0 Z M-11.20703125 10.5390625 C-11.86703125 11.8590625 -12.52703125 13.1790625 -13.20703125 14.5390625 C-10.23703125 14.5390625 -7.26703125 14.5390625 -4.20703125 14.5390625 C-4.53703125 13.2190625 -4.86703125 11.8990625 -5.20703125 10.5390625 C-7.18703125 10.5390625 -9.16703125 10.5390625 -11.20703125 10.5390625 Z M-11.20703125 25.5390625 C-11.20703125 26.1990625 -11.20703125 26.8590625 -11.20703125 27.5390625 C-8.89703125 27.5390625 -6.58703125 27.5390625 -4.20703125 27.5390625 C-3.87703125 26.8790625 -3.54703125 26.2190625 -3.20703125 25.5390625 C-5.84703125 25.5390625 -8.48703125 25.5390625 -11.20703125 25.5390625 Z " fill="#0B60D1" transform="translate(236.20703125,129.4609375)"/>
<path d="M0 0 C4.30778357 3.86595962 4.9271229 7.57458023 5.4375 13.1875 C5.55409389 17.16773746 5.53212875 21.14350658 5.5 25.125 C5.49548828 26.19041016 5.49097656 27.25582031 5.48632812 28.35351562 C5.47461787 30.96490291 5.45821724 33.57617124 5.4375 36.1875 C4.38949219 36.24808594 3.34148437 36.30867188 2.26171875 36.37109375 C0.88279952 36.45551738 -0.49610605 36.54016447 -1.875 36.625 C-2.56529297 36.66431641 -3.25558594 36.70363281 -3.96679688 36.74414062 C-7.03411535 36.93677415 -9.63218152 37.21072717 -12.5625 38.1875 C-17.43946193 38.69953903 -21.47007602 38.61666656 -26.0625 36.8125 C-29.67851127 33.01568816 -30.58591811 29.39412541 -30.5625 24.1875 C-29.38781905 19.67824087 -27.57492085 16.92380608 -23.8125 14.1875 C-23.07 13.8575 -22.3275 13.5275 -21.5625 13.1875 C-24.5325 12.6925 -24.5325 12.6925 -27.5625 12.1875 C-27.99844372 7.82806284 -27.85602821 5.67365609 -25.5625 1.875 C-19.15210625 -4.82189179 -7.65795861 -3.89615438 0 0 Z M-15.5625 10.1875 C-15.5625 10.8475 -15.5625 11.5075 -15.5625 12.1875 C-13.5825 12.1875 -11.6025 12.1875 -9.5625 12.1875 C-9.5625 11.5275 -9.5625 10.8675 -9.5625 10.1875 C-11.5425 10.1875 -13.5225 10.1875 -15.5625 10.1875 Z M-15.5625 22.1875 C-15.5625 23.5075 -15.5625 24.8275 -15.5625 26.1875 C-12.0975 25.6925 -12.0975 25.6925 -8.5625 25.1875 C-8.5625 23.5375 -8.5625 21.8875 -8.5625 20.1875 C-12.60872502 19.81769987 -12.60872502 19.81769987 -15.5625 22.1875 Z " fill="#0E61CF" transform="translate(277.5625,130.8125)"/>
<path d="M0 0 C4.62 0 9.24 0 14 0 C14.9765625 2.47395833 15.953125 4.94791667 16.9296875 7.421875 C17.8646709 9.6740248 18.87780794 11.83649459 20 14 C20.27714844 13.07316406 20.55429687 12.14632812 20.83984375 11.19140625 C21.20207031 9.99386719 21.56429688 8.79632813 21.9375 7.5625 C22.29714844 6.36753906 22.65679687 5.17257813 23.02734375 3.94140625 C24 1 24 1 25 0 C27.18639453 -0.07258946 29.37500389 -0.08373783 31.5625 -0.0625 C33.35880859 -0.04896484 33.35880859 -0.04896484 35.19140625 -0.03515625 C36.11824219 -0.02355469 37.04507813 -0.01195312 38 0 C37.74377929 10.12584232 34.07884526 18.88430467 30.5625 28.25 C29.95658267 29.88761439 29.35175624 31.52563285 28.74804688 33.1640625 C27.89692391 35.473518 27.04437581 37.78229996 26.18299866 40.08795166 C25.92610764 40.77596863 25.66921661 41.4639856 25.40454102 42.17285156 C25.18105484 42.76890198 24.95756866 43.36495239 24.72731018 43.97906494 C23.77103773 46.63620432 22.89301997 49.32094009 22 52 C17.05 52 12.1 52 7 52 C7.81380208 48.6796875 8.62760417 45.359375 9.44140625 42.0390625 C11.01643516 33.14852696 8.38289145 25.44445061 5 17.3125 C2.61807223 11.51175633 0.54956844 6.27710199 0 0 Z " fill="#1962C1" transform="translate(417,130)"/>
<path d="M0 0 C1.74216797 0.02707031 1.74216797 0.02707031 3.51953125 0.0546875 C4.39996094 0.07789062 5.28039062 0.10109375 6.1875 0.125 C6.1875 3.755 6.1875 7.385 6.1875 11.125 C5.053125 11.516875 3.91875 11.90875 2.75 12.3125 C-1.01589051 13.71110882 -1.01589051 13.71110882 -1.75 16.8125 C-1.770625 17.575625 -1.79125 18.33875 -1.8125 19.125 C0.4975 19.125 2.8075 19.125 5.1875 19.125 C5.1875 22.755 5.1875 26.385 5.1875 30.125 C1.2275 30.62 1.2275 30.62 -2.8125 31.125 C-2.8125 39.375 -2.8125 47.625 -2.8125 56.125 C-7.1025 56.125 -11.3925 56.125 -15.8125 56.125 C-15.8125 47.545 -15.8125 38.965 -15.8125 30.125 C-17.4625 30.125 -19.1125 30.125 -20.8125 30.125 C-21.8125 29.125 -21.8125 29.125 -21.9453125 27.09375 C-21.94273437 26.2790625 -21.94015625 25.464375 -21.9375 24.625 C-21.94007813 23.8103125 -21.94265625 22.995625 -21.9453125 22.15625 C-21.8125 20.125 -21.8125 20.125 -20.8125 19.125 C-19.14632885 19.08436168 -17.47861905 19.082279 -15.8125 19.125 C-15.85890625 18.48433594 -15.9053125 17.84367187 -15.953125 17.18359375 C-16.21652519 10.87139628 -15.70952103 7.18059485 -11.8125 2.125 C-7.83742465 0.01149163 -4.45296866 -0.08995896 0 0 Z " fill="#0B60D1" transform="translate(410.8125,110.875)"/>
<path d="M0 0 C1.97909398 -0.02686553 3.95828971 -0.04633375 5.9375 -0.0625 C7.03964844 -0.07410156 8.14179688 -0.08570312 9.27734375 -0.09765625 C12 0 12 0 13 1 C13.07179964 2.51928038 13.08392007 4.04167482 13.0625 5.5625 C13.05347656 6.38878906 13.04445313 7.21507813 13.03515625 8.06640625 C13.02355469 8.70449219 13.01195312 9.34257812 13 10 C15.64 10 18.28 10 21 10 C21 13.63 21 17.26 21 21 C18.36 21 15.72 21 13 21 C13 26.28 13 31.56 13 37 C15.64 37 18.28 37 21 37 C21 40.63 21 44.26 21 48 C16.80102108 50.09948946 11.56001667 49.54696419 7 49 C3.76692228 47.38043957 1.63816855 45.2763371 0 42 C-0.08400529 40.40552536 -0.10727467 38.80759455 -0.09765625 37.2109375 C-0.09282227 35.79941406 -0.09282227 35.79941406 -0.08789062 34.359375 C-0.07951172 33.37453125 -0.07113281 32.3896875 -0.0625 31.375 C-0.05798828 30.38242188 -0.05347656 29.38984375 -0.04882812 28.3671875 C-0.03702145 25.9113984 -0.020554 23.45572896 0 21 C-1.98 21 -3.96 21 -6 21 C-6 17.37 -6 13.74 -6 10 C-4.68 9.67 -3.36 9.34 -2 9 C-1.34 6.03 -0.68 3.06 0 0 Z " fill="#0C61D2" transform="translate(309,120)"/>
<path d="M0 0 C4.29 0 8.58 0 13 0 C13 18.48 13 36.96 13 56 C8.71 56 4.42 56 0 56 C0 37.52 0 19.04 0 0 Z " fill="#1861C3" transform="translate(287,111)"/>
<path d="M0 0 C4.62 0 9.24 0 14 0 C17.375 6.75 17.375 6.75 18.16796875 10.7421875 C18.33876953 11.58007812 18.50957031 12.41796875 18.68554688 13.28125 C18.85119141 14.1371875 19.01683594 14.993125 19.1875 15.875 C19.36474609 16.75414062 19.54199219 17.63328125 19.72460938 18.5390625 C20.15739734 20.69130536 20.58229606 22.8447881 21 25 C21.08040527 24.42032471 21.16081055 23.84064941 21.24365234 23.2434082 C21.61423972 20.59880997 21.9945265 17.95569328 22.375 15.3125 C22.56449219 13.94448242 22.56449219 13.94448242 22.7578125 12.54882812 C22.88671875 11.66259766 23.015625 10.77636719 23.1484375 9.86328125 C23.26364746 9.05157471 23.37885742 8.23986816 23.49755859 7.40356445 C24 5 24 5 26 0 C29.96 0 33.92 0 38 0 C39.31025223 2.62050445 38.90119669 4.09387239 38.546875 6.99609375 C38.42352783 8.02162354 38.30018066 9.04715332 38.1730957 10.10375977 C38.03347412 11.20389404 37.89385254 12.30402832 37.75 13.4375 C37.61231201 14.55374756 37.47462402 15.66999512 37.33276367 16.82006836 C36.10483723 26.58288455 34.63064182 36.29710293 33 46 C32.67 46 32.34 46 32 46 C32.01160156 45.18917969 32.02320313 44.37835938 32.03515625 43.54296875 C32.08830913 37.02035114 31.90269169 30.63247815 31.21875 24.14453125 C31 22 31 22 31 20 C30.01 20 29.02 20 28 20 C28.04125 21.051875 28.0825 22.10375 28.125 23.1875 C27.97961434 27.6217627 27.23437032 30.31676774 24.625 33.875 C23 35 23 35 20.8125 34.6875 C20.214375 34.460625 19.61625 34.23375 19 34 C17.875 27.25 17.875 27.25 19 25 C17.35 24.34 15.7 23.68 14 23 C13.96261719 21.96359375 13.92523438 20.9271875 13.88671875 19.859375 C13.82104212 18.48954816 13.75459536 17.11975809 13.6875 15.75 C13.66494141 15.06808594 13.64238281 14.38617188 13.61914062 13.68359375 C13.39466628 9.47980138 12.7929927 7.14492476 10 4 C10 3.34 10 2.68 10 2 C8.54257537 1.91903197 7.08387193 1.86082226 5.625 1.8125 C4.40683594 1.76029297 4.40683594 1.76029297 3.1640625 1.70703125 C2.44992188 1.80371094 1.73578125 1.90039062 1 2 C0.01 3.485 0.01 3.485 -1 5 C-0.67 3.35 -0.34 1.7 0 0 Z " fill="#1161CB" transform="translate(170,112)"/>
<path d="M0 0 C2.05078125 0.03255208 4.1015625 0.06510417 6.15234375 0.09765625 C7.50674043 2.8064496 7.21735826 5.10698893 7.15234375 8.09765625 C6.49234375 8.09765625 5.83234375 8.09765625 5.15234375 8.09765625 C5.03117187 8.76152344 4.91 9.42539063 4.78515625 10.109375 C3.92686667 14.63190084 3.11263064 18.89704149 1.15234375 23.09765625 C0.49234375 23.09765625 -0.16765625 23.09765625 -0.84765625 23.09765625 C-0.95078125 23.81953125 -1.05390625 24.54140625 -1.16015625 25.28515625 C-1.84765625 28.09765625 -1.84765625 28.09765625 -3.41015625 30.41015625 C-5.41546528 34.15921227 -5.06205633 36.88112137 -4.84765625 41.09765625 C-5.50765625 41.09765625 -6.16765625 41.09765625 -6.84765625 41.09765625 C-6.82703125 41.90203125 -6.80640625 42.70640625 -6.78515625 43.53515625 C-6.84765625 46.09765625 -6.84765625 46.09765625 -7.84765625 47.09765625 C-9.51194676 47.19589562 -11.18047556 47.22739256 -12.84765625 47.22265625 C-14.20890625 47.22652344 -14.20890625 47.22652344 -15.59765625 47.23046875 C-17.84765625 47.09765625 -17.84765625 47.09765625 -18.84765625 46.09765625 C-18.97265625 43.59765625 -18.97265625 43.59765625 -18.84765625 41.09765625 C-18.35265625 40.60265625 -18.35265625 40.60265625 -17.84765625 40.09765625 C-17.61283932 37.91472851 -17.43402302 35.72562451 -17.28515625 33.53515625 C-17.20136719 32.33761719 -17.11757813 31.14007813 -17.03125 29.90625 C-16.97066406 28.97941406 -16.91007812 28.05257812 -16.84765625 27.09765625 C-17.50765625 26.76765625 -18.16765625 26.43765625 -18.84765625 26.09765625 C-18.51765625 23.78765625 -18.18765625 21.47765625 -17.84765625 19.09765625 C-17.18765625 19.09765625 -16.52765625 19.09765625 -15.84765625 19.09765625 C-15.84765625 19.75765625 -15.84765625 20.41765625 -15.84765625 21.09765625 C-14.76484375 20.41703125 -14.76484375 20.41703125 -13.66015625 19.72265625 C-10.84765625 18.09765625 -10.84765625 18.09765625 -8.28515625 17.47265625 C-4.32891871 15.24093251 -3.36829379 11.2263146 -1.84765625 7.09765625 C-2.50765625 7.09765625 -3.16765625 7.09765625 -3.84765625 7.09765625 C-2.81269978 0.14866278 -2.81269978 0.14866278 0 0 Z " fill="#1061D0" transform="translate(445.84765625,130.90234375)"/>
<path d="M0 0 C0.99 0 1.98 0 3 0 C3.99455909 2.98367726 4.19559632 5.2004192 4.31640625 8.32421875 C4.35830078 9.35224609 4.40019531 10.38027344 4.44335938 11.43945312 C4.48267578 12.51130859 4.52199219 13.58316406 4.5625 14.6875 C4.60568359 15.77095703 4.64886719 16.85441406 4.69335938 17.97070312 C4.79946838 20.64700791 4.90152361 23.32340526 5 26 C1.06616037 27.31127988 -2.69275089 27.47996049 -6.8125 27.75 C-8.00456055 27.85248047 -8.00456055 27.85248047 -9.22070312 27.95703125 C-14.3376213 28.287155 -17.51208485 27.8040436 -22 25 C-22 24.34 -22 23.68 -22 23 C-23.65 23 -25.3 23 -27 23 C-27 19.7 -27 16.4 -27 13 C-21.87674471 10.54510684 -17.66104589 9.49658297 -12 9 C-12 9.66 -12 10.32 -12 11 C-10.02 11 -8.04 11 -6 11 C-6 9.68 -6 8.36 -6 7 C-5.01 7 -4.02 7 -3 7 C-3 6.34 -3 5.68 -3 5 C-3.66 4.67 -4.32 4.34 -5 4 C-3.35 3.67 -1.7 3.34 0 3 C0 2.01 0 1.02 0 0 Z M-14 14 C-14 15.32 -14 16.64 -14 18 C-10.535 17.505 -10.535 17.505 -7 17 C-7 15.35 -7 13.7 -7 12 C-11.04622502 11.63019987 -11.04622502 11.63019987 -14 14 Z " fill="#1061D0" transform="translate(276,139)"/>
<path d="M0 0 C4.53378039 1.67917792 6.54617346 4.39113273 8.79296875 8.5390625 C10.12095167 12.52301126 10.01628957 16.17960525 10.04296875 20.3515625 C10.06359375 21.14626953 10.08421875 21.94097656 10.10546875 22.75976562 C10.13871204 27.78365763 9.55771603 31.17720393 6.79296875 35.5390625 C2.50769548 39.4225914 -1.37435409 39.71691966 -7.01953125 39.7890625 C-8.82357422 39.82773438 -8.82357422 39.82773438 -10.6640625 39.8671875 C-15.68431831 39.4022465 -18.95219651 37.82875376 -22.45703125 34.2265625 C-26.66455312 27.76501106 -27.05427637 21.08545508 -26.20703125 13.5390625 C-25.15389069 10.54448022 -23.88313559 8.26273206 -22.20703125 5.5390625 C-21.54703125 6.8590625 -20.88703125 8.1790625 -20.20703125 9.5390625 C-21.19703125 9.5390625 -22.18703125 9.5390625 -23.20703125 9.5390625 C-23.20703125 11.1890625 -23.20703125 12.8390625 -23.20703125 14.5390625 C-23.86703125 14.5390625 -24.52703125 14.5390625 -25.20703125 14.5390625 C-24.87703125 16.1890625 -24.54703125 17.8390625 -24.20703125 19.5390625 C-23.87703125 19.5390625 -23.54703125 19.5390625 -23.20703125 19.5390625 C-23.1090625 20.37050781 -23.01109375 21.20195312 -22.91015625 22.05859375 C-22.760625 23.14527344 -22.61109375 24.23195312 -22.45703125 25.3515625 C-22.3178125 26.43050781 -22.17859375 27.50945312 -22.03515625 28.62109375 C-21.43823801 31.57059695 -21.43823801 31.57059695 -19.5 33.3671875 C-16.69358085 34.80147326 -14.40621861 35.18781322 -11.26953125 35.4765625 C-10.24988281 35.58871094 -9.23023438 35.70085937 -8.1796875 35.81640625 C-4.53301438 35.750771 -4.53301438 35.750771 -0.20703125 31.5390625 C-5.15703125 31.2090625 -10.10703125 30.8790625 -15.20703125 30.5390625 C-15.20703125 27.8990625 -15.20703125 25.2590625 -15.20703125 22.5390625 C-7.61703125 22.5390625 -0.02703125 22.5390625 7.79296875 22.5390625 C7.46296875 20.8890625 7.13296875 19.2390625 6.79296875 17.5390625 C5.80296875 17.2090625 4.81296875 16.8790625 3.79296875 16.5390625 C3.76596445 15.08083038 3.74657088 13.62245575 3.73046875 12.1640625 C3.71886719 11.35195312 3.70726562 10.53984375 3.6953125 9.703125 C3.79296875 7.5390625 3.79296875 7.5390625 4.79296875 5.5390625 C1.82296875 5.0440625 1.82296875 5.0440625 -1.20703125 4.5390625 C-1.20703125 3.8790625 -1.20703125 3.2190625 -1.20703125 2.5390625 C-3.62404112 2.68035537 -6.04053554 2.82692737 -8.45703125 2.9765625 C-9.47990234 3.03553711 -9.47990234 3.03553711 -10.5234375 3.09570312 C-13.85151166 3.30572722 -17.00958527 3.55840252 -20.20703125 4.5390625 C-14.38099535 -1.4811746 -8.18097872 -1.70859379 0 0 Z M-11.20703125 25.5390625 C-11.20703125 26.1990625 -11.20703125 26.8590625 -11.20703125 27.5390625 C-8.89703125 27.5390625 -6.58703125 27.5390625 -4.20703125 27.5390625 C-3.87703125 26.8790625 -3.54703125 26.2190625 -3.20703125 25.5390625 C-5.84703125 25.5390625 -8.48703125 25.5390625 -11.20703125 25.5390625 Z " fill="#2165BD" transform="translate(236.20703125,129.4609375)"/>
<path d="M0 0 C4.29 0 8.58 0 13 0 C13 12.21 13 24.42 13 37 C8.71 37 4.42 37 0 37 C0 24.79 0 12.58 0 0 Z " fill="#1861C4" transform="translate(374,130)"/>
<path d="M0 0 C0.99 0 1.98 0 3 0 C3.33 5.94 3.66 11.88 4 18 C5.32 18.66 6.64 19.32 8 20 C8.33 20.99 8.66 21.98 9 23 C8.34 23.66 7.68 24.32 7 25 C6.01 25 5.02 25 4 25 C4 32.92 4 40.84 4 49 C1.36 49 -1.28 49 -4 49 C-4.0246501 43.89136104 -4.04283607 38.78275641 -4.05493164 33.67407227 C-4.05997204 31.93480832 -4.0668043 30.19554864 -4.07543945 28.45629883 C-4.08751792 25.96174063 -4.09323108 23.46723827 -4.09765625 20.97265625 C-4.10281754 20.19036148 -4.10797882 19.40806671 -4.11329651 18.60206604 C-4.11349226 16.73432886 -4.06199694 14.86670796 -4 13 C-3.67 12.67 -3.34 12.34 -3 12 C-2.71693766 9.45243896 -2.55184214 6.90489978 -2.37890625 4.34765625 C-2 2 -2 2 0 0 Z " fill="#0D60D3" transform="translate(340,116)"/>
<path d="M0 0 C4.62 0 9.24 0 14 0 C17.375 6.75 17.375 6.75 18.16796875 10.7421875 C18.33876953 11.58007812 18.50957031 12.41796875 18.68554688 13.28125 C18.85119141 14.1371875 19.01683594 14.993125 19.1875 15.875 C19.36474609 16.75414062 19.54199219 17.63328125 19.72460938 18.5390625 C20.15739734 20.69130536 20.58229606 22.8447881 21 25 C21.08040527 24.42032471 21.16081055 23.84064941 21.24365234 23.2434082 C21.61423972 20.59880997 21.9945265 17.95569328 22.375 15.3125 C22.56449219 13.94448242 22.56449219 13.94448242 22.7578125 12.54882812 C22.88671875 11.66259766 23.015625 10.77636719 23.1484375 9.86328125 C23.26364746 9.05157471 23.37885742 8.23986816 23.49755859 7.40356445 C24 5 24 5 26 0 C29.96 0 33.92 0 38 0 C39.36421031 2.72842061 38.87807211 4.60953318 38.5625 7.625 C38.46066406 8.62789062 38.35882813 9.63078125 38.25390625 10.6640625 C38.17011719 11.43492188 38.08632812 12.20578125 38 13 C37.67 13 37.34 13 37 13 C37 9.04 37 5.08 37 1 C33.7 1 30.4 1 27 1 C26.98541748 1.92337158 26.97083496 2.84674316 26.95581055 3.7980957 C26.89473692 7.22577204 26.8205839 10.65264662 26.73754883 14.07983398 C26.70430577 15.56279854 26.67627177 17.04588944 26.65356445 18.52905273 C26.62000532 20.66184293 26.56769362 22.79347612 26.51171875 24.92578125 C26.48553467 26.20880127 26.45935059 27.49182129 26.43237305 28.8137207 C26 32 26 32 24.60473633 33.96166992 C23 35 23 35 20.8125 34.6875 C20.214375 34.460625 19.61625 34.23375 19 34 C17.875 27.25 17.875 27.25 19 25 C17.35 24.34 15.7 23.68 14 23 C13.96261719 21.96359375 13.92523438 20.9271875 13.88671875 19.859375 C13.82104212 18.48954816 13.75459536 17.11975809 13.6875 15.75 C13.66494141 15.06808594 13.64238281 14.38617188 13.61914062 13.68359375 C13.39466628 9.47980138 12.7929927 7.14492476 10 4 C10 3.34 10 2.68 10 2 C8.54257537 1.91903197 7.08387193 1.86082226 5.625 1.8125 C4.40683594 1.76029297 4.40683594 1.76029297 3.1640625 1.70703125 C2.44992188 1.80371094 1.73578125 1.90039062 1 2 C0.01 3.485 0.01 3.485 -1 5 C-0.67 3.35 -0.34 1.7 0 0 Z " fill="#2063B9" transform="translate(170,112)"/>
<path d="M0 0 C1.79244141 0.01740234 1.79244141 0.01740234 3.62109375 0.03515625 C5.41740234 0.04869141 5.41740234 0.04869141 7.25 0.0625 C8.17683594 0.07410156 9.10367187 0.08570313 10.05859375 0.09765625 C9.80237304 10.22349857 6.13743901 18.98196092 2.62109375 28.34765625 C2.01517642 29.98527064 1.41034999 31.6232891 0.80664062 33.26171875 C-0.04448234 35.57117425 -0.89703044 37.87995621 -1.75840759 40.18560791 C-2.01529861 40.87362488 -2.27218964 41.56164185 -2.53686523 42.27050781 C-2.76035141 42.86655823 -2.98383759 43.46260864 -3.21409607 44.07672119 C-4.17036852 46.73386057 -5.04838628 49.41859634 -5.94140625 52.09765625 C-10.89140625 52.09765625 -15.84140625 52.09765625 -20.94140625 52.09765625 C-20.28140625 48.79765625 -19.62140625 45.49765625 -18.94140625 42.09765625 C-18.61140625 42.09765625 -18.28140625 42.09765625 -17.94140625 42.09765625 C-17.61140625 43.74765625 -17.28140625 45.39765625 -16.94140625 47.09765625 C-13.64140625 47.09765625 -10.34140625 47.09765625 -6.94140625 47.09765625 C-6.61140625 45.44765625 -6.28140625 43.79765625 -5.94140625 42.09765625 C-5.28140625 42.09765625 -4.62140625 42.09765625 -3.94140625 42.09765625 C-4.28171875 40.27234375 -4.28171875 40.27234375 -4.62890625 38.41015625 C-5.14870576 34.3095157 -4.40965017 32.48006459 -1.94140625 29.09765625 C-1.24318008 27.44396268 -0.5664202 25.78038611 0.05859375 24.09765625 C0.71859375 24.09765625 1.37859375 24.09765625 2.05859375 24.09765625 C2.25775391 23.02451172 2.25775391 23.02451172 2.4609375 21.9296875 C3.0463291 19.15577303 3.79017819 16.4946635 4.62109375 13.78515625 C4.89050781 12.90214844 5.15992188 12.01914063 5.4375 11.109375 C5.64246094 10.44550781 5.84742188 9.78164062 6.05859375 9.09765625 C6.71859375 9.09765625 7.37859375 9.09765625 8.05859375 9.09765625 C7.72859375 6.45765625 7.39859375 3.81765625 7.05859375 1.09765625 C4.41859375 1.42765625 1.77859375 1.75765625 -0.94140625 2.09765625 C-1.60140625 4.07765625 -2.26140625 6.05765625 -2.94140625 8.09765625 C-2.28140625 8.09765625 -1.62140625 8.09765625 -0.94140625 8.09765625 C-1.39223094 9.55832824 -1.85234162 11.01613657 -2.31640625 12.47265625 C-2.69925781 13.69082031 -2.69925781 13.69082031 -3.08984375 14.93359375 C-3.94140625 17.09765625 -3.94140625 17.09765625 -5.94140625 19.09765625 C-8.94140625 19.09765625 -8.94140625 19.09765625 -10.62890625 17.53515625 C-12.37557408 14.29134457 -12.15063128 11.7242234 -11.94140625 8.09765625 C-12.60140625 8.09765625 -13.26140625 8.09765625 -13.94140625 8.09765625 C-13.94140625 5.78765625 -13.94140625 3.47765625 -13.94140625 1.09765625 C-12.47488608 3.97784901 -11.12092751 6.8907414 -9.81640625 9.84765625 C-9.46320313 10.646875 -9.11 11.44609375 -8.74609375 12.26953125 C-8.48054688 12.8728125 -8.215 13.47609375 -7.94140625 14.09765625 C-7.66425781 13.17082031 -7.38710938 12.24398437 -7.1015625 11.2890625 C-6.73933594 10.09152344 -6.37710937 8.89398438 -6.00390625 7.66015625 C-5.46443359 5.86771484 -5.46443359 5.86771484 -4.9140625 4.0390625 C-3.6181588 0.12012479 -3.6181588 0.12012479 0 0 Z " fill="#2560B2" transform="translate(444.94140625,129.90234375)"/>
<path d="M0 0 C0.33 0.66 0.66 1.32 1 2 C2.65 2 4.3 2 6 2 C6.04898438 2.85464844 6.09796875 3.70929688 6.1484375 4.58984375 C6.22320312 5.69457031 6.29796875 6.79929688 6.375 7.9375 C6.44460937 9.03964844 6.51421875 10.14179688 6.5859375 11.27734375 C6.72257813 12.17582031 6.85921875 13.07429687 7 14 C7.66 14.33 8.32 14.66 9 15 C10.88625438 21.07793077 12.06911973 26.79264081 10 33 C14.95 33 19.9 33 25 33 C25.33 32.34 25.66 31.68 26 31 C25.67 32.65 25.34 34.3 25 36 C20.05 36 15.1 36 10 36 C7.17200382 30.16624789 5.96833656 24.49259215 4.875 18.125 C4.54243823 16.23117494 4.20667845 14.3379077 3.8671875 12.4453125 C3.72394043 11.61531738 3.58069336 10.78532227 3.43310547 9.93017578 C3.18152442 8.00314604 3.18152442 8.00314604 2 7 C0.35 15.58 -1.3 24.16 -3 33 C-3.33 33 -3.66 33 -4 33 C-4.5638051 6.84570766 -4.5638051 6.84570766 0 0 Z " fill="#2462B4" transform="translate(175,133)"/>
<path d="M0 0 C0.99 0.33 1.98 0.66 3 1 C3.72276881 4.96622597 4.16483404 8.80844744 4.31640625 12.8359375 C4.37924805 14.43115234 4.37924805 14.43115234 4.44335938 16.05859375 C4.48267578 17.15300781 4.52199219 18.24742187 4.5625 19.375 C4.60568359 20.49261719 4.64886719 21.61023438 4.69335938 22.76171875 C4.79897411 25.50770199 4.9010797 28.25376881 5 31 C2.29120665 32.35439668 -0.00933268 32.06501451 -3 32 C-3.16809448 28.25006257 -3.33422759 24.50004074 -3.5 20.75 C-3.54769531 19.68652344 -3.59539062 18.62304688 -3.64453125 17.52734375 C-3.71220703 15.99013672 -3.71220703 15.99013672 -3.78125 14.421875 C-3.8440918 13.00793457 -3.8440918 13.00793457 -3.90820312 11.56542969 C-3.98646933 9.37813904 -4 7.18869047 -4 5 C-5.32 4.34 -6.64 3.68 -8 3 C-7.67 2.34 -7.34 1.68 -7 1 C-5.5459375 1.0309375 -5.5459375 1.0309375 -4.0625 1.0625 C-1.12534105 1.35618499 -1.12534105 1.35618499 0 0 Z " fill="#0B61D4" transform="translate(361,133)"/>
<path d="M0 0 C1.97909398 -0.02686553 3.95828971 -0.04633375 5.9375 -0.0625 C7.03964844 -0.07410156 8.14179688 -0.08570312 9.27734375 -0.09765625 C12 0 12 0 13 1 C13.07179964 2.51928038 13.08392007 4.04167482 13.0625 5.5625 C13.05347656 6.38878906 13.04445313 7.21507813 13.03515625 8.06640625 C13.02355469 8.70449219 13.01195312 9.34257812 13 10 C15.64 10 18.28 10 21 10 C21 13.63 21 17.26 21 21 C18.36 21 15.72 21 13 21 C13 26.28 13 31.56 13 37 C15.64 37 18.28 37 21 37 C21 40.63 21 44.26 21 48 C18.29437257 49.35281371 16.08106345 49.20609362 13.0625 49.25 C11.47115234 49.28867188 11.47115234 49.28867188 9.84765625 49.328125 C7 49 7 49 4 46 C8.95 46.33 13.9 46.66 19 47 C19 44.36 19 41.72 19 39 C16.69 39 14.38 39 12 39 C11.94208156 35.87507749 11.90643254 32.75029234 11.875 29.625 C11.85824219 28.73554688 11.84148437 27.84609375 11.82421875 26.9296875 C11.81777344 26.07890625 11.81132812 25.228125 11.8046875 24.3515625 C11.79421387 23.56604004 11.78374023 22.78051758 11.77294922 21.97119141 C12 20 12 20 14 18 C16.625 17.875 16.625 17.875 19 18 C18.5748108 15.97034802 18.5748108 15.97034802 17 14 C14.34822355 13.01505446 11.79452693 12.54087618 9 12 C9 8.37 9 4.74 9 1 C6.36 1 3.72 1 1 1 C0.67 3.97 0.34 6.94 0 10 C-0.66 9.67 -1.32 9.34 -2 9 C-1.34 6.03 -0.68 3.06 0 0 Z " fill="#2B5FA9" transform="translate(309,120)"/>
<path d="M0 0 C2.32471812 0.92988725 3.73065431 1.6172456 5.1875 3.6875 C7.58603913 10.51411138 7.12005744 17.80480555 7.0625 24.9375 C7.05798828 26.00291016 7.05347656 27.06832031 7.04882812 28.16601562 C7.03711787 30.77740291 7.02071724 33.38867124 7 36 C5.95199219 36.06058594 4.90398437 36.12117188 3.82421875 36.18359375 C2.44529952 36.26801738 1.06639395 36.35266447 -0.3125 36.4375 C-1.00279297 36.47681641 -1.69308594 36.51613281 -2.40429688 36.55664062 C-5.47161535 36.74927415 -8.06968152 37.02322717 -11 38 C-15.87696193 38.51203903 -19.90757602 38.42916656 -24.5 36.625 C-27.98699789 32.96365221 -28.93281815 29.03024105 -29 24 C-28.01 22.515 -28.01 22.515 -27 21 C-27 24.3 -27 27.6 -27 31 C-25.35 31 -23.7 31 -22 31 C-22 31.66 -22 32.32 -22 33 C-16.3025518 35.51301587 -11.18083024 35.0352866 -5.125 34.625 C-4.15046875 34.56828125 -3.1759375 34.5115625 -2.171875 34.453125 C0.2195783 34.31245128 2.60985226 34.1611264 5 34 C4.83701416 33.28432861 4.67402832 32.56865723 4.50610352 31.83129883 C4.00807929 29.04519803 3.8858165 26.52537792 3.90234375 23.69921875 C3.90556641 22.72275391 3.90878906 21.74628906 3.91210938 20.74023438 C3.92467773 19.22913086 3.92467773 19.22913086 3.9375 17.6875 C3.94201172 16.66076172 3.94652344 15.63402344 3.95117188 14.57617188 C3.96291816 12.05072118 3.97934435 9.52539095 4 7 C2.68 6.34 1.36 5.68 0 5 C0 3.35 0 1.7 0 0 Z " fill="#2F5FA0" transform="translate(276,131)"/>
<path d="M0 0 C1.74216797 0.02707031 1.74216797 0.02707031 3.51953125 0.0546875 C4.39996094 0.07789062 5.28039062 0.10109375 6.1875 0.125 C6.1875 3.755 6.1875 7.385 6.1875 11.125 C5.053125 11.516875 3.91875 11.90875 2.75 12.3125 C-1.01589051 13.71110882 -1.01589051 13.71110882 -1.75 16.8125 C-1.770625 17.575625 -1.79125 18.33875 -1.8125 19.125 C0.4975 19.125 2.8075 19.125 5.1875 19.125 C5.1875 22.755 5.1875 26.385 5.1875 30.125 C3.2075 29.795 1.2275 29.465 -0.8125 29.125 C-0.8125 28.795 -0.8125 28.465 -0.8125 28.125 C0.8375 28.125 2.4875 28.125 4.1875 28.125 C4.1875 25.485 4.1875 22.845 4.1875 20.125 C1.8775 20.125 -0.4325 20.125 -2.8125 20.125 C-3.0625 13.5 -3.0625 13.5 -0.8125 10.125 C1.8125 9.9375 1.8125 9.9375 4.1875 10.125 C4.1875 7.485 4.1875 4.845 4.1875 2.125 C2.2287957 2.26576315 0.27053907 2.4127676 -1.6875 2.5625 C-2.77804687 2.64371094 -3.86859375 2.72492188 -4.9921875 2.80859375 C-7.75978971 2.95501703 -7.75978971 2.95501703 -9.8125 4.125 C-10.53409424 5.76863134 -11.20601421 7.43550386 -11.8125 9.125 C-12.4725 9.125 -13.1325 9.125 -13.8125 9.125 C-13.8125 12.755 -13.8125 16.385 -13.8125 20.125 C-15.7925 20.455 -17.7725 20.785 -19.8125 21.125 C-19.8125 23.435 -19.8125 25.745 -19.8125 28.125 C-17.8325 28.455 -15.8525 28.785 -13.8125 29.125 C-13.8125 29.785 -13.8125 30.445 -13.8125 31.125 C-20.6875 30.25 -20.6875 30.25 -21.8125 29.125 C-21.9104057 27.62761876 -21.94224864 26.12557108 -21.9375 24.625 C-21.94007813 23.8103125 -21.94265625 22.995625 -21.9453125 22.15625 C-21.8125 20.125 -21.8125 20.125 -20.8125 19.125 C-19.14632885 19.08436168 -17.47861905 19.082279 -15.8125 19.125 C-15.85890625 18.48433594 -15.9053125 17.84367187 -15.953125 17.18359375 C-16.21652519 10.87139628 -15.70952103 7.18059485 -11.8125 2.125 C-7.83742465 0.01149163 -4.45296866 -0.08995896 0 0 Z " fill="#2E61A8" transform="translate(410.8125,110.875)"/>
<path d="M0 0 C0 0.33 0 0.66 0 1 C-1.27875 1.12375 -2.5575 1.2475 -3.875 1.375 C-7.34790936 1.69042399 -7.34790936 1.69042399 -10 4 C-10.71408334 5.98356483 -11.38617742 7.98315437 -12 10 C-8.77680586 10.14991601 -6.44390284 10.18405727 -3.4375 8.9375 C-0.4915073 7.80442589 1.01443649 8.11240004 4 9 C4.66 9.33 5.32 9.66 6 10 C5.67 11.32 5.34 12.64 5 14 C3.35 14.33 1.7 14.66 0 15 C0 15.99 0 16.98 0 18 C-4.95 19.32 -9.9 20.64 -15 22 C-12.95238679 16.88096696 -12.56484257 16.28242128 -8 14 C-10.97 13.505 -10.97 13.505 -14 13 C-14.42968661 8.70313391 -14.41369759 5.98785452 -11.6875 2.625 C-7.60376152 -1.36376782 -5.35474537 -1.07094907 0 0 Z M-2 11 C-2 11.66 -2 12.32 -2 13 C-0.02 13 1.96 13 4 13 C4 12.34 4 11.68 4 11 C2.02 11 0.04 11 -2 11 Z " fill="#2A5FAA" transform="translate(264,130)"/>
<path d="M0 0 C1.02609375 -0.06316406 2.0521875 -0.12632812 3.109375 -0.19140625 C6.98719523 0.73946353 8.67888192 1.89101918 11.10742188 5.02416992 C13.67902108 10.73718637 12.84530009 17.35722993 12.625 23.5 C12.59486529 24.96153366 12.56749563 26.4231271 12.54296875 27.88476562 C12.47724219 31.44526374 12.37391851 35.00349692 12.25 38.5625 C7.96 38.5625 3.67 38.5625 -0.75 38.5625 C-1.47587534 34.93312331 -1.87079859 32.28628217 -1.84765625 28.69921875 C-1.84443359 27.81298828 -1.84121094 26.92675781 -1.83789062 26.01367188 C-1.82951172 25.10166016 -1.82113281 24.18964844 -1.8125 23.25 C-1.80798828 22.31865234 -1.80347656 21.38730469 -1.79882812 20.42773438 C-1.78709234 18.13925627 -1.77067363 15.85091192 -1.75 13.5625 C0.41926659 16.81639988 0.49080049 17.69645957 0.4453125 21.44921875 C0.43564453 22.8559082 0.43564453 22.8559082 0.42578125 24.29101562 C0.40902344 25.26748047 0.39226562 26.24394531 0.375 27.25 C0.36597656 28.23806641 0.35695313 29.22613281 0.34765625 30.24414062 C0.32408566 32.68369706 0.28821469 35.12312901 0.25 37.5625 C3.55 37.5625 6.85 37.5625 10.25 37.5625 C10.10766209 34.10399162 9.96121743 30.64573527 9.8125 27.1875 C9.77318359 26.22199219 9.73386719 25.25648438 9.69335938 24.26171875 C9.48515465 19.48902593 9.22964568 14.72251802 8.83984375 9.9609375 C8.77531006 9.16091309 8.71077637 8.36088867 8.64428711 7.53662109 C8.39491833 5.33747309 8.39491833 5.33747309 6.25 3.5625 C3.88490639 3.26190057 1.50558119 3.06734988 -0.875 2.9375 C-2.79699219 2.82535156 -2.79699219 2.82535156 -4.7578125 2.7109375 C-6.23894531 2.63746094 -6.23894531 2.63746094 -7.75 2.5625 C-5.115064 -0.072436 -3.67741954 0.14179105 0 0 Z " fill="#2A5C9D" transform="translate(356.75,128.4375)"/>
<path d="M0 0 C4.29 0 8.58 0 13 0 C13 3.96 13 7.92 13 12 C8.71 12 4.42 12 0 12 C0 8.04 0 4.08 0 0 Z " fill="#2360B2" transform="translate(374,114)"/>
<path d="M0 0 C3.3 0 6.6 0 10 0 C10 3.96 10 7.92 10 12 C6 13 6 13 3 12 C2.67 12.99 2.34 13.98 2 15 C1.34 15 0.68 15 0 15 C-0.75612577 9.76528314 -1.2063366 5.22745859 0 0 Z " fill="#0E62CE" transform="translate(197,113)"/>
<path d="M0 0 C1.79240663 0.11389875 3.58394835 0.24147687 5.375 0.375 C6.87160156 0.47941406 6.87160156 0.47941406 8.3984375 0.5859375 C11 1 11 1 13 3 C12.0925 3.28875 11.185 3.5775 10.25 3.875 C7.11697634 4.85309428 7.11697634 4.85309428 4.875 6.1875 C2.52437854 7.20610263 1.36651218 6.84518292 -1 6 C-1.33 6.99 -1.66 7.98 -2 9 C-0.68 9.33 0.64 9.66 2 10 C-2.88077452 12.44038726 -5.52667068 13.46845421 -11 12 C-9.25 5.25 -9.25 5.25 -7 3 C-5.989375 2.835 -4.97875 2.67 -3.9375 2.5 C-2.4834375 2.2525 -2.4834375 2.2525 -1 2 C-0.67 1.34 -0.34 0.68 0 0 Z " fill="#1462C8" transform="translate(263,128)"/>
<path d="M0 0 C4.00972202 3.67557852 6.45335415 7.18966896 9 12 C7.68 12 6.36 12 5 12 C5 10.35 5 8.7 5 7 C4.01 7 3.02 7 2 7 C2.05220703 8.24716797 2.05220703 8.24716797 2.10546875 9.51953125 C2.13253906 10.60621094 2.15960938 11.69289063 2.1875 12.8125 C2.23970703 14.43091797 2.23970703 14.43091797 2.29296875 16.08203125 C2 19 2 19 0.48828125 20.88671875 C-0.00285156 21.25410156 -0.49398437 21.62148437 -1 22 C-1.66 21.67 -2.32 21.34 -3 21 C-2.505 20.67 -2.01 20.34 -1.5 20 C0.95824727 16.72233698 0.38318872 14.0234816 0 10 C-3.57470457 7.61686362 -4.78553535 7.35162082 -9 8 C-12.75206162 10.47792403 -15.51041477 13.26562216 -18 17 C-19.5 18.6875 -19.5 18.6875 -21 20 C-21.66 20 -22.32 20 -23 20 C-23.33 20.99 -23.66 21.98 -24 23 C-24.33 22.01 -24.66 21.02 -25 20 C-24.195625 19.236875 -23.39125 18.47375 -22.5625 17.6875 C-19.83200976 15.20569102 -19.83200976 15.20569102 -19 12 C-16 10 -16 10 -13 9 C-13 8.01 -13 7.02 -13 6 C-8.71 6 -4.42 6 0 6 C0 4.02 0 2.04 0 0 Z " fill="#1C82A8" transform="translate(126,113)"/>
<path d="M0 0 C0.66 1.32 1.32 2.64 2 4 C1.01 4 0.02 4 -1 4 C-1 5.65 -1 7.3 -1 9 C-1.66 9 -2.32 9 -3 9 C-2.67 10.65 -2.34 12.3 -2 14 C-1.67 14 -1.34 14 -1 14 C-0.91363281 14.81984375 -0.82726562 15.6396875 -0.73828125 16.484375 C-0.59777344 17.56203125 -0.45726562 18.6396875 -0.3125 19.75 C-0.18488281 20.81734375 -0.05726563 21.8846875 0.07421875 22.984375 C1.28947082 26.94291761 2.38132788 27.9854815 6 30 C9.25405317 30.73320551 12.48963251 31.01212134 15.8125 31.25 C16.69615234 31.32734375 17.57980469 31.4046875 18.49023438 31.484375 C20.65885709 31.67193156 22.82931082 31.83810365 25 32 C21.36780895 34.4214607 19.50841442 34.29869516 15.1875 34.3125 C13.98480469 34.32925781 12.78210938 34.34601563 11.54296875 34.36328125 C6.53703348 33.84999351 3.25062657 32.28536619 -0.25 28.6875 C-4.45752187 22.22594856 -4.84724512 15.54639258 -4 8 C-2.94685944 5.00541772 -1.67610434 2.72366956 0 0 Z " fill="#2D61AA" transform="translate(214,135)"/>
<path d="M0 0 C1.37478516 0.01740234 1.37478516 0.01740234 2.77734375 0.03515625 C3.69644531 0.04417969 4.61554688 0.05320312 5.5625 0.0625 C6.27277344 0.07410156 6.98304688 0.08570312 7.71484375 0.09765625 C7.75222656 1.36222656 7.78960937 2.62679687 7.828125 3.9296875 C7.89378208 5.58987355 7.96022951 7.25002847 8.02734375 8.91015625 C8.04990234 9.74353516 8.07246094 10.57691406 8.09570312 11.43554688 C8.13115234 12.23798828 8.16660156 13.04042969 8.203125 13.8671875 C8.22930908 14.60557861 8.25549316 15.34396973 8.2824707 16.10473633 C8.81717338 18.56932016 9.81449722 19.49817949 11.71484375 21.09765625 C10.39484375 21.09765625 9.07484375 21.09765625 7.71484375 21.09765625 C6.5966056 18.86117994 6.52088314 17.44874096 6.3984375 14.96484375 C6.3355957 13.75634766 6.3355957 13.75634766 6.27148438 12.5234375 C6.23216797 11.68167969 6.19285156 10.83992188 6.15234375 9.97265625 C6.08756836 8.69841797 6.08756836 8.69841797 6.02148438 7.3984375 C5.91530139 5.29837402 5.81455878 3.19803677 5.71484375 1.09765625 C3.73484375 1.09765625 1.75484375 1.09765625 -0.28515625 1.09765625 C-0.28515625 1.75765625 -0.28515625 2.41765625 -0.28515625 3.09765625 C-0.94515625 3.09765625 -1.60515625 3.09765625 -2.28515625 3.09765625 C-2.28515625 19.59765625 -2.28515625 36.09765625 -2.28515625 53.09765625 C0.68484375 53.09765625 3.65484375 53.09765625 6.71484375 53.09765625 C6.71484375 51.11765625 6.71484375 49.13765625 6.71484375 47.09765625 C7.04484375 47.09765625 7.37484375 47.09765625 7.71484375 47.09765625 C7.71484375 49.40765625 7.71484375 51.71765625 7.71484375 54.09765625 C4.08484375 54.09765625 0.45484375 54.09765625 -3.28515625 54.09765625 C-3.30979657 46.56795493 -3.32798766 39.03827686 -3.34008789 31.50854492 C-3.34512995 28.94473868 -3.35196339 26.38093534 -3.3605957 23.81713867 C-3.37266689 20.14110604 -3.37838567 16.46511127 -3.3828125 12.7890625 C-3.38797379 11.63491348 -3.39313507 10.48076447 -3.39845276 9.29164124 C-3.39852829 8.23061691 -3.39860382 7.16959259 -3.39868164 6.07641602 C-3.40090225 5.13709732 -3.40312286 4.19777863 -3.40541077 3.22999573 C-3.23720382 0.24736924 -2.99005127 0.12777997 0 0 Z " fill="#1D5DAE" transform="translate(338.28515625,111.90234375)"/>
<path d="M0 0 C1.32 0.33 2.64 0.66 4 1 C3.67 2.98 3.34 4.96 3 7 C4.65 7.33 6.3 7.66 8 8 C8.06058594 9.26714844 8.12117188 10.53429687 8.18359375 11.83984375 C8.26808565 13.53906964 8.35272919 15.238288 8.4375 16.9375 C8.47681641 17.76830078 8.51613281 18.59910156 8.55664062 19.45507812 C8.83730769 25.00365014 9.33760065 30.48371637 10 36 C8.015625 34.671875 8.015625 34.671875 6 32 C5.48443046 28.40931746 5.62473718 24.86816829 5.75 21.25 C5.76804687 20.26644531 5.78609375 19.28289062 5.8046875 18.26953125 C5.85175874 15.84536217 5.91749258 13.42317941 6 11 C4.02 11 2.04 11 0 11 C0 7.37 0 3.74 0 0 Z " fill="#2961AE" transform="translate(303,130)"/>
<path d="M0 0 C2 2 2 2 2.1953125 3.9453125 C2.13020833 5.96354167 2.06510417 7.98177083 2 10 C2.66 10 3.32 10 4 10 C4.04898438 10.63808594 4.09796875 11.27617187 4.1484375 11.93359375 C4.22320312 12.75988281 4.29796875 13.58617187 4.375 14.4375 C4.44460937 15.26121094 4.51421875 16.08492187 4.5859375 16.93359375 C4.72257813 17.61550781 4.85921875 18.29742187 5 19 C5.66 19.33 6.32 19.66 7 20 C6.93489583 21.953125 6.86979167 23.90625 6.8046875 25.859375 C7.04597833 28.50392253 7.33966066 29.8969035 9 32 C12.10930941 32.70672206 12.10930941 32.70672206 15.625 32.75 C17.40777344 32.83507812 17.40777344 32.83507812 19.2265625 32.921875 C20.14179688 32.94765625 21.05703125 32.9734375 22 33 C21.67 33.66 21.34 34.32 21 35 C16.05 35 11.1 35 6 35 C4.16030134 28.07922885 2.5795183 21.16986705 1.3125 14.125 C1.18125732 13.412229 1.05001465 12.69945801 0.91479492 11.96508789 C0.20921575 7.9289479 -0.13479843 4.09530453 0 0 Z " fill="#2662B3" transform="translate(149,134)"/>
<path d="M0 0 C1.97909398 -0.02686553 3.95828971 -0.04633375 5.9375 -0.0625 C7.03964844 -0.07410156 8.14179688 -0.08570312 9.27734375 -0.09765625 C12 0 12 0 13 1 C13.07205511 2.68608966 13.08386068 4.37500659 13.0625 6.0625 C13.05347656 6.98160156 13.04445313 7.90070313 13.03515625 8.84765625 C13.02355469 9.55792969 13.01195312 10.26820313 13 11 C15.31 11 17.62 11 20 11 C20 13.64 20 16.28 20 19 C17.69 19.33 15.38 19.66 13 20 C13.33 19.34 13.66 18.68 14 18 C15.65 18 17.3 18 19 18 C18.5748108 15.97034802 18.5748108 15.97034802 17 14 C14.34822355 13.01505446 11.79452693 12.54087618 9 12 C9 8.37 9 4.74 9 1 C6.36 1 3.72 1 1 1 C0.67 3.97 0.34 6.94 0 10 C-0.66 9.67 -1.32 9.34 -2 9 C-1.34 6.03 -0.68 3.06 0 0 Z " fill="#2264BD" transform="translate(309,120)"/>
<path d="M0 0 C1.32 0.66 2.64 1.32 4 2 C3.01 2 2.02 2 1 2 C1 10.25 1 18.5 1 27 C-3.29 27 -7.58 27 -12 27 C-12 19.08 -12 11.16 -12 3 C-11.34 3 -10.68 3 -10 3 C-10 10.26 -10 17.52 -10 25 C-6.7 25 -3.4 25 0 25 C-0.05329468 23.91730835 -0.05329468 23.91730835 -0.10766602 22.81274414 C-0.264642 19.56289576 -0.41367651 16.31273147 -0.5625 13.0625 C-0.61857422 11.92619141 -0.67464844 10.78988281 -0.73242188 9.61914062 C-0.78076172 8.53955078 -0.82910156 7.45996094 -0.87890625 6.34765625 C-0.9260376 5.34742432 -0.97316895 4.34719238 -1.02172852 3.31665039 C-1 1 -1 1 0 0 Z " fill="#1F559E" transform="translate(407,140)"/>
<path d="M0 0 C1.09570312 0.00902344 2.19140625 0.01804687 3.3203125 0.02734375 C4.16335938 0.03894531 5.00640625 0.05054687 5.875 0.0625 C5.875 2.7025 5.875 5.3425 5.875 8.0625 C4.225 8.3925 2.575 8.7225 0.875 9.0625 C0.215 11.7025 -0.445 14.3425 -1.125 17.0625 C-1.455 17.0625 -1.785 17.0625 -2.125 17.0625 C-2.30335515 12.51444365 -2.12285435 9.1830746 -0.125 5.0625 C0.865 5.0625 1.855 5.0625 2.875 5.0625 C2.545 4.4025 2.215 3.7425 1.875 3.0625 C-0.44656597 2.65520772 -2.7818787 2.31811323 -5.125 2.0625 C-5.125 3.3825 -5.125 4.7025 -5.125 6.0625 C-6.115 6.5575 -6.115 6.5575 -7.125 7.0625 C-7.785 6.7325 -8.445 6.4025 -9.125 6.0625 C-9.87741109 9.71706815 -10.52549704 13.37983897 -11.125 17.0625 C-11.455 17.0625 -11.785 17.0625 -12.125 17.0625 C-12.125 13.7625 -12.125 10.4625 -12.125 7.0625 C-11.465 7.0625 -10.805 7.0625 -10.125 7.0625 C-9.83625 6.093125 -9.5475 5.12375 -9.25 4.125 C-7.40936223 -0.88562505 -4.90508738 -0.05218178 0 0 Z " fill="#1961C3" transform="translate(409.125,112.9375)"/>
<path d="M0 0 C0.99 0 1.98 0 3 0 C3.19335938 0.56589844 3.38671875 1.13179687 3.5859375 1.71484375 C3.84632813 2.44832031 4.10671875 3.18179688 4.375 3.9375 C4.63023437 4.66839844 4.88546875 5.39929688 5.1484375 6.15234375 C5.85271413 8.18682116 5.85271413 8.18682116 8 9 C8 7.68 8 6.36 8 5 C8.99 5 9.98 5 11 5 C9.125 11.875 9.125 11.875 8 13 C7.62947661 18.17735677 7.62947661 18.17735677 9 23 C9.2275015 24.87056791 9.40962811 26.74685958 9.5625 28.625 C9.64628906 29.62789062 9.73007813 30.63078125 9.81640625 31.6640625 C9.87699219 32.43492187 9.93757812 33.20578125 10 34 C9.01 34 8.02 34 7 34 C7.02320313 33.3709375 7.04640625 32.741875 7.0703125 32.09375 C7.19184081 26.32983602 6.63773706 21.52736258 5 16 C4.34 16 3.68 16 3 16 C3 11.71 3 7.42 3 3 C1.35 3 -0.3 3 -2 3 C-1.34 2.01 -0.68 1.02 0 0 Z " fill="#1563C5" transform="translate(178,132)"/>
<path d="M0 0 C1.39820012 0.90737699 2.74136379 1.89893963 4.06640625 2.91015625 C2.06640625 3.91015625 2.06640625 3.91015625 -1.05859375 2.97265625 C-2.00734375 2.62203125 -2.95609375 2.27140625 -3.93359375 1.91015625 C-3.93359375 1.25015625 -3.93359375 0.59015625 -3.93359375 -0.08984375 C-9.83675253 -1.11435891 -15.57491035 -1.23998528 -21.55859375 -1.21484375 C-22.48671875 -1.21871094 -23.41484375 -1.22257812 -24.37109375 -1.2265625 C-25.27085938 -1.22527344 -26.170625 -1.22398438 -27.09765625 -1.22265625 C-27.9067041 -1.22152832 -28.71575195 -1.22040039 -29.54931641 -1.21923828 C-32.08916013 -1.08140118 -34.45412516 -0.64457045 -36.93359375 -0.08984375 C-36.93359375 0.57015625 -36.93359375 1.23015625 -36.93359375 1.91015625 C-38.91359375 2.24015625 -40.89359375 2.57015625 -42.93359375 2.91015625 C-33.43926338 -7.77862213 -11.53732903 -6.50285818 0 0 Z " fill="#258AAC" transform="translate(116.93359375,105.08984375)"/>
<path d="M0 0 C0 0.99 0 1.98 0 3 C-0.66 3 -1.32 3 -2 3 C-2.12375 3.763125 -2.2475 4.52625 -2.375 5.3125 C-3 8 -3 8 -5 11 C-5.66 11 -6.32 11 -7 11 C-7.66 10.34 -8.32 9.68 -9 9 C-9.66 8.67 -10.32 8.34 -11 8 C-11 7.01 -11 6.02 -11 5 C-10.34 5 -9.68 5 -9 5 C-8.67 3.35 -8.34 1.7 -8 0 C-4.94736336 -0.98120464 -3.05263664 -0.98120464 0 0 Z " fill="#0A60D6" transform="translate(261,151)"/>
<path d="M0 0 C0.66 0 1.32 0 2 0 C2 0.66 2 1.32 2 2 C2.70125 1.79375 3.4025 1.5875 4.125 1.375 C7.60186072 0.92149643 9.77398123 1.72459723 13 3 C13 4.98 13 6.96 13 9 C12.34 8.34 11.68 7.68 11 7 C8 6.58333333 8 6.58333333 5 7 C4.01 8.485 4.01 8.485 3 10 C2.34 10 1.68 10 1 10 C0.67 6.7 0.34 3.4 0 0 Z " fill="#1262C8" transform="translate(220,134)"/>
<path d="M0 0 C0.33 0 0.66 0 1 0 C1.33 1.65 1.66 3.3 2 5 C5.63 5 9.26 5 13 5 C13 6.65 13 8.3 13 10 C8.05 10 3.1 10 -2 10 C-1.34 6.7 -0.68 3.4 0 0 Z " fill="#1E61BA" transform="translate(426,172)"/>
<path d="M0 0 C2.64 0 5.28 0 8 0 C8 0.33 8 0.66 8 1 C6.2984375 1.4640625 6.2984375 1.4640625 4.5625 1.9375 C1.21224901 2.62924531 1.21224901 2.62924531 0 4 C-0.60098739 7.68104777 -0.66100782 10.06005027 1.52734375 13.171875 C2.77929588 14.57488065 4.0601361 15.95274601 5.37109375 17.30078125 C7 19 7 19 8 21 C6.02 21 4.04 21 2 21 C2.33 19.68 2.66 18.36 3 17 C1.35 16.67 -0.3 16.34 -2 16 C-2.8723412 13.00519083 -3.10829766 10.36424089 -3.0625 7.25 C-3.05347656 6.45078125 -3.04445312 5.6515625 -3.03515625 4.828125 C-3.02355469 4.22484375 -3.01195312 3.6215625 -3 3 C-2.34 3 -1.68 3 -1 3 C-0.67 2.01 -0.34 1.02 0 0 Z " fill="#2281A4" transform="translate(66,137)"/>
<path d="M0 0 C4.62 0 9.24 0 14 0 C14 0.33 14 0.66 14 1 C10.7 1 7.4 1 4 1 C4.33 2.32 4.66 3.64 5 5 C6.00132385 9.44954472 6.16539161 13.4517307 6 18 C3.52621876 15.52621876 2.96861769 13.43825655 1.875 10.125 C1.52179688 9.07570312 1.16859375 8.02640625 0.8046875 6.9453125 C0 4 0 4 0 0 Z " fill="#2462AB" transform="translate(417,130)"/>
<path d="M0 0 C3.96 0 7.92 0 12 0 C13.36421031 2.72842061 12.87807211 4.60953318 12.5625 7.625 C12.46066406 8.62789062 12.35882813 9.63078125 12.25390625 10.6640625 C12.17011719 11.43492188 12.08632812 12.20578125 12 13 C11.67 13 11.34 13 11 13 C11 9.04 11 5.08 11 1 C7.7 1 4.4 1 1 1 C-0.0390378 5.42682491 -0.31592951 9.78934632 -0.5625 14.3125 C-0.60568359 15.05306641 -0.64886719 15.79363281 -0.69335938 16.55664062 C-0.79870432 18.37091464 -0.89978316 20.1854355 -1 22 C-1.99 22.33 -2.98 22.66 -4 23 C-3.71722382 20.10304831 -3.42412587 17.2077705 -3.125 14.3125 C-3.04636719 13.49587891 -2.96773437 12.67925781 -2.88671875 11.83789062 C-2.80292969 11.04189453 -2.71914062 10.24589844 -2.6328125 9.42578125 C-2.55949707 8.69786377 -2.48618164 7.96994629 -2.41064453 7.2199707 C-2 5 -2 5 0 0 Z " fill="#2B60A7" transform="translate(196,112)"/>
<path d="M0 0 C0.66 0.33 1.32 0.66 2 1 C2 1.99 2 2.98 2 4 C-2.95 5.32 -7.9 6.64 -13 8 C-10.25375107 1.13437768 -7.35984286 -0.65420825 0 0 Z " fill="#2762BB" transform="translate(262,144)"/>
<path d="M0 0 C4.27148471 4.27148471 3.24837353 11.12025558 3.25097656 16.8293457 C3.12908281 24.92142837 1.81024469 31.98940205 -4 38 C-4 36.35 -4 34.7 -4 33 C-3.34 33 -2.68 33 -2 33 C-1.86722656 32.28972656 -1.73445312 31.57945312 -1.59765625 30.84765625 C-1.42105469 29.92855469 -1.24445313 29.00945312 -1.0625 28.0625 C-0.88847656 27.14597656 -0.71445313 26.22945312 -0.53515625 25.28515625 C0 23 0 23 1 22 C1.34067242 14.61542437 1.16803601 7.30022508 0 0 Z " fill="#2B86AC" transform="translate(135,127)"/>
<path d="M0 0 C0.33 0 0.66 0 1 0 C1.28144331 7.1768045 0.19770859 13.93513785 -1 21 C-1.19078125 22.15628906 -1.3815625 23.31257813 -1.578125 24.50390625 C-2.04639421 27.33693496 -2.52049091 30.16885589 -3 33 C-3.33 33 -3.66 33 -4 33 C-4.02895976 29.87501937 -4.04678483 26.7500731 -4.0625 23.625 C-4.07087891 22.73554688 -4.07925781 21.84609375 -4.08789062 20.9296875 C-4.09111328 20.07890625 -4.09433594 19.228125 -4.09765625 18.3515625 C-4.10289307 17.56604004 -4.10812988 16.78051758 -4.11352539 15.97119141 C-4 14 -4 14 -3 12 C-2.34 12 -1.68 12 -1 12 C-1.01160156 11.21753906 -1.02320313 10.43507812 -1.03515625 9.62890625 C-1.04417969 8.61699219 -1.05320313 7.60507813 -1.0625 6.5625 C-1.07410156 5.55316406 -1.08570313 4.54382813 -1.09765625 3.50390625 C-1 1 -1 1 0 0 Z " fill="#2E62AD" transform="translate(206,125)"/>
<path d="M0 0 C6.75 -0.125 6.75 -0.125 9 1 C8.67 3.64 8.34 6.28 8 9 C7.67 8.34 7.34 7.68 7 7 C5.02 7 3.04 7 1 7 C0.67 4.69 0.34 2.38 0 0 Z " fill="#0E61D1" transform="translate(421,131)"/>
<path d="M0 0 C1.90234375 0.828125 1.90234375 0.828125 4.65234375 2.328125 C4.32234375 2.988125 3.99234375 3.648125 3.65234375 4.328125 C2.66234375 3.998125 1.67234375 3.668125 0.65234375 3.328125 C0.65234375 2.668125 0.65234375 2.008125 0.65234375 1.328125 C-2.09805458 1.63739468 -4.84793803 1.9504134 -7.59765625 2.265625 C-8.76361328 2.39614258 -8.76361328 2.39614258 -9.953125 2.52929688 C-11.08427734 2.65981445 -11.08427734 2.65981445 -12.23828125 2.79296875 C-12.92954102 2.871521 -13.62080078 2.95007324 -14.33300781 3.03100586 C-16.38460938 3.33357483 -18.3454816 3.79224884 -20.34765625 4.328125 C-14.63630929 -1.57360019 -8.00751022 -2.29166682 0 0 Z " fill="#2660AD" transform="translate(236.34765625,129.671875)"/>
<path d="M0 0 C1.79240663 0.11389875 3.58394835 0.24147687 5.375 0.375 C6.87160156 0.47941406 6.87160156 0.47941406 8.3984375 0.5859375 C11 1 11 1 13 3 C12.0925 3.28875 11.185 3.5775 10.25 3.875 C7.10576881 4.84378465 7.10576881 4.84378465 4.875 6.25 C3 7 3 7 0.75 6.125 C0.1725 5.75375 -0.405 5.3825 -1 5 C-0.67 3.35 -0.34 1.7 0 0 Z " fill="#1E63C1" transform="translate(263,128)"/>
<path d="M0 0 C0.99 0.99 1.98 1.98 3 3 C2.67515625 3.80050781 2.67515625 3.80050781 2.34375 4.6171875 C0.35897964 9.92828597 -0.25567151 14.27245919 0.08984375 19.93359375 C0 22 0 22 -2 24 C-2.33 21.69 -2.66 19.38 -3 17 C-3.33 17 -3.66 17 -4 17 C-4 14.69 -4 12.38 -4 10 C-3.34 10 -2.68 10 -2 10 C-2 8.35 -2 6.7 -2 5 C-1.34 4.67 -0.68 4.34 0 4 C0 2.68 0 1.36 0 0 Z " fill="#1C60C0" transform="translate(215,134)"/>
<path d="M0 0 C3.01780781 0.9123605 5.66249171 1.78757826 8.33984375 3.47265625 C14.71762187 7.13449361 22.74769969 8.17587497 30 9 C30 9.33 30 9.66 30 10 C18.77745324 10.56112734 8.74646523 8.37706916 0 1 C0 0.67 0 0.34 0 0 Z " fill="#298BAE" transform="translate(71,174)"/>
<path d="M0 0 C0.33 0.99 0.66 1.98 1 3 C-2.26760563 8.63380282 -2.26760563 8.63380282 -5 10 C-5.66 9.67 -6.32 9.34 -7 9 C-7 9.66 -7 10.32 -7 11 C-9.40545638 12.20272819 -10.94996953 12.10071472 -13.625 12.0625 C-14.85089844 12.04896484 -14.85089844 12.04896484 -16.1015625 12.03515625 C-17.04128906 12.01775391 -17.04128906 12.01775391 -18 12 C-18.33 11.34 -18.66 10.68 -19 10 C-17.845 10.144375 -16.69 10.28875 -15.5 10.4375 C-10.54429725 10.47270926 -8.20040069 8.15130046 -4.76171875 4.82421875 C-4.18035156 4.22222656 -3.59898438 3.62023437 -3 3 C-2 2 -1 1 0 0 Z " fill="#288CA9" transform="translate(101,156)"/>
<path d="M0 0 C3.875 1.875 3.875 1.875 5 3 C5.08748207 4.92667507 5.10697334 6.85651861 5.09765625 8.78515625 C5.09443359 9.95498047 5.09121094 11.12480469 5.08789062 12.33007812 C5.07951172 13.56177734 5.07113281 14.79347656 5.0625 16.0625 C5.05798828 17.29806641 5.05347656 18.53363281 5.04882812 19.80664062 C5.03699608 22.87114117 5.02051173 25.93554721 5 29 C4.67 29 4.34 29 4 29 C4 21.74 4 14.48 4 7 C2.68 6.34 1.36 5.68 0 5 C0 3.35 0 1.7 0 0 Z " fill="#2861B4" transform="translate(276,131)"/>
<path d="M0 0 C0.33 0 0.66 0 1 0 C1 3.3 1 6.6 1 10 C2.65 10 4.3 10 6 10 C6 10.66 6 11.32 6 12 C7.98 12.66 9.96 13.32 12 14 C12 14.33 12 14.66 12 15 C3.82285714 15.61714286 3.82285714 15.61714286 1 13.5 C-0.7921795 9.01955125 -1.55574922 4.66724767 0 0 Z " fill="#2562B3" transform="translate(248,152)"/>
<path d="M0 0 C4.95 0 9.9 0 15 0 C15 0.66 15 1.32 15 2 C10.71 2 6.42 2 2 2 C2 3.32 2 4.64 2 6 C4.97 6 7.94 6 11 6 C11 6.33 11 6.66 11 7 C9.35425434 7.02688151 7.70838587 7.04634123 6.0625 7.0625 C5.14597656 7.07410156 4.22945312 7.08570313 3.28515625 7.09765625 C1 7 1 7 0 6 C0 4.02 0 2.04 0 0 Z " fill="#1E5EB2" transform="translate(222,152)"/>
<path d="M0 0 C3.48974252 5.23461377 3.401986 11.86938177 2.61328125 18.01171875 C2.14012257 20.36408922 1.62039801 22.68248016 1 25 C0.67 25 0.34 25 0 25 C0 16.75 0 8.5 0 0 Z " fill="#5287AF" transform="translate(145,130)"/>
<path d="M0 0 C0 0.33 0 0.66 0 1 C-1.27875 1.12375 -2.5575 1.2475 -3.875 1.375 C-7.34790936 1.69042399 -7.34790936 1.69042399 -10 4 C-10.71408334 5.98356483 -11.38617742 7.98315437 -12 10 C-9.525 10.99 -9.525 10.99 -7 12 C-7 12.33 -7 12.66 -7 13 C-9.31 13 -11.62 13 -14 13 C-14.42968661 8.70313391 -14.41369759 5.98785452 -11.6875 2.625 C-7.60376152 -1.36376782 -5.35474537 -1.07094907 0 0 Z " fill="#2F63A8" transform="translate(264,130)"/>
<path d="M0 0 C0 3 0 3 -1 5 C-1.66 5 -2.32 5 -3 5 C-3 5.99 -3 6.98 -3 8 C-3.639375 8.28875 -4.27875 8.5775 -4.9375 8.875 C-7.15206079 9.82823451 -7.15206079 9.82823451 -8 12 C-8.66 12 -9.32 12 -10 12 C-10 12.66 -10 13.32 -10 14 C-11.32 14 -12.64 14 -14 14 C-13.67 13.01 -13.34 12.02 -13 11 C-12.360625 10.690625 -11.72125 10.38125 -11.0625 10.0625 C-8.85695641 9.19247652 -8.85695641 9.19247652 -8.125 7.125 C-6.48193732 4.02143716 -3.93853595 2.8131392 -1 1 C-0.67 0.67 -0.34 0.34 0 0 Z " fill="#2C819B" transform="translate(99,135)"/>
<path d="M0 0 C4.29 0 8.58 0 13 0 C13 1.98 13 3.96 13 6 C12.67 6 12.34 6 12 6 C12 4.35 12 2.7 12 1 C10.37399059 1.0870005 8.74910322 1.1951781 7.125 1.3125 C5.76761719 1.39951172 5.76761719 1.39951172 4.3828125 1.48828125 C1.63778399 1.7882039 1.63778399 1.7882039 0 5 C-0.59321869 6.88033997 -1.13095819 8.77870208 -1.625 10.6875 C-1.88539063 11.68136719 -2.14578125 12.67523438 -2.4140625 13.69921875 C-2.60742188 14.45847656 -2.80078125 15.21773437 -3 16 C-3.66 16 -4.32 16 -5 16 C-4.54762239 14.08191891 -4.08785537 12.16557967 -3.625 10.25 C-3.24214844 8.64898437 -3.24214844 8.64898437 -2.8515625 7.015625 C-2 4 -2 4 0 0 Z " fill="#3362A8" transform="translate(442,130)"/>
<path d="M0 0 C0.33 0 0.66 0 1 0 C1.3155715 7.66721877 1.47698725 14.04602549 -2 21 C-2.66 21.33 -3.32 21.66 -4 22 C-2.68 14.74 -1.36 7.48 0 0 Z " fill="#2263B4" transform="translate(168,117)"/>
<path d="M0 0 C0 2.97 0 5.94 0 9 C-2.31 8.34 -4.62 7.68 -7 7 C-7 5.35 -7 3.7 -7 2 C-1.125 0 -1.125 0 0 0 Z " fill="#1162CD" transform="translate(385,115)"/>
<path d="M0 0 C1.77504706 3.04120692 2.21305767 5.04674654 1.9765625 8.546875 C1.925 9.39121094 1.8734375 10.23554688 1.8203125 11.10546875 C1.75585938 11.97816406 1.69140625 12.85085937 1.625 13.75 C1.56828125 14.63816406 1.5115625 15.52632812 1.453125 16.44140625 C1.31202454 18.62846332 1.1606567 20.8143069 1 23 C0.67 23 0.34 23 0 23 C-0.39314715 20.48083404 -0.76475959 17.96140658 -1.125 15.4375 C-1.23714844 14.73302734 -1.34929687 14.02855469 -1.46484375 13.30273438 C-2.15894464 8.28207131 -1.69646511 4.78151834 0 0 Z " fill="#1C61C0" transform="translate(201,141)"/>
<path d="M0 0 C1.98 0 3.96 0 6 0 C1.48631832 3.81926912 -3.09749318 5.34720628 -9 5 C-9.33 4.01 -9.66 3.02 -10 2 C-3.375 0.875 -3.375 0.875 0 2 C0 1.34 0 0.68 0 0 Z " fill="#1E8BB1" transform="translate(111,178)"/>
<path d="M0 0 C0.66 0 1.32 0 2 0 C1.49202991 4.3177458 0.80317221 8.03302114 -1 12 C-1.66 12 -2.32 12 -3 12 C-3.33 13.32 -3.66 14.64 -4 16 C-4.08131463 14.56344146 -4.13933559 13.1255517 -4.1875 11.6875 C-4.22230469 10.88699219 -4.25710938 10.08648437 -4.29296875 9.26171875 C-3.9333405 6.48538866 -3.05689932 5.80503409 -1 4 C-0.28552357 1.89667109 -0.28552357 1.89667109 0 0 Z " fill="#1661C3" transform="translate(448,142)"/>
<path d="M0 0 C0 1.98 0 3.96 0 6 C-0.66 5.34 -1.32 4.68 -2 4 C-5 3.66666667 -5 3.66666667 -8 4 C-8.66 4.66 -9.32 5.32 -10 6 C-9.67 4.02 -9.34 2.04 -9 0 C-3.375 -1.125 -3.375 -1.125 0 0 Z " fill="#215EB8" transform="translate(233,137)"/>
<path d="M0 0 C6.43222143 0.48545067 6.43222143 0.48545067 9 2.8125 C10 5 10 5 9.6875 7.25 C9.460625 7.8275 9.23375 8.405 9 9 C6 6 3 3 0 0 Z " fill="#1386A6" transform="translate(75,138)"/>
<path d="M0 0 C0.99 0.33 1.98 0.66 3 1 C2.34 1 1.68 1 1 1 C1 3.64 1 6.28 1 9 C3.97 9.495 3.97 9.495 7 10 C7 10.66 7 11.32 7 12 C0.125 11.125 0.125 11.125 -1 10 C-1.0979057 8.50261876 -1.12974864 7.00057108 -1.125 5.5 C-1.12757813 4.6853125 -1.13015625 3.870625 -1.1328125 3.03125 C-1 1 -1 1 0 0 Z " fill="#23589F" transform="translate(390,130)"/>
<path d="M0 0 C2.08351615 3.58727128 2.80141379 7.20694042 3.625 11.25 C3.88539063 12.51328125 4.14578125 13.7765625 4.4140625 15.078125 C4.60742188 16.04234375 4.80078125 17.0065625 5 18 C4.01 18.33 3.02 18.66 2 19 C0.26044666 12.56986533 -0.24991456 6.65050424 0 0 Z " fill="#2E63A5" transform="translate(187,122)"/>
<path d="M0 0 C0.33 0 0.66 0 1 0 C1.33 6.93 1.66 13.86 2 21 C1.01 21 0.02 21 -1 21 C-0.67 14.07 -0.34 7.14 0 0 Z " fill="#1463C5" transform="translate(279,144)"/>
<path d="M0 0 C0 0.33 0 0.66 0 1 C-1.98 1 -3.96 1 -6 1 C-6 1.66 -6 2.32 -6 3 C-9.63 3 -13.26 3 -17 3 C-14.01581883 1.50790941 -12.11355525 0.68109021 -9 0 C-8.360625 -0.20625 -7.72125 -0.4125 -7.0625 -0.625 C-4.48800126 -1.09309068 -2.51818343 -0.62954586 0 0 Z " fill="#1E5AAE" transform="translate(268,139)"/>
<path d="M0 0 C3.59905908 0.55550695 4.99909799 1.74887248 7.25 4.5625 C8.03117187 5.52349609 8.03117187 5.52349609 8.828125 6.50390625 C9.21484375 6.99761719 9.6015625 7.49132812 10 8 C8.02 8 6.04 8 4 8 C4.33 6.68 4.66 5.36 5 4 C3.35 3.67 1.7 3.34 0 3 C0 2.01 0 1.02 0 0 Z " fill="#1B8AAF" transform="translate(64,150)"/>
<path d="M0 0 C1.64177401 3.28354802 0.26642648 6.65628996 -0.4375 10.125 C-0.58509766 10.87910156 -0.73269531 11.63320312 -0.88476562 12.41015625 C-1.25057648 14.27461157 -1.62452356 16.13746714 -2 18 C-2.33 18 -2.66 18 -3 18 C-3 14.04 -3 10.08 -3 6 C-2.34 6 -1.68 6 -1 6 C-1.0309375 4.7934375 -1.0309375 4.7934375 -1.0625 3.5625 C-1 1 -1 1 0 0 Z " fill="#2E60A8" transform="translate(176,138)"/>
<path d="M0 0 C0 0.99 0 1.98 0 3 C-3 5 -3 5 -7 5 C-7 3.35 -7 1.7 -7 0 C-2.25 -1.125 -2.25 -1.125 0 0 Z " fill="#1E66C8" transform="translate(415,136)"/>
<path d="M0 0 C0.33 0 0.66 0 1 0 C1.50610724 6.07328688 0.04157942 9.77228537 -3 15 C-3.33 15 -3.66 15 -4 15 C-4 13.35 -4 11.7 -4 10 C-3.34 10 -2.68 10 -2 10 C-1.34 6.7 -0.68 3.4 0 0 Z " fill="#1F87B1" transform="translate(135,150)"/>
<path d="M0 0 C1.61725534 3.00950123 2.67582623 5.97103608 3.625 9.25 C3.88539063 10.14203125 4.14578125 11.0340625 4.4140625 11.953125 C4.60742188 12.62859375 4.80078125 13.3040625 5 14 C4.01 14 3.02 14 2 14 C2 11.69 2 9.38 2 7 C1.34 7 0.68 7 0 7 C0 4.69 0 2.38 0 0 Z " fill="#2D63AA" transform="translate(431,131)"/>
<path d="M0 0 C0.33 0.99 0.66 1.98 1 3 C-0.9375 6.1875 -0.9375 6.1875 -3 9 C-3.66 8.67 -4.32 8.34 -5 8 C-4.45773019 4.20411134 -2.79872437 2.52788007 0 0 Z " fill="#1D89AE" transform="translate(101,156)"/>
<path d="M0 0 C1.14926266 0.95421808 2.29430541 1.91352045 3.4375 2.875 C4.07558594 3.40867188 4.71367188 3.94234375 5.37109375 4.4921875 C7 6 7 6 8 8 C5.03 7.505 5.03 7.505 2 7 C1.34 4.69 0.68 2.38 0 0 Z " fill="#208DA8" transform="translate(74,158)"/>
<path d="M0 0 C1 3 1 3 -0.25 6.0625 C-2 9 -2 9 -5 11 C-5.33 10.34 -5.66 9.68 -6 9 C-5.34 9 -4.68 9 -4 9 C-3.34 6.69 -2.68 4.38 -2 2 C-1.34 2 -0.68 2 0 2 C0 1.34 0 0.68 0 0 Z " fill="#2861AA" transform="translate(245,156)"/>
<path d="M0 0 C0.33 0 0.66 0 1 0 C1.02698189 1.62490954 1.04638757 3.24994633 1.0625 4.875 C1.07410156 5.77992188 1.08570313 6.68484375 1.09765625 7.6171875 C1 10 1 10 0 12 C-1.32 11.67 -2.64 11.34 -4 11 C-3.34 11 -2.68 11 -2 11 C-2 9.35 -2 7.7 -2 6 C-1.34 6 -0.68 6 0 6 C0 4.02 0 2.04 0 0 Z " fill="#115FC8" transform="translate(200,154)"/>
<path d="M0 0 C0.51484621 2.05938485 1.02107885 4.10539426 1.4375 6.1875 C1.623125 6.785625 1.80875 7.38375 2 8 C2.66 8.33 3.32 8.66 4 9 C4 9.66 4 10.32 4 11 C2.35 11 0.7 11 -1 11 C-1.02688151 9.35425434 -1.04634123 7.70838587 -1.0625 6.0625 C-1.07410156 5.14597656 -1.08570313 4.22945312 -1.09765625 3.28515625 C-1 1 -1 1 0 0 Z " fill="#135DC9" transform="translate(250,151)"/>
<path d="M0 0 C0.66 0.33 1.32 0.66 2 1 C2 2.65 2 4.3 2 6 C0.58566794 6.2236337 -0.83167618 6.42826476 -2.25 6.625 C-3.03890625 6.74101562 -3.8278125 6.85703125 -4.640625 6.9765625 C-7.32152459 7.00319395 -8.72694089 6.36592084 -11 5 C-6.66726186 4.07155611 -3.33273814 4.07155611 1 5 C0.67 3.35 0.34 1.7 0 0 Z " fill="#1562C7" transform="translate(242,146)"/>
<path d="M0 0 C1.32 0 2.64 0 4 0 C4 0.66 4 1.32 4 2 C4.66 2.33 5.32 2.66 6 3 C4.68 3 3.36 3 2 3 C1.67 3.66 1.34 4.32 1 5 C0.01 5.33 -0.98 5.66 -2 6 C-1.34 4.02 -0.68 2.04 0 0 Z " fill="#145FC0" transform="translate(171,113)"/>
<path d="M0 0 C0.99 0 1.98 0 3 0 C3.268125 0.78375 3.53625 1.5675 3.8125 2.375 C4.84814432 5.28114923 4.84814432 5.28114923 8 7 C5.69 6.67 3.38 6.34 1 6 C0.67 4.02 0.34 2.04 0 0 Z " fill="#1563CC" transform="translate(312,160)"/>
<path d="M0 0 C0 3 0 3 -1 5 C-1.66 5 -2.32 5 -3 5 C-3.33 5.99 -3.66 6.98 -4 8 C-5.32 8 -6.64 8 -8 8 C-6.6636586 3.99097581 -4.50572968 3.19108105 -1 1 C-0.67 0.67 -0.34 0.34 0 0 Z " fill="#1783A4" transform="translate(99,135)"/>
<path d="M0 0 C2.31 0 4.62 0 7 0 C6.67 0.99 6.34 1.98 6 3 C8.97 3.495 8.97 3.495 12 4 C11.01 4.66 10.02 5.32 9 6 C6.03 4.35 3.06 2.7 0 1 C0 0.67 0 0.34 0 0 Z " fill="#1261C5" transform="translate(229,131)"/>
<path d="M0 0 C0.33 0 0.66 0 1 0 C1.74926071 3.66305234 2.2380014 6.42355152 1 10 C0.34 10 -0.32 10 -1 10 C-1.02689216 8.52093108 -1.04634621 7.04172517 -1.0625 5.5625 C-1.07410156 4.73878906 -1.08570313 3.91507813 -1.09765625 3.06640625 C-1 1 -1 1 0 0 Z " fill="#1864C5" transform="translate(241,136)"/>
<path d="M0 0 C2.31 0 4.62 0 7 0 C7 1.65 7 3.3 7 5 C5.35 5 3.7 5 2 5 C2.99 4.67 3.98 4.34 5 4 C3.74458443 1.48916886 2.49936512 1.12874554 0 0 Z " fill="#1062C6" transform="translate(407,114)"/>
<path d="M0 0 C0.66 0 1.32 0 2 0 C2 0.99 2 1.98 2 3 C2.66 3 3.32 3 4 3 C3.34 4.32 2.68 5.64 2 7 C0.4375 5.1875 0.4375 5.1875 -1 3 C-0.67 2.01 -0.34 1.02 0 0 Z " fill="#135EBE" transform="translate(181,113)"/>
<path d="M0 0 C0.66 0.33 1.32 0.66 2 1 C1.34 2.98 0.68 4.96 0 7 C-0.66 6.34 -1.32 5.68 -2 5 C-1.46428571 1.46428571 -1.46428571 1.46428571 0 0 Z " fill="#1E61BD" transform="translate(443,159)"/>
<path d="M0 0 C-0.33 1.32 -0.66 2.64 -1 4 C-1.66 4 -2.32 4 -3 4 C-3 3.34 -3 2.68 -3 2 C-4.32 2.33 -5.64 2.66 -7 3 C-7 2.34 -7 1.68 -7 1 C-4.53721199 -0.231394 -2.7204945 -0.07159196 0 0 Z " fill="#1B61BE" transform="translate(269,156)"/>
<path d="M0 0 C1.32 0.33 2.64 0.66 4 1 C4 2.32 4 3.64 4 5 C2.68 4.67 1.36 4.34 0 4 C0 2.68 0 1.36 0 0 Z " fill="#0A60DD" transform="translate(423,132)"/>
<path d="M0 0 C0.99 0.495 0.99 0.495 2 1 C2.625 3.5625 2.625 3.5625 3 6 C3.99 6.33 4.98 6.66 6 7 C3.03 6.505 3.03 6.505 0 6 C0 4.02 0 2.04 0 0 Z " fill="#0C5DC7" transform="translate(391,133)"/>
<path d="M0 0 C1.98 0 3.96 0 6 0 C5.67 0.99 5.34 1.98 5 3 C3.35 3 1.7 3 0 3 C0 2.01 0 1.02 0 0 Z " fill="#0960DE" transform="translate(378,118)"/>
</svg>
