<?xml version="1.0" encoding="UTF-8"?>
<svg version="1.1" xmlns="http://www.w3.org/2000/svg" width="500" height="500">
<path d="M0 0 C5.57032822 3.28664795 9.67158602 7.2833546 13.375 12.5625 C14.055625 13.50802734 14.055625 13.50802734 14.75 14.47265625 C19.05140612 21.98518151 18.43591525 32.21650778 17.375 40.5625 C16.26982227 44.42356775 14.75275109 47.34406646 12.375 50.5625 C11.91738281 51.21347656 11.45976562 51.86445313 10.98828125 52.53515625 C6.1872975 58.7303983 -0.09964751 62.52157406 -7.625 64.5625 C-10.40124106 64.88061828 -13.1445938 64.94370853 -15.9375 64.9375 C-16.6900708 64.93588867 -17.4426416 64.93427734 -18.21801758 64.93261719 C-24.10042103 64.80290037 -28.6095079 63.75417679 -33.625 60.5625 C-34.54925781 60.02496094 -34.54925781 60.02496094 -35.4921875 59.4765625 C-37.1875 58.4375 -37.1875 58.4375 -39.625 56.5625 C-39.625 55.9025 -39.625 55.2425 -39.625 54.5625 C-40.285 54.5625 -40.945 54.5625 -41.625 54.5625 C-43.31640625 52.11328125 -43.31640625 52.11328125 -45.1875 48.875 C-46.11755859 47.29138672 -46.11755859 47.29138672 -47.06640625 45.67578125 C-50.88171534 38.05472524 -50.92789057 27.92451083 -48.5 19.8125 C-44.82729273 10.57149462 -39.36557859 4.37248304 -30.625 -0.4375 C-21.38017575 -4.30470113 -9.0762987 -4.17926509 0 0 Z M4.375 11.5625 C3.385 12.2225 2.395 12.8825 1.375 13.5625 C1.375 14.2225 1.375 14.8825 1.375 15.5625 C0.715 15.5625 0.055 15.5625 -0.625 15.5625 C-0.625 16.2225 -0.625 16.8825 -0.625 17.5625 C-1.615 17.8925 -2.605 18.2225 -3.625 18.5625 C-3.625 19.2225 -3.625 19.8825 -3.625 20.5625 C-4.285 20.5625 -4.945 20.5625 -5.625 20.5625 C-5.625 21.2225 -5.625 21.8825 -5.625 22.5625 C-6.285 22.5625 -6.945 22.5625 -7.625 22.5625 C-7.625 23.2225 -7.625 23.8825 -7.625 24.5625 C-8.285 24.5625 -8.945 24.5625 -9.625 24.5625 C-9.625 25.2225 -9.625 25.8825 -9.625 26.5625 C-10.615 26.8925 -11.605 27.2225 -12.625 27.5625 C-12.625 28.2225 -12.625 28.8825 -12.625 29.5625 C-13.285 29.5625 -13.945 29.5625 -14.625 29.5625 C-14.625 30.2225 -14.625 30.8825 -14.625 31.5625 C-15.285 31.5625 -15.945 31.5625 -16.625 31.5625 C-16.625 32.2225 -16.625 32.8825 -16.625 33.5625 C-17.285 33.5625 -17.945 33.5625 -18.625 33.5625 C-18.625 34.2225 -18.625 34.8825 -18.625 35.5625 C-19.615 35.8925 -20.605 36.2225 -21.625 36.5625 C-21.625 37.2225 -21.625 37.8825 -21.625 38.5625 C-22.285 38.5625 -22.945 38.5625 -23.625 38.5625 C-23.625 39.2225 -23.625 39.8825 -23.625 40.5625 C-24.285 40.5625 -24.945 40.5625 -25.625 40.5625 C-25.625 41.2225 -25.625 41.8825 -25.625 42.5625 C-26.13289063 42.11519531 -26.64078125 41.66789062 -27.1640625 41.20703125 C-31.27142275 37.59963058 -35.40821121 34.04135075 -39.625 30.5625 C-41.605 31.5525 -41.605 31.5525 -43.625 32.5625 C-43.04618732 36.11072446 -41.79807641 37.74672803 -39.24609375 40.234375 C-38.57255859 40.89824219 -37.89902344 41.56210938 -37.20507812 42.24609375 C-36.49802734 42.92800781 -35.79097656 43.60992187 -35.0625 44.3125 C-34.35158203 45.00988281 -33.64066406 45.70726562 -32.90820312 46.42578125 C-31.15368295 48.14497552 -29.39130551 49.85544133 -27.625 51.5625 C-20.63417875 45.6754339 -14.14074061 39.36973716 -7.65185547 32.93945312 C-6.29156776 31.59587818 -4.9259174 30.25771267 -3.55517578 28.92480469 C-1.566332 26.99040438 0.40584768 25.04035463 2.375 23.0859375 C2.9925415 22.49106537 3.61008301 21.89619324 4.24633789 21.28329468 C6.14285533 19.43588231 6.14285533 19.43588231 8.375 16.5625 C8.33450218 14.41923909 8.33450218 14.41923909 7.375 12.5625 C6.385 12.2325 5.395 11.9025 4.375 11.5625 Z " fill="#1A0587" transform="translate(120.625,114.4375)"/>
<path d="M0 0 C4.62 0 9.24 0 14 0 C15.5402775 4.97677898 16.50636739 9.77039648 17.125 14.9375 C17.21136719 15.62134766 17.29773438 16.30519531 17.38671875 17.00976562 C17.59602285 18.67257046 17.79871722 20.33620513 18 22 C18.14622803 21.40461426 18.29245605 20.80922852 18.44311523 20.19580078 C19.10545685 17.50492304 19.77143268 14.81495783 20.4375 12.125 C20.66759766 11.18785156 20.89769531 10.25070313 21.13476562 9.28515625 C21.35712891 8.38925781 21.57949219 7.49335938 21.80859375 6.5703125 C22.11494751 5.32918701 22.11494751 5.32918701 22.42749023 4.06298828 C23 2 23 2 24 0 C27.63 0 31.26 0 35 0 C36.65 6.93 38.3 13.86 40 21 C41.52122945 19.47877055 41.41210081 17.88967972 41.71875 15.78125 C41.84636719 14.93175781 41.97398437 14.08226562 42.10546875 13.20703125 C42.23566406 12.31371094 42.36585938 11.42039063 42.5 10.5 C42.75664929 8.73903015 43.01687544 6.97857663 43.28125 5.21875 C43.39533203 4.43435547 43.50941406 3.64996094 43.62695312 2.84179688 C44 1 44 1 45 0 C47.35313555 -0.07271741 49.70833668 -0.08370868 52.0625 -0.0625 C53.35285156 -0.05347656 54.64320313 -0.04445313 55.97265625 -0.03515625 C56.97167969 -0.02355469 57.97070312 -0.01195313 59 0 C58.32960042 8.34275028 56.96728621 16.51783716 55.47094727 24.74365234 C55.05857933 27.0216586 54.65900783 29.30169246 54.25976562 31.58203125 C53.99816888 33.03399366 53.73582673 34.48582201 53.47265625 35.9375 C53.3548732 36.6176416 53.23709015 37.2977832 53.11573792 37.99853516 C52.22887123 42.77112877 52.22887123 42.77112877 50 45 C45.18826893 46.3747803 40.31117004 46.50852755 35.42578125 45.43359375 C33 44 33 44 31.63671875 40.7421875 C31.32347656 39.46601563 31.01023438 38.18984375 30.6875 36.875 C30.51927734 36.21628906 30.35105469 35.55757812 30.17773438 34.87890625 C29.76644123 33.25723612 29.38069618 31.62912445 29 30 C28.78085938 30.98742187 28.56171875 31.97484375 28.3359375 32.9921875 C28.01882812 34.27351563 27.70171875 35.55484375 27.375 36.875 C26.92253906 38.78925781 26.92253906 38.78925781 26.4609375 40.7421875 C25 44 25 44 22.0703125 45.4296875 C16.08012062 46.54236945 11.69820135 46.01677913 6 44 C5.14066223 38.53810092 4.28630968 33.07545386 3.43652344 27.61206055 C3.14687042 25.75442569 2.85586752 23.89700079 2.56347656 22.03979492 C2.14291145 19.36691766 1.72724133 16.69331757 1.3125 14.01953125 C1.18125732 13.19226028 1.05001465 12.36498932 0.91479492 11.51264954 C0.79467041 10.73221786 0.6745459 9.95178619 0.55078125 9.14770508 C0.44419189 8.46597733 0.33760254 7.78424957 0.2277832 7.0818634 C-0.02910029 4.73403291 0 2.3618419 0 0 Z " fill="#2D30E8" transform="translate(139,122)"/>
<path d="M0 0 C3.3 0 6.6 0 10 0 C11 1 11 1 11.09765625 3.94140625 C11.08605469 5.13636719 11.07445312 6.33132812 11.0625 7.5625 C11.05347656 8.76003906 11.04445313 9.95757812 11.03515625 11.19140625 C11.02355469 12.11824219 11.01195312 13.04507813 11 14 C11.66 13.67 12.32 13.34 13 13 C20.06187625 12.42115768 20.06187625 12.42115768 23.9375 14.8125 C27.26629362 18.34303869 27.12036308 21.32556929 27.09765625 25.98046875 C27.09443359 27.14384766 27.09121094 28.30722656 27.08789062 29.50585938 C27.07951172 30.72080078 27.07113281 31.93574219 27.0625 33.1875 C27.05798828 34.41404297 27.05347656 35.64058594 27.04882812 36.90429688 C27.03703065 39.93624668 27.02056921 42.96809906 27 46 C22.68380697 46.90338924 20.49202386 46.89840477 16 46 C15.67 39.07 15.34 32.14 15 25 C14.01 25 13.02 25 12 25 C11.67 31.93 11.34 38.86 11 46 C8.01405576 47.49297212 5.29146376 47.11755228 2 47 C1.34 46.67 0.68 46.34 0 46 C0 30.82 0 15.64 0 0 Z " fill="#2B2FEB" transform="translate(307,121)"/>
<path d="M0 0 C3.63 0 7.26 0 11 0 C15 9.625 15 9.625 15 13 C15.66 13 16.32 13 17 13 C17.12375 11.96875 17.2475 10.9375 17.375 9.875 C17.93889814 6.37883154 18.78682059 3.31602373 20 0 C23.96 0 27.92 0 32 0 C33.12778589 3.38335768 32.90525548 3.97975144 31.73657227 7.19604492 C31.43618546 8.03668991 31.13579865 8.8773349 30.8263092 9.74345398 C30.32640724 11.09827629 30.32640724 11.09827629 29.81640625 12.48046875 C29.48205063 13.40845779 29.14769501 14.33644684 28.8032074 15.29255676 C27.73153812 18.2607211 26.64719494 21.2240741 25.5625 24.1875 C24.8344481 26.19696207 24.10722392 28.20672425 23.38085938 30.21679688 C21.59683166 35.14806707 19.80142259 40.07505904 18 45 C13.71 45 9.42 45 5 45 C4.67 44.34 4.34 43.68 4 43 C4.88191732 41.07214799 5.79989771 39.1607428 6.734375 37.2578125 C9.53253269 30.23145663 8.62196025 26.27234977 5.8359375 19.40625 C5.31257813 18.2409375 4.78921875 17.075625 4.25 15.875 C3.24825932 13.50031525 2.25311304 11.12283435 1.265625 8.7421875 C0.80961914 7.7094873 0.35361328 6.67678711 -0.11621094 5.61279297 C-1 3 -1 3 0 0 Z " fill="#2C2FEB" transform="translate(379,134)"/>
<path d="M0 0 C1.52947266 -0.02513672 1.52947266 -0.02513672 3.08984375 -0.05078125 C6.52028245 0.3684445 8.33396596 1.21034247 11.0625 3.3125 C13.74909934 6.81955783 13.2912964 10.83878505 13.1875 15.0625 C13.17847656 15.75988281 13.16945313 16.45726562 13.16015625 17.17578125 C13.13669888 18.88816958 13.10083104 20.60038004 13.0625 22.3125 C14.3825 22.3125 15.7025 22.3125 17.0625 22.3125 C17.87902673 26.09821484 18.33272644 28.56540336 17 32.25 C15.0625 34.3125 15.0625 34.3125 12.125 34.75 C9.0625 34.3125 9.0625 34.3125 6.9375 33.1875 C6.31875 32.89875 5.7 32.61 5.0625 32.3125 C4.485 32.60125 3.9075 32.89 3.3125 33.1875 C-0.06675306 34.87712653 -3.28689349 34.98645812 -6.9375 34.3125 C-10.87459311 31.90649866 -12.56340324 30.15421772 -14.4375 25.9375 C-15.02443503 21.68222104 -14.67363823 19.23768209 -12.9375 15.3125 C-9.8269236 12.39044338 -7.23564122 12.15085309 -3.125 12.125 C-1.72858728 12.17283796 -0.33232079 12.23045172 1.0625 12.3125 C1.0625 11.3225 1.0625 10.3325 1.0625 9.3125 C-2.2375 9.6425 -5.5375 9.9725 -8.9375 10.3125 C-10.29189668 7.60370665 -10.00251451 5.30316732 -9.9375 2.3125 C-6.56812701 0.28441218 -3.90539912 0.01477452 0 0 Z M-1.9375 19.3125 C-1.9375 20.9625 -1.9375 22.6125 -1.9375 24.3125 C-0.9475 24.3125 0.0425 24.3125 1.0625 24.3125 C1.0625 22.6625 1.0625 21.0125 1.0625 19.3125 C0.0725 19.3125 -0.9175 19.3125 -1.9375 19.3125 Z " fill="#2C2FE8" transform="translate(244.9375,133.6875)"/>
<path d="M0 0 C4.24038462 2.82692308 4.24038462 2.82692308 5.625 5.75 C6.33599041 10.42849244 6.2904095 13.6853448 3.75 17.75 C0.54336623 20.76800825 -1.19766632 20.86765812 -5.5 20.8125 C-6.41007812 20.80347656 -7.32015625 20.79445312 -8.2578125 20.78515625 C-9.30582031 20.76775391 -9.30582031 20.76775391 -10.375 20.75 C-10.375 21.41 -10.375 22.07 -10.375 22.75 C-5.90072076 22.83948558 -1.76936211 22.60743651 2.625 21.75 C4.13251963 24.14429588 4.63062203 25.51387491 4.5625 28.375 C3.625 30.75 3.625 30.75 1.40234375 31.875 C-3.73288365 33.49284942 -9.38806592 33.74744189 -14.5390625 32.02734375 C-19.12414982 29.61773403 -21.27012013 26.66286511 -23.0625 21.9375 C-24.00746086 15.32277399 -23.62152139 10.68329772 -20.375 4.75 C-14.66725705 -1.8139044 -8.10674016 -3.00249635 0 0 Z M-10.375 9.75 C-10.045 11.07 -9.715 12.39 -9.375 13.75 C-8.055 13.09 -6.735 12.43 -5.375 11.75 C-5.705 11.09 -6.035 10.43 -6.375 9.75 C-7.695 9.75 -9.015 9.75 -10.375 9.75 Z " fill="#2B2FEB" transform="translate(223.375,135.25)"/>
<path d="M0 0 C-0.25 3.375 -0.25 3.375 -1 7 C-3.82299691 9.23892859 -5.2791079 9 -9 9 C-9.33 9.99 -9.66 10.98 -10 12 C-8.02 12 -6.04 12 -4 12 C-4 14.97 -4 17.94 -4 21 C-5.65 21 -7.3 21 -9 21 C-9 28.59 -9 36.18 -9 44 C-12.96 44 -16.92 44 -21 44 C-21 36.41 -21 28.82 -21 21 C-22.32 21 -23.64 21 -25 21 C-25 18.03 -25 15.06 -25 12 C-24.01 11.67 -23.02 11.34 -22 11 C-21.41658429 9.01724169 -21.41658429 9.01724169 -21.1875 6.6875 C-20.46944151 3.02131517 -20.17231552 2.16821277 -17.375 -0.5625 C-11.20823677 -3.18908434 -6.18523154 -2.47409262 0 0 Z " fill="#2F31DF" transform="translate(380,123)"/>
<path d="M0 0 C1.81242052 -0.02687279 3.62495233 -0.04633715 5.4375 -0.0625 C6.44683594 -0.07410156 7.45617187 -0.08570312 8.49609375 -0.09765625 C11 0 11 0 12 1 C12.04080783 2.99958364 12.04254356 5.00045254 12 7 C13.98 7 15.96 7 18 7 C18 9.97 18 12.94 18 16 C16.35 16 14.7 16 13 16 C13.00785522 17.0372522 13.00785522 17.0372522 13.01586914 18.09545898 C13.036575 21.20946352 13.04963963 24.32345361 13.0625 27.4375 C13.07087891 28.52611328 13.07925781 29.61472656 13.08789062 30.73632812 C13.09272461 32.28803711 13.09272461 32.28803711 13.09765625 33.87109375 C13.10551147 35.30859985 13.10551147 35.30859985 13.11352539 36.77514648 C13 39 13 39 12 40 C10.16884117 40.09851171 8.33380067 40.12972629 6.5 40.125 C5.4996875 40.12757813 4.499375 40.13015625 3.46875 40.1328125 C1 40 1 40 0 39 C-0.08713831 37.29227642 -0.10700007 35.58101351 -0.09765625 33.87109375 C-0.09443359 32.83662109 -0.09121094 31.80214844 -0.08789062 30.73632812 C-0.07951172 29.64771484 -0.07113281 28.55910156 -0.0625 27.4375 C-0.05798828 26.34501953 -0.05347656 25.25253906 -0.04882812 24.12695312 C-0.03699826 21.41791505 -0.02051543 18.70898401 0 16 C-1.32 16 -2.64 16 -4 16 C-5.125 9.25 -5.125 9.25 -4 7 C-2.68 7 -1.36 7 0 7 C0 4.69 0 2.38 0 0 Z " fill="#2E31E1" transform="translate(286,128)"/>
<path d="M0 0 C3.96 0 7.92 0 12 0 C12 14.85 12 29.7 12 45 C4 46 4 46 0 45 C0 30.15 0 15.3 0 0 Z " fill="#2E31E3" transform="translate(266,122)"/>
<path d="M0 0 C0.66 0 1.32 0 2 0 C2 1.65 2 3.3 2 5 C0.576875 5.556875 0.576875 5.556875 -0.875 6.125 C-4.25553808 7.73995905 -4.25553808 7.73995905 -5.375 11.1875 C-5.58125 12.115625 -5.7875 13.04375 -6 14 C-6.66 14 -7.32 14 -8 14 C-7.98839844 15.24136719 -7.97679688 16.48273438 -7.96484375 17.76171875 C-7.95546132 19.40364432 -7.9463616 21.04557153 -7.9375 22.6875 C-7.92912109 23.50412109 -7.92074219 24.32074219 -7.91210938 25.16210938 C-7.89557949 29.24499084 -7.96964902 33.01651707 -9 37 C-8.01 36.34 -7.02 35.68 -6 35 C-5.63702064 33.02252878 -5.63702064 33.02252878 -5.8125 30.875 C-5.874375 29.59625 -5.93625 28.3175 -6 27 C-4.68 26.67 -3.36 26.34 -2 26 C-2.66 26.66 -3.32 27.32 -4 28 C-3.68096681 31.43169122 -2.25516924 33.10307858 0.16015625 35.453125 C0.78857422 36.071875 1.41699219 36.690625 2.06445312 37.328125 C2.72380859 37.96234375 3.38316406 38.5965625 4.0625 39.25 C4.72572266 39.8996875 5.38894531 40.549375 6.07226562 41.21875 C7.70829317 42.8194676 9.35090912 44.41276193 11 46 C10.67 46.99 10.34 47.98 10 49 C10.38932856 51.14255793 10.38932856 51.14255793 11 53 C11.33 52.34 11.66 51.68 12 51 C12.99 51 13.98 51 15 51 C14.690625 51.598125 14.38125 52.19625 14.0625 52.8125 C12.89790296 55.08956772 12.89790296 55.08956772 12 58 C15.39612414 57.8604947 18.79181458 57.71227678 22.1875 57.5625 C23.14720703 57.52318359 24.10691406 57.48386719 25.09570312 57.44335938 C26.02705078 57.40146484 26.95839844 57.35957031 27.91796875 57.31640625 C28.77156982 57.27974854 29.6251709 57.24309082 30.50463867 57.20532227 C33.06454594 56.99468906 35.49333243 56.55158464 38 56 C37 58 37 58 34.45703125 59.1015625 C30.44045001 60.14541977 26.81903527 60.38418425 22.6875 60.375 C21.9349292 60.37338867 21.1823584 60.37177734 20.40698242 60.37011719 C14.52457897 60.24040037 10.0154921 59.19167679 5 56 C4.07574219 55.46246094 4.07574219 55.46246094 3.1328125 54.9140625 C1.4375 53.875 1.4375 53.875 -1 52 C-1 51.34 -1 50.68 -1 50 C-1.66 50 -2.32 50 -3 50 C-4.69140625 47.55078125 -4.69140625 47.55078125 -6.5625 44.3125 C-7.49255859 42.72888672 -7.49255859 42.72888672 -8.44140625 41.11328125 C-12.25671534 33.49222524 -12.30289057 23.36201083 -9.875 15.25 C-7.69313192 9.60219795 -4.2801091 4.2801091 0 0 Z " fill="#1B087D" transform="translate(82,119)"/>
<path d="M0 0 C3.63 0 7.26 0 11 0 C11 10.89 11 21.78 11 33 C8.6203388 34.1898306 7.08514265 34.13349966 4.4375 34.125 C3.22900391 34.12886719 3.22900391 34.12886719 1.99609375 34.1328125 C0 34 0 34 -1 33 C-1.1007812 30.63601532 -1.13973215 28.30188689 -1.1328125 25.9375 C-1.13376923 25.23101318 -1.13472595 24.52452637 -1.13571167 23.79663086 C-1.13639333 22.30029207 -1.13454005 20.80395033 -1.13037109 19.30761719 C-1.12502257 17.00969843 -1.13031651 14.71197514 -1.13671875 12.4140625 C-1.13605797 10.96354123 -1.1347768 9.51302009 -1.1328125 8.0625 C-1.13483673 7.3708374 -1.13686096 6.6791748 -1.13894653 5.96655273 C-1.11495224 1.11495224 -1.11495224 1.11495224 0 0 Z " fill="#2F32DC" transform="translate(340,134)"/>
<path d="M0 0 C4.24038462 2.82692308 4.24038462 2.82692308 5.625 5.75 C5.96625709 8.78339637 6.07451157 11.72601309 5.625 14.75 C4.965 15.41 4.305 16.07 3.625 16.75 C3.57601562 15.99074219 3.52703125 15.23148438 3.4765625 14.44921875 C3.40179688 13.45535156 3.32703125 12.46148437 3.25 11.4375 C3.18039063 10.45136719 3.11078125 9.46523437 3.0390625 8.44921875 C2.78634528 5.53471567 2.78634528 5.53471567 0.625 2.75 C-3.38354672 0.57393178 -6.86559183 0.34737427 -11.375 0.75 C-15.93813827 2.6601509 -18.08523491 5.4158018 -20.375 9.75 C-20.95911468 12.45153041 -21.18389422 14.97896622 -21.375 17.75 C-20.01375 17.4096875 -20.01375 17.4096875 -18.625 17.0625 C-15.375 16.75 -15.375 16.75 -13 18.1875 C-12.46375 18.703125 -11.9275 19.21875 -11.375 19.75 C-12.035 22.72 -12.695 25.69 -13.375 28.75 C-12.715 28.75 -12.055 28.75 -11.375 28.75 C-11.375 29.74 -11.375 30.73 -11.375 31.75 C-5.78999433 31.55101292 -5.78999433 31.55101292 -1.375 28.75 C-0.715 28.42 -0.055 28.09 0.625 27.75 C1.27713292 25.72536745 1.27713292 25.72536745 1.625 23.75 C-0.025 23.75 -1.675 23.75 -3.375 23.75 C-0.375 21.75 -0.375 21.75 2.625 21.75 C4.13251963 24.14429588 4.63062203 25.51387491 4.5625 28.375 C3.625 30.75 3.625 30.75 1.40234375 31.875 C-3.73288365 33.49284942 -9.38806592 33.74744189 -14.5390625 32.02734375 C-19.12414982 29.61773403 -21.27012013 26.66286511 -23.0625 21.9375 C-24.00746086 15.32277399 -23.62152139 10.68329772 -20.375 4.75 C-14.66725705 -1.8139044 -8.10674016 -3.00249635 0 0 Z " fill="#2C2FEA" transform="translate(223.375,135.25)"/>
<path d="M0 0 C0 7.92 0 15.84 0 24 C-1.32 24 -2.64 24 -4 24 C-4.66 24.33 -5.32 24.66 -6 25 C-6.66 24.67 -7.32 24.34 -8 24 C-8.22655901 20.91772291 -8.42803465 17.8342984 -8.625 14.75 C-8.68945312 13.87730469 -8.75390625 13.00460938 -8.8203125 12.10546875 C-8.871875 11.26113281 -8.9234375 10.41679687 -8.9765625 9.546875 C-9.02893066 8.77182617 -9.08129883 7.99677734 -9.13525391 7.19824219 C-8.97782181 4.63954436 -8.40352186 3.13695231 -7 1 C-4.56968481 0.27090544 -2.52838375 0 0 0 Z " fill="#2C2FEB" transform="translate(333,141)"/>
<path d="M0 0 C3.63 0 7.26 0 11 0 C14.22265625 7.6171875 14.22265625 7.6171875 15 10 C14.67 10.66 14.34 11.32 14 12 C12.04783565 10.04783565 11.15173355 8.46800047 10 6 C9.01 6 8.02 6 7 6 C7.33 4.35 7.66 2.7 8 1 C5.69 1 3.38 1 1 1 C1.26676204 2.98491642 1.26676204 2.98491642 2 5 C2.99 5.33 3.98 5.66 5 6 C5.495 6.515625 5.99 7.03125 6.5 7.5625 C8.01472806 9.34595268 8.01472806 9.34595268 11 9 C11 9.99 11 10.98 11 12 C11.66 12 12.32 12 13 12 C13.6875 13.75 13.6875 13.75 14 16 C13.2884375 16.8971875 13.2884375 16.8971875 12.5625 17.8125 C10.69898302 20.42142377 10.52103798 22.08022267 10.3125 25.25 C10.24675781 26.14203125 10.18101562 27.0340625 10.11328125 27.953125 C10.07589844 28.62859375 10.03851563 29.3040625 10 30 C6.91239061 25.36858591 5.26985477 20.19137678 3.3125 15 C2.88388672 13.89398438 2.45527344 12.78796875 2.01367188 11.6484375 C1.61341797 10.58882812 1.21316406 9.52921875 0.80078125 8.4375 C0.43122314 7.46683594 0.06166504 6.49617187 -0.3190918 5.49609375 C-1 3 -1 3 0 0 Z " fill="#2D30E4" transform="translate(379,134)"/>
<path d="M0 0 C7.20800421 -0.48867825 7.20800421 -0.48867825 10.9375 1.8125 C14.26629362 5.34303869 14.12036308 8.32556929 14.09765625 12.98046875 C14.09443359 14.14384766 14.09121094 15.30722656 14.08789062 16.50585938 C14.07951172 17.72080078 14.07113281 18.93574219 14.0625 20.1875 C14.05798828 21.41404297 14.05347656 22.64058594 14.04882812 23.90429688 C14.03703065 26.93624668 14.02056921 29.96809906 14 33 C9.68380697 33.90338924 7.49202386 33.89840477 3 33 C2.67 26.07 2.34 19.14 2 12 C0.68 12 -0.64 12 -2 12 C-2 11.01 -2 10.02 -2 9 C-0.02 8.34 1.96 7.68 4 7 C4.33 5.35 4.66 3.7 5 2 C3.35 1.67 1.7 1.34 0 1 C0 0.67 0 0.34 0 0 Z M5 9 C3.92123583 11.8213246 3.92920589 14.34320274 4.12109375 17.328125 C4.16943359 18.12734375 4.21777344 18.9265625 4.26757812 19.75 C4.32365234 20.575 4.37972656 21.4 4.4375 22.25 C4.48970703 23.09046875 4.54191406 23.9309375 4.59570312 24.796875 C4.72495689 26.8649352 4.86174274 28.9325222 5 31 C5.99 31.33 6.98 31.66 8 32 C8.66 31.34 9.32 30.68 10 30 C10.99 30.33 11.98 30.66 13 31 C13 23.08 13 15.16 13 7 C10.00567607 7 7.74177497 7.83328724 5 9 Z " fill="#3335CD" transform="translate(320,134)"/>
<path d="M0 0 C3.3 0 6.6 0 10 0 C10 0.33 10 0.66 10 1 C7.03 1 4.06 1 1 1 C1.33 2.32 1.66 3.64 2 5 C2.10825106 6.34210855 2.17472864 7.68806019 2.20532227 9.03417969 C2.22526749 9.81468689 2.24521271 10.59519409 2.26576233 11.39935303 C2.29083107 12.6480014 2.29083107 12.6480014 2.31640625 13.921875 C2.33718735 14.78186096 2.35796844 15.64184692 2.37937927 16.52789307 C2.44463739 19.26851598 2.50364917 22.00923275 2.5625 24.75 C2.60570781 26.6106867 2.64932282 28.47136398 2.69335938 30.33203125 C2.80029442 34.88792523 2.90162851 39.4439134 3 44 C4.485 43.505 4.485 43.505 6 43 C6.33 42.34 6.66 41.68 7 41 C7.99 41 8.98 41 10 41 C10 35.72 10 30.44 10 25 C10.33 25 10.66 25 11 25 C11 31.93 11 38.86 11 46 C8.01405576 47.49297212 5.29146376 47.11755228 2 47 C1.34 46.67 0.68 46.34 0 46 C0 30.82 0 15.64 0 0 Z " fill="#3539C5" transform="translate(307,121)"/>
<path d="M0 0 C3.96 0 7.92 0 12 0 C12 3.63 12 7.26 12 11 C8.04 11 4.08 11 0 11 C0 7.37 0 3.74 0 0 Z " fill="#3134D0" transform="translate(339,121)"/>
<path d="M0 0 C4.62 0 9.24 0 14 0 C15.86783046 5.48675196 16.2358396 10.22192976 16 16 C15.34 16 14.68 16 14 16 C13.34 11.71 12.68 7.42 12 3 C9.36 3.99 6.72 4.98 4 6 C3.67 9.96 3.34 13.92 3 18 C2.67 18 2.34 18 2 18 C1.66191314 15.93827387 1.32972639 13.8755797 1 11.8125 C0.814375 10.66394531 0.62875 9.51539063 0.4375 8.33203125 C0 5 0 5 0 0 Z " fill="#3335CD" transform="translate(139,122)"/>
<path d="M0 0 C3.3 0 6.6 0 10 0 C10 4.29 10 8.58 10 13 C10.66 13 11.32 13 12 13 C12 13.66 12 14.32 12 15 C10.68 14.34 9.36 13.68 8 13 C8 11.35 8 9.7 8 8 C7.34 8 6.68 8 6 8 C5.67 8.66 5.34 9.32 5 10 C3.68 10 2.36 10 1 10 C0.67 6.7 0.34 3.4 0 0 Z " fill="#3132E2" transform="translate(308,122)"/>
<path d="M0 0 C4.24038462 2.82692308 4.24038462 2.82692308 5.625 5.75 C5.96625709 8.78339637 6.07451157 11.72601309 5.625 14.75 C4.965 15.41 4.305 16.07 3.625 16.75 C3.57601562 15.99074219 3.52703125 15.23148438 3.4765625 14.44921875 C3.40179688 13.45535156 3.32703125 12.46148437 3.25 11.4375 C3.18039063 10.45136719 3.11078125 9.46523437 3.0390625 8.44921875 C2.78634528 5.53471567 2.78634528 5.53471567 0.625 2.75 C-3.38354672 0.57393178 -6.86559183 0.34737427 -11.375 0.75 C-15.95897508 2.66887329 -18.07898425 5.39548736 -20.375 9.75 C-21.24982752 13.05655147 -21.86717924 16.36898281 -22.375 19.75 C-22.705 19.75 -23.035 19.75 -23.375 19.75 C-23.75682553 12.49531495 -22.82027453 7.56206571 -17.875 1.875 C-12.72810375 -2.49986181 -6.11027182 -2.26306364 0 0 Z " fill="#3437B9" transform="translate(223.375,135.25)"/>
<path d="M0 0 C0.66 0 1.32 0 2 0 C2 1.65 2 3.3 2 5 C0.576875 5.556875 0.576875 5.556875 -0.875 6.125 C-4.25553808 7.73995905 -4.25553808 7.73995905 -5.375 11.1875 C-5.58125 12.115625 -5.7875 13.04375 -6 14 C-6.66 14 -7.32 14 -8 14 C-8 22.58 -8 31.16 -8 40 C-11.59290508 36.40709492 -11.17935899 31.62422965 -11.25 26.75 C-11.13124306 16.20438414 -7.53596062 7.53596062 0 0 Z " fill="#20106E" transform="translate(82,119)"/>
<path d="M0 0 C3.96 0 7.92 0 12 0 C13.31468468 3.94405405 12.07374735 6.34742896 10.69140625 10.07421875 C10.32304909 11.09996758 10.32304909 11.09996758 9.94725037 12.1464386 C9.16088337 14.32999439 8.36188801 16.50868169 7.5625 18.6875 C7.02715672 20.16701473 6.49264116 21.64682925 5.95898438 23.12695312 C4.64890238 26.75485055 3.32747607 30.37843293 2 34 C1.13136858 30.78993284 0.92395365 28.20662366 1.1875 24.875 C1.24292969 24.00617188 1.29835938 23.13734375 1.35546875 22.2421875 C2 20 2 20 4.05078125 18.6953125 C5.01564453 18.35113281 5.01564453 18.35113281 6 18 C6 16.35 6 14.7 6 13 C6.66 13 7.32 13 8 13 C8 11.02 8 9.04 8 7 C8.66 7 9.32 7 10 7 C10.33 5.02 10.66 3.04 11 1 C7.37 1.33 3.74 1.66 0 2 C0 1.34 0 0.68 0 0 Z " fill="#3A3BBF" transform="translate(399,134)"/>
<path d="M0 0 C2 2 2 2 3 5 C6.55421616 8.64284998 10.16347748 11.3951979 15.375 11.5 C19.03572825 11.36684355 19.03572825 11.36684355 21 9 C21.66 8.67 22.32 8.34 23 8 C23.65213292 5.97536745 23.65213292 5.97536745 24 4 C22.35 4 20.7 4 19 4 C22 2 22 2 25 2 C26.50751963 4.39429588 27.00562203 5.76387491 26.9375 8.625 C26 11 26 11 23.77734375 12.125 C18.64211635 13.74284942 12.98693408 13.99744189 7.8359375 12.27734375 C3.99889494 10.26085543 1.68745251 7.9704765 0 4 C0 2.68 0 1.36 0 0 Z " fill="#3035C1" transform="translate(201,155)"/>
<path d="M0 0 C0.33 0 0.66 0 1 0 C0.39410193 8.62598738 -0.91371769 17.05508566 -2.4375 25.5625 C-2.65470703 26.83158203 -2.87191406 28.10066406 -3.09570312 29.40820312 C-3.31033203 30.61541016 -3.52496094 31.82261719 -3.74609375 33.06640625 C-3.93872803 34.15896729 -4.1313623 35.25152832 -4.32983398 36.37719727 C-5 39 -5 39 -7 41 C-9.625 41.125 -9.625 41.125 -12 41 C-12 40.34 -12 39.68 -12 39 C-10.35 39 -8.7 39 -7 39 C-6.34 32.73 -5.68 26.46 -5 20 C-4.34 20 -3.68 20 -3 20 C-3 16.37 -3 12.74 -3 9 C-2.34 9 -1.68 9 -1 9 C-0.67 6.03 -0.34 3.06 0 0 Z " fill="#373AC1" transform="translate(196,126)"/>
<path d="M0 0 C1.01964844 -0.01675781 2.03929687 -0.03351563 3.08984375 -0.05078125 C6.52028245 0.3684445 8.33396596 1.21034247 11.0625 3.3125 C13.74909934 6.81955783 13.2912964 10.83878505 13.1875 15.0625 C13.17847656 15.75988281 13.16945313 16.45726562 13.16015625 17.17578125 C13.13669888 18.88816958 13.10083104 20.60038004 13.0625 22.3125 C12.7325 22.3125 12.4025 22.3125 12.0625 22.3125 C12.01351563 21.31347656 11.96453125 20.31445312 11.9140625 19.28515625 C11.83929688 17.99480469 11.76453125 16.70445312 11.6875 15.375 C11.61789062 14.08722656 11.54828125 12.79945313 11.4765625 11.47265625 C11.33992188 10.42980469 11.20328125 9.38695312 11.0625 8.3125 C10.4025 7.9825 9.7425 7.6525 9.0625 7.3125 C8.4375 5.25 8.4375 5.25 8.0625 3.3125 C5.95901926 3.11745542 3.85467415 2.93171504 1.75 2.75 C0.57824219 2.64558594 -0.59351563 2.54117188 -1.80078125 2.43359375 C-4.96782575 2.12672566 -4.96782575 2.12672566 -7.9375 3.3125 C-7.9375 5.2925 -7.9375 7.2725 -7.9375 9.3125 C-5.2975 8.9825 -2.6575 8.6525 0.0625 8.3125 C-3.07248292 10.17026765 -5.31221432 10.51390476 -8.9375 10.3125 C-10.29189668 7.60370665 -10.00251451 5.30316732 -9.9375 2.3125 C-6.56812701 0.28441218 -3.90539912 0.01477452 0 0 Z " fill="#383ABC" transform="translate(244.9375,133.6875)"/>
<path d="M0 0 C0.66 0.33 1.32 0.66 2 1 C2 1.66 2 2.32 2 3 C1.01 3.33 0.02 3.66 -1 4 C-0.67 5.98 -0.34 7.96 0 10 C-2.64738916 11.4606285 -3.89448334 12 -7 12 C-8.33981486 12.3062434 -9.67511887 12.63451555 -11 13 C-11.33 14.32 -11.66 15.64 -12 17 C-13.65 17.33 -15.3 17.66 -17 18 C-11.72898586 11.58930713 -5.90871848 5.81409488 0 0 Z " fill="#180481" transform="translate(128,131)"/>
<path d="M0 0 C0.33 0 0.66 0 1 0 C1.33 3.63 1.66 7.26 2 11 C4.31 11.33 6.62 11.66 9 12 C9 12.66 9 13.32 9 14 C4.71 14 0.42 14 -4 14 C-4.33 13.34 -4.66 12.68 -5 12 C-4.26821134 9.92803369 -3.44100997 7.8891448 -2.5625 5.875 C-2.08941406 4.77929688 -1.61632812 3.68359375 -1.12890625 2.5546875 C-0.75636719 1.71164063 -0.38382812 0.86859375 0 0 Z " fill="#3135C5" transform="translate(388,165)"/>
<path d="M0 0 C3.79386167 3.07122135 5.64853706 7.46109463 6.30541992 12.20629883 C6.4380451 14.6039095 6.46611517 16.9739488 6.4375 19.375 C6.43427734 20.21264893 6.43105469 21.05029785 6.42773438 21.91333008 C6.28733433 28.12179602 5.24936647 32.61823679 2 38 C0.79492224 34.38476672 1.36270532 33.15947954 2.4375 29.5625 C4.84455813 20.33544384 5.40891938 12.337743 0.875 3.7421875 C0 2 0 2 0 0 Z " fill="#1F0F73" transform="translate(132,126)"/>
<path d="M0 0 C1.51400391 0.01740234 1.51400391 0.01740234 3.05859375 0.03515625 C4.07050781 0.04417969 5.08242188 0.05320313 6.125 0.0625 C7.29869141 0.07990234 7.29869141 0.07990234 8.49609375 0.09765625 C9.19294873 1.71866655 9.87832236 3.34461691 10.55859375 4.97265625 C10.94144531 5.87757813 11.32429688 6.7825 11.71875 7.71484375 C12.49609375 10.09765625 12.49609375 10.09765625 11.49609375 12.09765625 C9.5439294 10.1454919 8.6478273 8.56565672 7.49609375 6.09765625 C6.50609375 6.09765625 5.51609375 6.09765625 4.49609375 6.09765625 C4.82609375 4.44765625 5.15609375 2.79765625 5.49609375 1.09765625 C3.18609375 1.09765625 0.87609375 1.09765625 -1.50390625 1.09765625 C-1.17390625 3.40765625 -0.84390625 5.71765625 -0.50390625 8.09765625 C-2.86947334 5.73208916 -3.08634666 4.35462104 -3.50390625 1.09765625 C-2.50390625 0.09765625 -2.50390625 0.09765625 0 0 Z " fill="#3433C5" transform="translate(381.50390625,133.90234375)"/>
<path d="M0 0 C2.64 0 5.28 0 8 0 C8.04254356 1.99954746 8.04080783 4.00041636 8 6 C7 7 7 7 3.9375 7.0625 C2.968125 7.041875 1.99875 7.02125 1 7 C0.67 4.69 0.34 2.38 0 0 Z " fill="#2A2FE6" transform="translate(370,123)"/>
<path d="M0 0 C1.92700444 3.72554191 3.09112016 7.05652955 3.53515625 11.23046875 C3.62216797 12.03291016 3.70917969 12.83535156 3.79882812 13.66210938 C3.88583984 14.49548828 3.97285156 15.32886719 4.0625 16.1875 C4.15337891 17.03248047 4.24425781 17.87746094 4.33789062 18.74804688 C4.5615612 20.83171485 4.78117151 22.91581795 5 25 C5.99 25 6.98 25 8 25 C8 25.66 8 26.32 8 27 C6.35 26.67 4.7 26.34 3 26 C2.4926043 22.79279138 1.995421 19.58407837 1.5 16.375 C1.35691406 15.47136719 1.21382812 14.56773437 1.06640625 13.63671875 C0.36265833 9.04560134 -0.18584778 4.66168185 0 0 Z " fill="#3537BA" transform="translate(142,140)"/>
<path d="M0 0 C0 0.66 0 1.32 0 2 C-0.99 2.33 -1.98 2.66 -3 3 C-3.05391993 4.79133978 -3.09275571 6.58313899 -3.125 8.375 C-3.14820313 9.37273437 -3.17140625 10.37046875 -3.1953125 11.3984375 C-3.27216848 14.16262173 -3.27216848 14.16262173 -1 16 C-1.33 16.99 -1.66 17.98 -2 19 C-4.89210605 15.73471898 -6.78916041 13.42763135 -7 9 C-5.16949153 0 -5.16949153 0 0 0 Z " fill="#3334BF" transform="translate(237,147)"/>
<path d="M0 0 C5.875 4.625 5.875 4.625 7 8 C6.34 8 5.68 8 5 8 C5 9.65 5 11.3 5 13 C4.01 11.68 3.02 10.36 2 9 C0.35 9.33 -1.3 9.66 -3 10 C-3 9.01 -3 8.02 -3 7 C-0.69 7 1.62 7 4 7 C3.34 6.67 2.68 6.34 2 6 C2 5.34 2 4.68 2 4 C1.34 4 0.68 4 0 4 C0 2.68 0 1.36 0 0 Z " fill="#1C0E6F" transform="translate(125,118)"/>
<path d="M0 0 C0.33 0.66 0.66 1.32 1 2 C1.66 2.33 2.32 2.66 3 3 C3.40729228 5.32156597 3.74438677 7.6568787 4 10 C7.3 10.66 10.6 11.32 14 12 C14 12.33 14 12.66 14 13 C5.69966443 13.32550336 5.69966443 13.32550336 2 11 C0.25948202 7.27031861 -0.24058415 4.08993061 0 0 Z " fill="#3236C3" transform="translate(170,155)"/>
<path d="M0 0 C1.32 0 2.64 0 4 0 C4.81652673 3.78571484 5.27022644 6.25290336 3.9375 9.9375 C2 12 2 12 -1.0625 12.5 C-2.031875 12.335 -3.00125 12.17 -4 12 C-4.66 11.01 -5.32 10.02 -6 9 C-3.03 9 -0.06 9 3 9 C3 6.36 3 3.72 3 1 C2.01 0.67 1.02 0.34 0 0 Z " fill="#3235C4" transform="translate(258,156)"/>
<path d="M0 0 C0.33 0 0.66 0 1 0 C1 3.3 1 6.6 1 10 C0.34 10 -0.32 10 -1 10 C-0.938125 10.825 -0.87625 11.65 -0.8125 12.5 C-1.04724662 16.88193696 -2.32618654 19.95495082 -4 24 C-5.09180878 20.69470655 -4.88297902 18.57913968 -4.00390625 15.234375 C-3.66069336 13.90019531 -3.66069336 13.90019531 -3.31054688 12.5390625 C-2.94026367 11.15847656 -2.94026367 11.15847656 -2.5625 9.75 C-2.31951172 8.81414062 -2.07652344 7.87828125 -1.82617188 6.9140625 C-1.22587133 4.6070251 -0.61689335 2.30264561 0 0 Z " fill="#3537C2" transform="translate(162,124)"/>
<path d="M0 0 C1.32 0.33 2.64 0.66 4 1 C0.68629 3.20914 -0.3446021 3.22481553 -4.1875 3.125 C-5.08855469 3.10695312 -5.98960937 3.08890625 -6.91796875 3.0703125 C-7.60503906 3.04710937 -8.29210937 3.02390625 -9 3 C-9 3.66 -9 4.32 -9 5 C-6.69 5.33 -4.38 5.66 -2 6 C-2 6.33 -2 6.66 -2 7 C-4.64 7.33 -7.28 7.66 -10 8 C-10.33 6.02 -10.66 4.04 -11 2 C-8.47946405 0.73973202 -7.1457902 1.08125555 -4.375 1.4375 C-3.14910156 1.59025391 -3.14910156 1.59025391 -1.8984375 1.74609375 C-0.95871094 1.87177734 -0.95871094 1.87177734 0 2 C0 1.34 0 0.68 0 0 Z " fill="#3436C8" transform="translate(222,153)"/>
<path d="M0 0 C6.47630923 -0.36658354 6.47630923 -0.36658354 8.875 1.3125 C11.47239453 5.2085918 11.11690812 9.20510814 11.0625 13.6875 C11.05798828 14.38939453 11.05347656 15.09128906 11.04882812 15.81445312 C11.03706927 17.54300538 11.01913454 19.27151365 11 21 C10.67 21 10.34 21 10 21 C9.95101563 20.00097656 9.90203125 19.00195312 9.8515625 17.97265625 C9.77679688 16.68230469 9.70203125 15.39195312 9.625 14.0625 C9.55539062 12.77472656 9.48578125 11.48695313 9.4140625 10.16015625 C9.27742188 9.11730469 9.14078125 8.07445312 9 7 C8.34 6.67 7.68 6.34 7 6 C6.375 3.9375 6.375 3.9375 6 2 C3.03 1.505 3.03 1.505 0 1 C0 0.67 0 0.34 0 0 Z " fill="#3539C9" transform="translate(247,135)"/>
<path d="M0 0 C-0.33 1.32 -0.66 2.64 -1 4 C-2.32 4.33 -3.64 4.66 -5 5 C-5 7.64 -5 10.28 -5 13 C-5.99 13.495 -5.99 13.495 -7 14 C-7.7833257 6.01007787 -7.7833257 6.01007787 -4.625 1.9375 C-2 0 -2 0 0 0 Z " fill="#3636C4" transform="translate(366,122)"/>
<path d="M0 0 C0.66 0 1.32 0 2 0 C1.39891424 5.65020618 -0.07528683 10.66164461 -2 16 C-2.99020864 12.79857356 -3.0200144 10.20014399 -2.6875 6.875 C-2.60886719 6.00617188 -2.53023438 5.13734375 -2.44921875 4.2421875 C-2 2 -2 2 0 0 Z " fill="#3435D1" transform="translate(403,152)"/>
<path d="M0 0 C4.13621084 3.3810038 7.81316569 6.66590534 11 11 C8.77064705 10.00063488 7.21854466 9.25828005 5.625 7.375 C3.19604762 5.3197326 1.06626911 5.79558206 -2 6 C-1.34 4.02 -0.68 2.04 0 0 Z " fill="#1A0A6F" transform="translate(79,152)"/>
<path d="M0 0 C1.98 0 3.96 0 6 0 C6.33 1.65 6.66 3.3 7 5 C6.01 5.33 5.02 5.66 4 6 C4 6.66 4 7.32 4 8 C3.34 8 2.68 8 2 8 C3 5 3 5 5 3 C3.68 2.67 2.36 2.34 1 2 C1 2.99 1 3.98 1 5 C0.34 5 -0.32 5 -1 5 C-0.67 3.35 -0.34 1.7 0 0 Z " fill="#3637CB" transform="translate(212,143)"/>
<path d="M0 0 C0.66 0.33 1.32 0.66 2 1 C1.67 1.66 1.34 2.32 1 3 C0.34 3 -0.32 3 -1 3 C-1 3.66 -1 4.32 -1 5 C-1.66 5 -2.32 5 -3 5 C-3 5.66 -3 6.32 -3 7 C-3.66 7 -4.32 7 -5 7 C-5 7.66 -5 8.32 -5 9 C-7 10.625 -7 10.625 -9 12 C-8.67 10.35 -8.34 8.7 -8 7 C-7.01 6.67 -6.02 6.34 -5 6 C-5 5.34 -5 4.68 -5 4 C-3.37373596 2.61767557 -1.7074998 1.28062485 0 0 Z " fill="#1E0E65" transform="translate(116,132)"/>
<path d="M0 0 C0.66 0 1.32 0 2 0 C2.66 1.65 3.32 3.3 4 5 C4.66 5 5.32 5 6 5 C5.34 7.31 4.68 9.62 4 12 C2.875 8.25 2.875 8.25 4 6 C2.68 5.67 1.36 5.34 0 5 C0 3.35 0 1.7 0 0 Z " fill="#2F34D6" transform="translate(394,164)"/>
<path d="M0 0 C1 4 1 4 1 8 C0.67 7.34 0.34 6.68 0 6 C-1.98 6.33 -3.96 6.66 -6 7 C-4.02 4.69 -2.04 2.38 0 0 Z " fill="#190A74" transform="translate(108,151)"/>
<path d="M0 0 C0.99 0.33 1.98 0.66 3 1 C2.52949219 1.55171875 2.05898437 2.1034375 1.57421875 2.671875 C-0.1802113 5.26651597 -0.66258637 7.18127415 -1.1875 10.25 C-1.34605469 11.14203125 -1.50460938 12.0340625 -1.66796875 12.953125 C-1.77753906 13.62859375 -1.88710937 14.3040625 -2 15 C-2.33 15 -2.66 15 -3 15 C-3.3152595 9.01006953 -2.68219822 5.36439644 0 0 Z " fill="#3536CC" transform="translate(203,140)"/>
<path d="M0 0 C2.125 0.375 2.125 0.375 4 1 C4 1.66 4 2.32 4 3 C3.34 3 2.68 3 2 3 C2 3.66 2 4.32 2 5 C0.625 6.625 0.625 6.625 -1 8 C-1.66 8 -2.32 8 -3 8 C-2.25 2.25 -2.25 2.25 0 0 Z " fill="#180873" transform="translate(100,145)"/>
<path d="M0 0 C1.485 0.99 1.485 0.99 3 2 C3 2.66 3 3.32 3 4 C3.66 4 4.32 4 5 4 C5 6.97 5 9.94 5 13 C3.09610151 10.14415227 2.30537823 8.0688238 1.375 4.8125 C0.98441406 3.46091797 0.98441406 3.46091797 0.5859375 2.08203125 C0.39257812 1.39496094 0.19921875 0.70789063 0 0 Z " fill="#3333C5" transform="translate(384,151)"/>
<path d="M0 0 C0.66 0.33 1.32 0.66 2 1 C2 1.66 2 2.32 2 3 C-0.5 4.5 -0.5 4.5 -3 6 C-4.7041054 7.62836738 -6.38025441 9.28769752 -8 11 C-8.66 10.67 -9.32 10.34 -10 10 C-6.7 6.7 -3.4 3.4 0 0 Z " fill="#1E0F6C" transform="translate(128,131)"/>
<path d="M0 0 C2.97 0.495 2.97 0.495 6 1 C5.67 1.66 5.34 2.32 5 3 C2.24921116 3.91692961 0.64051087 4.10886083 -2.1875 4.0625 C-4.0746875 4.0315625 -4.0746875 4.0315625 -6 4 C-6 3.67 -6 3.34 -6 3 C-4.35 3 -2.7 3 -1 3 C-0.67 2.01 -0.34 1.02 0 0 Z " fill="#3032C8" transform="translate(244,164)"/>
<path d="M0 0 C1.98 0.495 1.98 0.495 4 1 C4 2.65 4 4.3 4 6 C3.34 5.01 2.68 4.02 2 3 C1.34 5.31 0.68 7.62 0 10 C-0.33 10 -0.66 10 -1 10 C-1.125 2.25 -1.125 2.25 0 0 Z " fill="#3839C8" transform="translate(166,149)"/>
<path d="M0 0 C2.475 0.99 2.475 0.99 5 2 C5 3.98 5 5.96 5 8 C2.20127563 5.47211993 0.54226981 3.79588866 0 0 Z " fill="#1E0D76" transform="translate(74,159)"/>
<path d="M0 0 C1.67110042 2.96178773 2.32682752 5.37071192 2.625 8.75 C2.69976562 9.54921875 2.77453125 10.3484375 2.8515625 11.171875 C2.90054688 11.77515625 2.94953125 12.3784375 3 13 C0.95204577 11.0373772 0.05023362 9.5722693 -0.19921875 6.73046875 C-0.18858877 4.48045617 -0.12958525 2.24614438 0 0 Z " fill="#3336C1" transform="translate(175,130)"/>
<path d="M0 0 C2.475 0.99 2.475 0.99 5 2 C4.01 2.495 4.01 2.495 3 3 C2.27306096 4.97888961 1.60183749 6.97954558 1 9 C0.67 9 0.34 9 0 9 C0 6.03 0 3.06 0 0 Z " fill="#302EE1" transform="translate(340,122)"/>
<path d="M0 0 C0.91004613 3.07140568 1.33694826 5.79899154 1 9 C0.01 9.66 -0.98 10.32 -2 11 C-2.33 9.68 -2.66 8.36 -3 7 C-2.34 7 -1.68 7 -1 7 C-0.67 4.69 -0.34 2.38 0 0 Z " fill="#3539CB" transform="translate(397,140)"/>
<path d="M0 0 C-4.625 4 -4.625 4 -8 4 C-8 3.01 -8 2.02 -8 1 C-3.375 -1.125 -3.375 -1.125 0 0 Z " fill="#1B0A6D" transform="translate(128,171)"/>
<path d="M0 0 C1.32 0.99 2.64 1.98 4 3 C3.01 3 2.02 3 1 3 C1 3.66 1 4.32 1 5 C-1.97 4.505 -1.97 4.505 -5 4 C-4.360625 3.71125 -3.72125 3.4225 -3.0625 3.125 C-0.84793921 2.17176549 -0.84793921 2.17176549 0 0 Z " fill="#2A31D2" transform="translate(273,163)"/>
<path d="M0 0 C1 2 1 2 0.375 4.0625 C-1 6 -1 6 -3.625 6.75 C-4.800625 6.87375 -4.800625 6.87375 -6 7 C-4.02 4.69 -2.04 2.38 0 0 Z " fill="#1C0D65" transform="translate(117,142)"/>
<path d="M0 0 C-0.33 1.32 -0.66 2.64 -1 4 C-2.32 4.33 -3.64 4.66 -5 5 C-4.625 3.0625 -4.625 3.0625 -4 1 C-2 0 -2 0 0 0 Z " fill="#3130CF" transform="translate(366,122)"/>
</svg>
